<svg xmlns="http://www.w3.org/2000/svg" xmlns:xlink="http://www.w3.org/1999/xlink" version="1.1" id="Layer_1" x="0" y="0" width="403.2" height="386.81" viewBox="278.4 30.59 403.2 386.81" enable-background="new 278.402 30.593 403.2 386.813" xml:space="preserve"><path d="M515.19 337.6c-1.16-0.23-2.3-0.37-3.39-0.41 -2.24-0.08-4.41 0.26-6.39 0.99l-0.31 0.11c-0.24 0.08-0.48 0.16-0.69 0.26 -0.8 0.36-1.58 0.81-2.46 1.41 -0.69 0.48-1.29 0.97-1.83 1.47 -0.33 0.31-0.66 0.61-0.94 0.91l-2.03 2.17 2.96-0.31c0.42-0.05 0.85-0.07 1.27-0.09h0.49c0.69 0 1.35 0.03 2.05 0.1 1.17 0.12 2.38 0.36 3.6 0.71l0.33 0.1 0.32-0.11c2.19-0.73 4.28-1.89 6.21-3.43 0.63-0.5 1.2-0.99 1.71-1.48l-0.5-0.57 0.03-0.09 0.69 0.47 1.64-1.57 -1.93-0.49C515.81 337.69 515.62 337.66 515.19 337.6z"/><path d="M522.66 349.02c-1.86-1.95-3.6-3.85-5.26-5.74l-0.69-0.79 -0.82 0.65c-1.03 0.82-2.24 1.6-3.61 2.35l-0.78 0.67 0.42 0.94c0.07 0.33-0.01 0.68-0.23 0.94 -0.63 0.75-1.45 1.57-2.37 2.38l-0.82 0.73 0.72 0.83c1.2 1.39 2.12 2.31 2.76 2.72 1.3 0.86 2.76 1.19 4.23 1.19 3.23 0 6.54-1.6 8.6-2.82l1.07-0.92 -1.26-1.19v0C524.04 350.4 523.37 349.78 522.66 349.02z"/><path d="M518.91 318.1c0.03-1.58-0.23-3.27-0.81-5.09l-0.13-0.42c-0.12-0.42-0.25-0.83-0.43-1.27l-0.7-1.72 -1.17 1.44c-0.1 0.12-0.2 0.27-0.38 0.54 -0.17 0.26-0.35 0.56-0.52 0.88 -0.24 0.44-0.48 0.93-0.71 1.5 -0.32 0.78-0.63 1.71-0.9 2.76l-0.17 0.69 0.17 0.37c0.84 1.75 1.21 3.57 1.11 5.4 -0.01 0.13-0.01 0.27 0.01 0.53 -0.01 0.1-0.04 0.19-0.07 0.29 -0.04 0.14-0.07 0.28-0.1 0.44l-0.64 3.67 2.54-2.73c0.64-0.69 1.21-1.51 1.71-2.44l-0.97-0.52 1.1 0.29c0.13-0.24 0.27-0.48 0.38-0.75 0.06-0.15 0.1-0.3 0.13-0.45l-1.08-0.23 1.16-0.08C518.72 320.27 518.88 319.22 518.91 318.1z"/><path d="M506.81 349.59c0.26-0.21 0.52-0.41 0.74-0.6l1.57-1.31 -1.96-0.6c-0.88-0.27-1.7-0.41-2.52-0.54 -1.06-0.17-2.11-0.24-3.02-0.22 -0.76 0.02-1.48 0.1-2.19 0.21 -0.84 0.13-1.64 0.32-2.52 0.6 -0.73 0.25-1.43 0.53-2.08 0.85 -0.37 0.18-0.73 0.37-1.09 0.57 -0.71 0.41-1.36 0.85-1.95 1.3l-2.52 1.92 3.76 0.09c1.19 0.06 2.21 0.19 3.2 0.42 0.89 0.2 1.82 0.48 2.94 0.89l0.62 0.25 0.37-0.12c0.66-0.22 1.29-0.48 1.9-0.76 0.8-0.37 1.57-0.77 2.27-1.2 0.69-0.42 1.33-0.85 1.9-1.28l0.29-0.23 -0.66-0.8c0.02 0.01 0.05 0.01 0.07 0.02L506.81 349.59z"/><path d="M516.11 291.46l-1 1.06c-1.21 1.29-2.44 2.57-3.69 3.82l-0.55 0.55 0.33 0.7c1.34 2.85 2.98 5.73 4.99 8.79l1.12 1.7 0.81-1.86c1.03-2.35 2.41-3.94 3.4-4.87l0.7-0.66 -0.56-0.78c-1.88-2.64-3.49-5.07-4.8-7.21L516.11 291.46z"/><path d="M521.18 320.61l2.08-2.81c0.11-0.14 0.23-0.28 0.33-0.44 0.43-0.62 0.82-1.29 1.26-2.07 0.2-0.37 0.38-0.74 0.55-1.11 0.82-1.77 1.23-3.35 1.24-4.81l0.01-0.04 0-0.16c-0.01-0.69-0.13-1.41-0.37-2.19 -0.39-1.31-1.09-2.52-2.09-3.61l-0.78-0.85 -0.81 0.82c-0.22 0.22-0.45 0.49-0.68 0.78 -0.87 1.06-2.02 2.89-2.56 5.57l-0.07 0.34 0.38 0.85c0.12 0.26 0.24 0.51 0.33 0.76 0.56 1.6 0.93 3.15 1.08 4.62v0.17c0.02 0.17 0.01 0.34 0 0.51 0 0.17 0 0.34 0 0.51L521.18 320.61z"/><path d="M520.29 333.49c1.16-0.77 2.27-1.66 3.21-2.57l1.68-1.62 -2.32-0.27c-0.6-0.07-1.18-0.08-1.75-0.09l-0.2 1.1 0.02-1.1c-1.53 0-3.06 0.14-4.46 0.46l-0.34 0.07c-0.27 0.06-0.54 0.12-0.82 0.19 -0.37 0.12-0.71 0.25-1.3 0.48 -0.72 0.28-1.39 0.58-2.18 1 -0.26 0.14-0.52 0.29-0.78 0.45l-3.09 3.39 3.11-0.09c1.02-0.02 1.81 0.05 2.79 0.18 0.64 0.09 1.32 0.23 2.03 0.39l0.32 0.07 0.6-0.22c0.19-0.06 0.39-0.14 0.59-0.22 0.76-0.34 1.47-0.73 2.13-1.13C519.72 333.86 519.9 333.75 520.29 333.49z"/><path d="M489.37 340.77l1.1-0.28v0l-1.02 0.43c0.66 1.59 1.02 3.25 1.05 4.94l0.06 3.01 1.9-2.33c0.42-0.51 0.78-1.06 1.17-1.66l0.16-0.24c0.16-0.22 0.31-0.45 0.44-0.68 0.26-0.44 0.44-0.9 0.72-1.55l0.16-0.37c0.22-0.5 0.44-1 0.56-1.52 0.1-0.4 0.1-0.75 0.11-1.06l0.02-0.38c0.14-1.42-0.01-2.8-0.47-4.18 -0.02-0.14-0.06-0.33-0.15-0.54l-0.69-1.29 -1.15 0.97c-0.27 0.23-0.54 0.47-0.84 0.77l-0.34 0.38c-0.6 0.64-1.13 1.3-1.61 2.02 -0.45 0.67-0.89 1.47-1.32 2.38L489.02 340 489.37 340.77z"/><path d="M495.06 310.01l-1.07 0.78c-1.41 1.02-2.84 2.02-4.28 3.01l-0.67 0.45 0.24 0.78c1.32 4.34 3.1 8.9 5.3 13.53l0.96 2.02 1.02-1.98c1.44-2.81 3.24-4.58 4.5-5.57l0.77-0.61 -0.51-0.83c-2.22-3.65-4.13-7.14-5.67-10.37L495.06 310.01z"/><path d="M480.39 357.49l2.16-1.97c0.46-0.42 0.98-0.82 1.55-1.22l0.01 0c0.42-0.29 0.88-0.57 1.39-0.85l0.41-0.35c0.22-0.3 0.41-0.63 0.6-0.96l-0.82-0.79 1.04 0.41 0.16-0.25c0.6-1.12 0.98-2.09 1.2-3.06 0.42-1.86 0.33-3.69-0.28-5.59 -0.14-0.46-0.29-0.92-0.5-1.38l-0.6-1.32 -1.11 0.93c-0.54 0.45-1.36 1.22-2.22 2.34 -1.38 1.82-2.27 3.95-2.67 6.34l-0.02 0.16 0.02 0.16c0.18 1.45 0.19 2.96 0.02 4.5L480.39 357.49z"/><path d="M546.58 336.08c1.19 0.56 2.24 0.8 3.18 0.8 2.25 0 3.96-1.33 5.86-2.8l2.08-1.73 -1.15-0.8c-0.56-0.39-1.4-0.91-2.18-1.37l-0.58-0.35c-4.96-2.89-9.68-6.3-14.45-10.41l-0.73-0.63 -0.72 0.64c-0.31 0.27-0.65 0.54-1 0.81l-0.58 0.45 0.18 0.7c0.1 0.39 0.01 0.79-0.25 1.05 -0.16 0.17-1.14 1.11-2.55 2.25l-1.01 0.81 0.97 0.87C539.87 331.93 544.89 335.28 546.58 336.08z"/><path d="M527.86 320.17c1.59-0.13 3.09-0.14 4.6-0.02l0.29 0.03 0.27-0.13c1.11-0.52 2.11-1.14 3.11-1.95l0.23-0.18c0.56-0.49 1.03-0.97 1.51-1.53 0.21-0.24 0.41-0.48 0.58-0.72l1.22-1.68 -2.08-0.07c-0.37-0.01-0.7 0-1.04 0.02l-0.41 0.02c-1.08 0.04-2.09 0.14-3.02 0.31 -2.07 0.38-3.97 1.07-5.85 2.19 -0.2 0.11-0.4 0.23-0.58 0.35l-0.81 1.1c-0.15 0.24-0.3 0.48-0.46 0.7l-1.46 2.07 2.51-0.34C526.93 320.26 527.39 320.21 527.86 320.17z"/><path d="M484.31 360.03l0.32 0.09c1.55 0.48 2.99 0.68 4.32 0.68 3.35 0 5.99-1.26 7.81-2.53 0.62-0.44 1.19-0.88 1.66-1.31l1.39-1.25 -1.76-0.62c-3.91-1.37-7.46-1.44-10.63-0.18 -2.14 0.89-3.55 2.17-4.36 3.1l-1.03 1.19 1.47 0.56C483.78 359.88 484.05 359.96 484.31 360.03z"/><path d="M505.82 301.17l-1.05 0.92c-1.31 1.14-2.64 2.25-3.98 3.35l-0.63 0.51 0.3 0.76c1.16 2.94 2.6 5.92 4.42 9.11l0.72 1.26 1.02-1.02c1.52-1.52 2.83-2.12 2.85-2.12 0.29-0.12 0.64-0.01 0.89 0.11l1.07 0.52 0.91-2.22 -0.32-0.49c-1.98-3.05-3.85-6.22-5.53-9.43L505.82 301.17z"/><path d="M541.41 310.66c0.63-0.5 1.2-1.02 1.72-1.55 0.98-1 1.88-2.1 2.6-3.17l1.28-1.9 -2.29 0.19c-0.29 0.02-0.56 0.07-0.82 0.11l-0.42 0.06c-2.29 0.3-4.36 0.85-6.27 1.71 -0.76 0.35-1.46 0.73-2.09 1.14 -0.53 0.34-1.01 0.69-1.45 1.05l0.7 0.86 -0.85-0.74c-0.11 0.09-0.22 0.17-0.4 0.32 -0.17 0.16-0.32 0.31-0.57 0.56l-0.38 0.66c-0.07 0.15-0.13 0.3-0.21 0.44l-1.16 2.04 2.31-0.4c0.62-0.11 1.26-0.19 2.12-0.27 0.95-0.07 1.98-0.08 3.04-0.04 0.21 0.01 0.43 0.03 0.65 0.05l0.89 0.08 0.32-0.22C540.58 311.32 541 310.99 541.41 310.66z"/><path d="M435.1 282.19l-0.93-1.14 -0.84 1.2c-0.92 1.32-1.93 2.69-2.99 4.09l-0.43 0.56 0.34 0.63c0.45 0.83 0.83 1.75 1.13 2.72l0.31 0.48 0.35 0.22c0.01 0.01 0.74 0.7 1.59 2.13l0.89 1.5 0.98-1.45c1.38-2.05 2.45-3.78 3.35-5.44l0.37-0.68 -0.51-0.58C437.46 285.04 436.26 283.62 435.1 282.19z"/><path d="M503.61 323.8l-1.05 0.82c-0.13 0.1-0.27 0.23-0.54 0.47 -0.64 0.55-1.27 1.22-1.88 1.99 -1.27 1.61-2.25 3.58-2.9 5.85l-0.03 0.6 0.24 0.7c0.43 1.25 0.66 2.5 0.67 3.72l0.03 2.24 1.76-1.39c0.33-0.26 0.66-0.52 1.02-0.77 0.47-0.31 0.95-0.62 1.47-0.9l0.46-0.48c0.71-1.06 1.3-2.21 1.75-3.44l0.13-0.34c0.22-0.58 0.43-1.17 0.54-1.77 0.17-1.06 0.16-2.15-0.03-3.22 -0.14-0.78-0.43-1.59-0.87-2.5L503.61 323.8z"/><path d="M419.9 311.64l0.32 0.22 0.89-0.08c0.22-0.02 0.44-0.04 0.64-0.05 1.06-0.05 2.09-0.03 3.23 0.06 0.67 0.06 1.32 0.14 1.94 0.25l2.31 0.4 -1.16-2.03c-0.09-0.15-0.16-0.31-0.24-0.48l-0.47-0.74c-0.15-0.15-0.29-0.29-0.54-0.51l-0.46-0.37c-0.44-0.36-0.93-0.71-1.46-1.06 -0.63-0.4-1.32-0.78-2.21-1.18 -1.78-0.81-3.85-1.36-6.14-1.66l-0.42-0.06c-0.27-0.04-0.53-0.09-0.83-0.11l-2.29-0.18 1.28 1.9c0.72 1.07 1.62 2.17 2.6 3.17 0.53 0.53 1.1 1.05 1.72 1.55C419.01 311 419.43 311.32 419.9 311.64z"/><path d="M405.63 330.17c-0.77 0.47-1.61 0.98-2.18 1.37l-1.1 0.98 2.03 1.56c1.9 1.47 3.61 2.8 5.86 2.8 0.95 0 1.99-0.24 3.18-0.79 1.7-0.8 6.71-4.15 12.92-9.73l0.97-0.86 -1.01-0.81c-1.59-1.28-2.55-2.24-2.55-2.24 -0.25-0.27-0.35-0.66-0.25-1.05l0.18-0.7 -0.58-0.44c-0.35-0.27-0.69-0.54-1-0.81l-0.73-0.64 -0.73 0.63c-4.76 4.11-9.48 7.52-14.46 10.42L405.63 330.17z"/><path d="M423.86 313.95l-0.41-0.02c-0.33-0.01-0.67-0.03-1.03-0.02l-2.09 0.07 1.24 1.69c0.18 0.24 0.39 0.5 0.64 0.79 0.41 0.48 0.88 0.96 1.44 1.45l0.35 0.28c0.87 0.7 1.87 1.33 2.98 1.85l0.27 0.13 0.3-0.02c1.51-0.13 3.02-0.12 4.6 0.02 0.48 0.04 0.94 0.09 1.4 0.16l2.5 0.34 -1.44-2.06c-0.14-0.21-0.29-0.43-0.43-0.65l-0.85-1.15c-0.18-0.12-0.37-0.23-0.81-0.48 -1.66-0.99-3.56-1.68-5.63-2.06C425.96 314.08 424.94 313.98 423.86 313.95z"/><path d="M388.79 320.3l-1.1 0.94 1.91 1.7c1.92 1.73 3.76 3.39 6.39 3.39 0.89 0 1.86-0.19 2.96-0.63 2.52-1.01 9.88-5.55 17.69-12.11l1-0.84 -0.99-0.85c-1.64-1.4-3.1-3.08-4.36-5l-0.67-1.02 -0.95 0.76c-5.98 4.81-12.31 8.87-18.79 12.07l-0.48 0.24 0.49 0.99 -0.55-0.96C390.4 319.43 389.43 319.91 388.79 320.3z"/><path d="M449.13 296.89l-0.55-0.55c-1.25-1.25-2.48-2.53-3.69-3.82l-0.99-1.06 -0.76 1.24c-1.3 2.14-2.92 4.57-4.8 7.21l-0.56 0.78 0.7 0.66c0.98 0.92 2.36 2.52 3.39 4.87l0.82 1.86 1.12-1.7c2.02-3.06 3.65-5.94 4.99-8.79L449.13 296.89z"/><path d="M446.96 317.13l-0.1-0.39c-0.27-1.03-0.57-1.96-0.9-2.75 -0.23-0.57-0.47-1.07-0.71-1.51 -0.18-0.33-0.35-0.63-0.64-1.04 -0.09-0.13-0.18-0.26-0.26-0.37l-1.17-1.48 -0.71 1.74c-0.18 0.44-0.31 0.85-0.43 1.28l-0.15 0.46c-0.56 1.77-0.82 3.47-0.78 5.04 0.02 1.1 0.19 2.16 0.5 3.13l0.08 0.29c0.03 0.15 0.07 0.31 0.13 0.46 0.11 0.28 0.25 0.52 0.5 0.97 0.49 0.93 1.06 1.75 1.71 2.44l2.51 2.69 -0.6-3.62c-0.03-0.15-0.06-0.31-0.1-0.46 -0.03-0.09-0.05-0.18-0.06-0.41l0.01-0.33 0-0.06c-0.1-1.84 0.27-3.66 1.11-5.4L446.96 317.13z"/><path d="M440.02 311.64c0.08-0.25 0.2-0.5 0.32-0.75l0.38-0.88 -0.06-0.33c-0.54-2.66-1.69-4.5-2.56-5.57 -0.23-0.28-0.47-0.55-0.68-0.77l-0.81-0.82 -0.78 0.85c-0.99 1.08-1.69 2.29-2.08 3.61 -0.24 0.8-0.35 1.5-0.36 2.25 -0.01 1.51 0.39 3.14 1.28 5.04 0.16 0.35 0.32 0.7 0.57 1.13 0.38 0.69 0.77 1.36 1.2 1.97 0.11 0.17 0.23 0.31 0.35 0.46l2.1 2.81 0.08-3.2 0-0.48c0-0.17-0.01-0.35 0.01-0.69C439.09 314.78 439.45 313.23 440.02 311.64z"/><path d="M533.04 347.19c1.23 0.7 2.33 0.98 3.35 0.98 2.08 0 3.82-1.2 5.73-2.53l2.18-1.57 -1.13-0.89c-0.56-0.44-1.4-1.01-2.2-1.55l-0.47-0.31c-4.35-2.92-8.47-6.26-12.59-10.21l-0.83-0.79 -0.76 0.86c-1.4 1.59-3.07 3.04-4.85 4.19l-1.14 0.74 0.96 0.96C526.8 342.62 531.66 346.4 533.04 347.19z"/><path d="M411.97 300.54c0.1 0.13 0.21 0.25 0.31 0.38 0.16 0.18 0.35 0.36 0.7 0.71l0.31 0.31 0.44 0.01c0.58 0.02 1.15 0.03 1.71 0.08 0.99 0.08 1.93 0.19 2.81 0.36 1.08 0.2 2.11 0.46 3.19 0.82 0.27 0.09 0.53 0.17 0.79 0.26l4.09 1.5 -2.88-3.26c-0.43-0.49-0.94-0.98-1.51-1.45 -0.4-0.34-0.84-0.67-1.32-0.99l-0.31-0.18c-0.65-0.4-1.41-0.78-2.26-1.12 -0.79-0.31-1.67-0.57-2.62-0.77 -1.42-0.3-2.69-0.44-4.01-0.44h-2.07l1.08 1.7C410.81 299.05 411.3 299.71 411.97 300.54z"/><path d="M524.91 282.19c-1.16 1.43-2.37 2.85-3.59 4.24l-0.51 0.58 0.37 0.68c0.91 1.67 1.97 3.4 3.35 5.44l0.98 1.45 0.89-1.5c0.81-1.36 1.52-2.06 1.52-2.07l0.6-0.36 0.12-0.39c0.3-0.98 0.68-1.89 1.12-2.72l0.34-0.62 -0.43-0.57c-1.06-1.39-2.07-2.76-2.99-4.08l-0.84-1.2L524.91 282.19z"/><path d="M531.1 306.65c0.07-0.17 0.14-0.35 0.19-0.56l0.05-0.35c0.19-0.98 0.26-2.03 0.19-3.21 -0.01-0.2-0.02-0.4-0.04-0.61 -0.14-1.43-0.5-2.91-1.07-4.41l-0.37-0.93c-0.14-0.37-0.28-0.73-0.47-1.11l-1.02-2.1 -1.25 2.76c-0.34 0.85-0.62 1.79-0.84 2.79l-0.15 0.72c-0.11 0.64-0.19 1.33-0.24 2.08l-0.03 0.44 0.28 0.34c0.47 0.57 0.87 1.17 1.21 1.76 0.51 0.92 0.86 1.96 1.08 3.15l0.78 3.62 1.41-3.61C530.89 307.24 530.97 307.05 531.1 306.65z"/><path d="M533.55 322.21l-3.63 0.05c-0.23 0-0.45 0.02-0.67 0.04l-0.33 0.02c-1.04 0.05-2.03 0.16-2.98 0.33l-0.73 0.12c-0.87 0.18-1.71 0.41-2.5 0.66 -0.42 0.13-0.81 0.28-1.2 0.44 -0.37 0.14-0.73 0.28-1.09 0.44l-5.25 2.58 5.21-0.15c0.24 0 0.48-0.01 0.73-0.01 1.08 0.02 2.08 0.11 3.05 0.26 0.18 0.02 0.36 0.07 0.55 0.11l0.75 0.16 0.34-0.16c0.55-0.26 1.07-0.54 1.8-0.94l0.52-0.3c0.65-0.38 1.26-0.77 1.82-1.14L533.55 322.21z"/><path d="M479.3 354.58c-0.17-1.53-0.16-3.05 0.02-4.49l0.02-0.16 -0.02-0.15c-0.39-2.39-1.29-4.52-2.67-6.35 -0.68-0.89-1.44-1.71-2.21-2.35l-1.12-0.93 -0.6 1.33c-0.2 0.46-0.36 0.91-0.5 1.36 -0.6 1.91-0.7 3.74-0.28 5.6 0.22 0.97 0.6 1.94 1.2 3.06l0.16 0.27 0.94-0.59 -0.74 0.93c0.19 0.34 0.39 0.67 0.6 0.98l0.44 0.37c0.49 0.26 0.94 0.53 1.37 0.83 0.57 0.39 1.1 0.8 1.56 1.22l2.16 1.98L479.3 354.58zM474.33 351.35L474.33 351.35 474.33 351.35 474.33 351.35z"/><path d="M406.25 291.41c0.85 1.15 1.84 2.16 2.96 3l0.32 0.24 0.4-0.02c2.31-0.14 4.4 0 6.22 0.4l2.07 0.25 -0.93-2.02c-0.14-0.3-0.27-0.59-0.47-1.14l-0.1-0.28 -0.32-0.48c-2.6-2.25-6.17-3.33-10.33-3.31l-1.87 0.02 0.92 1.63C405.43 290.24 405.82 290.82 406.25 291.41z"/><path d="M519.05 275.13l-0.58 0.74c-9.1 11.54-20.49 21.99-33.86 31.05l-0.56 0.38 0.09 0.67c0.19 1.49 0.41 3.1 0.7 4.89l0.55 2.91 1.55-2.62c0.06-0.1 0.15-0.25 0.19-0.29 2.6-1.74 5.19-3.57 7.71-5.46 0.27-0.19 0.62-0.27 0.94-0.18 0.13 0.03 0.25 0.1 0.4 0.22l2.94 2.14 -1.31-3.61c-0.16-0.45-0.02-0.95 0.35-1.25 2.52-2.02 4.97-4.09 7.26-6.16 0.26-0.23 0.61-0.31 0.95-0.27 0.17 0.04 0.34 0.14 0.54 0.33l3.88 3.61 -2.24-5.15c-0.19-0.43-0.09-0.91 0.23-1.23 2.3-2.25 4.56-4.61 6.71-7.01 0.24-0.27 0.57-0.39 0.94-0.36 0.16 0.01 0.32 0.07 0.48 0.17l3.02 1.88 -1.42-3.26c-0.19-0.42-0.12-0.87 0.15-1.18 1.94-2.15 3.95-4.55 5.99-7.12l1.05-1.33 -2.19-0.54c-1.32-0.41-2.51-0.9-3.63-1.52L519.05 275.13z"/><path d="M481.93 308.28l-1.47 1.47c-0.31 0.16-0.66 0.18-1.05-0.04l-1.42-0.82 -0.23 1.62c-0.98 6.77-2.9 16.51-6.53 24.46l-0.25 0.56 0.34 0.51c0.23 0.34 0.45 0.69 0.67 1.08l0.33 0.57 0.66-0.02c0.22 0 0.38 0.02 0.51 0.09 0.03 0.02 3.2 1.75 5.61 5.42l0.92 1.42 0.93-1.42c2.43-3.72 5.57-5.4 5.6-5.42 0.13-0.06 0.31-0.08 0.51-0.09l0.66 0.02 0.32-0.57c0.22-0.38 0.44-0.73 0.67-1.07l0.34-0.51 -0.25-0.56c-3.64-7.97-5.56-17.71-6.54-24.49L481.93 308.28z"/><path d="M507.21 326.51c0.04 0.13 0.05 0.26 0.07 0.39 0.02 0.15 0.04 0.31 0.09 0.57 0.06 0.33 0.13 0.67 0.16 0.98l0.23 3.81 1.86-2.72c0.18-0.26 0.35-0.52 0.53-0.81l0.27-0.51 0 0c0.34-0.58 0.67-1.16 0.92-1.79 0.4-1.02 0.64-1.98 0.74-3.09 0.18-2.11-0.39-4.14-1.65-6l-0.73-1.1 -0.94 0.82c-0.44 0.38-0.92 0.9-1.38 1.48 -0.53 0.67-1.01 1.43-1.41 2.26 -0.19 0.38-0.38 0.77-0.53 1.21l-0.19 0.52 0.3 0.46C506.36 324.27 506.91 325.43 507.21 326.51z"/><path d="M459.8 77.37c0.28-0.31 0.71-0.44 1.11-0.33 0.4 0.11 0.71 0.43 0.8 0.84l1.99 9.31 6.56-8.81c0.23-0.31 0.53-0.49 0.96-0.44 0.38 0.02 0.71 0.23 0.9 0.56l5.12 9.06 5.14-9.06c0.19-0.33 0.54-0.55 0.88-0.56 0.41 0.01 0.83 0.22 1.01 0.52l5.81 9.26 5.7-9.25c0.2-0.33 0.56-0.53 0.98-0.53 0.39 0.01 0.75 0.23 0.94 0.58l4.94 9.06 5.46-9.1c0.18-0.31 0.5-0.5 0.83-0.53 0.39-0.01 0.73 0.12 0.95 0.38l8.33 9.74 -1.34-4.82c-1.33-4.74-3.92-9-4.68-10.19l-5.38-9.27 -5.26 9.02c-0.13 0.22-0.38 0.52-0.98 0.55 -0.4-0.01-0.77-0.23-0.95-0.59l-4.36-8.28 -5.28 8.37c-0.2 0.32-0.67 0.51-0.97 0.51h0c-0.4-0.02-0.75-0.24-0.94-0.59l-4.74-9.02 -4.55 8.28c-0.21 0.38-0.65 0.64-1.08 0.57 -0.44-0.04-0.81-0.34-0.95-0.76l-2.92-8.98 -7.47 8.06c-0.31 0.33-0.79 0.45-1.22 0.28 -0.42-0.17-0.7-0.57-0.7-1.03v-8.56l-15.47 9.54h5.13c0.34 0 0.67 0.16 0.88 0.44 0.21 0.27 0.28 0.64 0.18 0.97 -0.28 0.98-2.84 9.76-7.3 14.73l-1.32 1.55 2.63 0.38L459.8 77.37z"/><path d="M466.06 58.65l0.01 0c0.35 0.19 0.56 0.56 0.56 0.96v7.72l6.83-7.37c0.27-0.29 0.67-0.41 1.05-0.33 0.38 0.08 0.69 0.37 0.81 0.74l2.71 8.35 4.31-7.85c0.19-0.35 0.69-0.54 0.98-0.57 0.41 0 0.78 0.23 0.97 0.59l4.81 9.14 5.28-8.36c0.21-0.33 0.69-0.5 0.98-0.52 0.4 0.02 0.76 0.24 0.94 0.59l4.32 8.21 5.22-8.94c0.4-0.67 1.52-0.68 1.91 0l5.04 8.7 0.79-2.29c3.05-8.88 2.86-13.5 2.73-14.71l-0.1-0.9 -0.9-0.08c-2.19-0.2-4.11 0.06-5.37 0.32 -0.38 0.08-0.77-0.06-1.03-0.38 -1.39-1.67-0.99-2.77-0.56-3.46l0.33-0.54 -0.3-0.56c-0.57-1.06-0.99-2.4-1.21-3.87l-0.23-1.53 0.02 0.01 0.07-1.86c0.1-2.43 0.64-4.73 1.57-6.65l0.6-1.26 -1.36-0.3c-6.67-1.48-19.46-2.72-30.07 5.53 -5.76 4.41-11.4 12.42-16.39 19.49l-5.31 7.47 8.9-5.49C465.28 58.47 465.72 58.46 466.06 58.65zM486.68 49.58c2.07-2.37 3.18-3.94 4.75-6.77 1.17-2.25 3.02-2.9 5.35-2.9 1.13 0 2.37 0.15 3.7 0.35 1.01 0.15 2.15 0.33 3.48 0.34 0.37-0.07 0.77-0.06 1.38 0.18l1.35 0.8 -1.29 0.95 -0.85 0.45 -0.08 0.66c-0.36 2.89-2.15 6.46-6.01 7.03 -1.94 0.24-3.69 0-5.38-0.23 -1.04-0.14-2.18-0.28-3.42-0.3l-0.52-0.01 -0.34 0.39c-0.25 0.29-0.39 0.44-0.5 0.56 -0.42 0.41-1.13 0.42-1.55 0.02C486.31 50.7 486.28 50.03 486.68 49.58z"/><path d="M511.93 96.91l-3.62 10.18c-0.14 0.4-0.49 0.67-0.96 0.73 -0.37 0.07-0.77-0.14-1.01-0.5l-6.17-9.46 -5.23 11.39c-0.18 0.39-0.56 0.64-1.01 0.64 -0.42 0-0.81-0.24-0.99-0.62l-4.94-10.02 -6.4 10.13c-0.2 0.32-0.54 0.51-1.01 0.51 0 0-0.01 0-0.02 0 -0.41-0.03-0.76-0.28-0.93-0.66l-4.35-10.01 -5.43 9.23c-0.21 0.36-0.7 0.57-1 0.54 -0.41-0.02-0.78-0.27-0.95-0.64l-4.15-9.1 -6.38 9.5c-0.24 0.35-0.69 0.54-1.11 0.47 -0.43-0.08-0.78-0.41-0.88-0.83l-2.34-9.85 -7.85 8.37L445 107.23c-0.42 1.03-1.56 3.78-3.15 7.18l-0.21 0.46 4.73 10.56 5.42-10.18c0.38-0.73 1.57-0.72 1.96 0.01l5.37 10.26 6.52-10.58c0.17-0.26 0.5-0.55 1.01-0.52 0.41 0.03 0.77 0.28 0.94 0.65l4.74 10.55 6.6-10.91c0.19-0.31 0.68-0.6 0.98-0.53 0.4 0.02 0.77 0.25 0.95 0.61l5.27 10.54 6.84-10.72c0.2-0.31 0.6-0.5 0.98-0.52 0.4 0.02 0.76 0.24 0.94 0.59l5.82 10.93 7.69-11.86c0.18-0.27 0.59-0.46 0.96-0.51 0.39 0.01 0.74 0.23 0.93 0.56l6.18 10.98 4.47-10.43 -0.16-0.42c-0.7-1.85-1.28-4.01-1.77-6.59L511.93 96.91z"/><path d="M496.77 48.57c0.46 0 0.92-0.03 1.38-0.08 2-0.29 3.51-1.99 4.04-4.55l0.24-1.16 -2.27-0.32c-3.47-0.52-5.64-0.73-6.78 1.42 -0.54 0.98-1.04 1.82-1.54 2.6l-0.93 1.46 2.49 0.33C494.53 48.42 495.64 48.57 496.77 48.57z"/><path d="M550.6 296.75h-2.01c-1.32 0-2.59 0.14-4.01 0.44 -0.95 0.2-1.83 0.46-2.63 0.77 -0.85 0.34-1.6 0.71-2.26 1.12l-0.3 0.17c-0.48 0.31-0.91 0.65-1.32 0.99 -0.56 0.48-1.07 0.96-1.51 1.45l-2.88 3.26 4.09-1.48c0.25-0.09 0.5-0.17 0.85-0.28 1.03-0.34 2.06-0.6 3.14-0.8 0.89-0.16 1.82-0.28 2.82-0.36 0.55-0.05 1.12-0.06 1.7-0.08l0.62-0.19 0.31-0.31c0.18-0.18 0.36-0.35 0.53-0.53l0.44-0.53c0.55-0.67 1.04-1.33 1.42-1.93L550.6 296.75z"/><path d="M305.08 111.57c0.87 0.36 1.81 0.54 2.81 0.54 2.67 0 5.76-1.29 9.04-3.83 1.25-1.37 31.09-33.54 66.25-34.36l0.95-0.02 0.12-0.94c0.27-2.09 0.52-4.25 0.75-6.32l0.36-3.11 -1.33 0.1c-27.88 2.02-48.6 18.58-58.68 26.65 -2 1.6-3.44 2.75-4.5 3.42 -0.93 0.61-1.89 1.29-2.86 1.99 -3.54 2.54-7.21 5.15-10.7 4.33 -1.4-0.32-2.61-1.12-3.7-2.45l-0.91-1.1 -0.84 1.16c-1.34 1.87-1.93 4.26-1.65 6.76C300.56 107.7 302.44 110.46 305.08 111.57z"/><path d="M394.37 68.47h0c19.7 3.83 23.27 19.71 24.98 27.33 1.7 7.65-3.5 16.72-5.81 20.27l-0.51 0.79 0.69 0.64c3.36 3.07 2.4 6.63 1.62 9.5 -0.48 1.77-0.89 3.3-0.25 4.34 0.55 0.89 1.94 1.57 4.14 2.03 2.9 0.61 5.78 2.37 8.55 5.25l1.25 1.3 0.59-1.7c2.19-6.31 1.55-12.29-1.93-17.76 -4.93-7.77-1.56-11.49 1.15-14.49 1.79-1.98 3.33-3.69 2.84-6.39 -0.24-1.43-6.35-34.95-40.94-36.08l-1.1-0.04 -0.04 1.1C389.48 67.53 391.22 67.86 394.37 68.47z"/><path d="M430.79 141.24l-0.26 0.58 0.37 0.52c1.08 1.51 2.11 3.18 3.14 5.08l0.82 1.51 11.39-15.09c0.21-0.28 0.53-0.44 0.88-0.44h65.64c0.34 0 0.67 0.17 0.88 0.44l11.47 15.15 0.82-1.51c1.03-1.89 2.1-3.62 3.17-5.13l0.37-0.52 -0.26-0.58c-1.85-4.12-3.51-10.51-0.9-17.56l0.38-1.01 -1.01-0.4c-1.68-0.66-3.12-1.83-4.41-3.59l-1.14-1.55 -4.52 10.57c-0.16 0.38-0.54 0.65-0.98 0.67 -0.28 0.02-0.69-0.02-1-0.56l-6.39-11.33 -7.71 11.9c-0.2 0.31-0.59 0.51-0.96 0.51 0 0-0.01 0-0.02 0 -0.39-0.02-0.75-0.24-0.93-0.59l-5.81-10.92 -6.86 10.77c-0.21 0.34-0.59 0.53-1 0.52 -0.39-0.02-0.75-0.25-0.93-0.61l-5.24-10.49 -6.65 11c-0.2 0.33-0.55 0.53-1 0.53 0 0-0.01 0-0.01 0 -0.41-0.03-0.77-0.28-0.94-0.65l-4.75-10.58 -6.45 10.46c-0.21 0.34-0.61 0.54-0.98 0.53 -0.4-0.01-0.76-0.24-0.94-0.59l-5.3-10.12 -5.49 10.33c-0.2 0.38-0.66 0.55-1.01 0.59 -0.43-0.02-0.8-0.27-0.97-0.65l-4.89-10.9 -1.06 2.02c-2.17 4.16-4.21 7.45-6.07 9.78l-0.26 0.33 0.02 0.42C433.24 134.69 431.93 138.7 430.79 141.24z"/><path d="M575.76 72.95l0.13 0.94 0.95 0.02c35.19 0.83 65 32.99 66.39 34.49 3.17 2.45 6.23 3.71 8.88 3.71 1.01 0 1.95-0.18 2.83-0.55 2.63-1.1 4.51-3.86 4.89-7.2 0.29-2.49-0.3-4.89-1.65-6.76l-0.84-1.16 -0.91 1.11c-1.09 1.33-2.3 2.13-3.7 2.45 -3.48 0.82-7.15-1.79-10.72-4.35 -0.95-0.68-1.9-1.37-2.87-2 -1.03-0.65-2.47-1.8-4.6-3.5 -9.95-7.96-30.65-24.53-58.55-26.54l-1.32-0.09 0.36 3.11C575.24 68.7 575.49 70.86 575.76 72.95z"/><path d="M656.61 195.1l1.23-0.59 -0.83-1.08c-3.37-4.39-3.71-10.83-4.14-19 -0.4-7.47-0.89-16.76-3.82-27.66l-0.05-0.15c-0.88-2.05-9.08-20.5-25.27-37.28 -15.81-16.24-37.47-20.72-43.73-21.71l-1.52-0.24 0.25 1.51c0.32 1.91 0.62 4.06 0.89 6.32l0.09 0.76 0.73 0.19c4.6 1.18 20.63 5.83 33.69 16.2 8.99 7.2 22.56 23.88 24.62 36.5 2.08 12.55 3.4 32.82 3.44 39.85 0.67 4.03 2.22 6.61 4.6 7.66 0.92 0.4 1.91 0.56 2.92 0.56C652.3 196.92 654.97 195.88 656.61 195.1z"/><path d="M641.72 110.05l-0.12-0.12c-0.29-0.33-29.98-32.47-64.04-33.76l-1.37-0.05 0.24 1.35c0.29 1.64 0.55 2.85 0.82 3.77 0.03 0.14 0.3 1.29 0.66 3.1l0.16 0.79 0.8 0.1c4.64 0.57 28.7 4.35 46.46 22.58 16.55 17.15 24.81 35.82 25.79 38.07 3.3 4.89 6.84 7.47 10.08 7.47 1.03 0 2.04-0.26 2.99-0.8 2.54-1.41 4.21-4.68 3.88-7.59l-0.1-0.9 -0.9-0.08c-4.22-0.36-6.95-5.69-10.44-12.46C653.19 124.83 648.92 116.51 641.72 110.05z"/><path d="M509.53 44.16l0.4 1.52 1.3-0.89c2.36-1.61 5.97-1.76 9.16-1.89l0.01 0c3.51-0.14 6.06-0.33 6.99-1.48 0.38-0.46 0.49-1.15 0.33-2.11 -1.1-6.51-10.51-6.93-13.21-6.86l-0.44 0.01 -0.32 0.31c-0.31 0.31-0.77 0.41-1.4 0.17l-0.86-0.32L511 33.41C509.28 36.3 508.66 40.82 509.53 44.16z"/><path d="M580.15 108.23l2.25 0.73c5.19 1.65 15.99 5.1 26.26 13.35 6.69 5.36 18.16 18.17 19.76 43.84 0.32 5.45 0.44 10.61 0.57 15.6 0.4 16.26 0.79 31.61 7.55 50.74l0.14 0.27c1.56 2.22 4.13 3.37 7.44 3.37 1.23 0 2.57-0.16 3.99-0.48l1.49-0.34 -0.79-1.31c-7.86-12.96-8.76-42.46-8.82-45.02l-0.01-0.36c-0.02-6.71-1.34-26.94-3.39-39.38 -1.96-11.91-15.33-28.32-23.82-35.12 -11.48-9.1-25.71-13.77-31.3-15.35l-1.51-0.43 0.11 1.57c0.19 2.72 0.23 5.25 0.13 7.51L580.15 108.23z"/><path d="M518.11 45.24c-3.37 0.24-5.81 0.78-6.77 2.68l-0.88 1.73 1.94-0.13c1.15-0.07 2.44-0.06 3.81 0.11l0.71 0.09 0.38-0.61c0.43-0.71 0.98-1.36 1.62-1.93l2.45-2.16L518.11 45.24z"/><path d="M295.82 152.54c0.95 0.53 1.95 0.79 2.98 0.79 3.25 0 6.81-2.61 10.2-7.65 0.89-2.08 9.15-20.75 25.69-37.88 17.77-18.24 41.83-22.01 46.46-22.58l0.79-0.1 0.16-0.78c0.36-1.83 0.63-2.99 0.66-3.1 0.27-0.93 0.53-2.13 0.82-3.78l0.24-1.35 -1.36 0.05c-33.56 1.27-62.52 32.11-64 33.72l-0.13 0.13c-7.22 6.47-11.5 14.8-14.95 21.53 -3.46 6.74-6.2 12.07-10.42 12.43l-0.9 0.08 -0.1 0.9C291.61 147.86 293.28 151.13 295.82 152.54z"/><path d="M532.32 120.45c-3.48 5.48-4.12 11.46-1.93 17.77l0.59 1.7 1.25-1.29c2.82-2.92 5.61-4.63 8.56-5.25 2.2-0.46 3.59-1.14 4.13-2.03 0.64-1.04 0.23-2.57-0.25-4.34 -0.77-2.86-1.73-6.43 1.62-9.5l0.69-0.63 -0.51-0.79c-2.31-3.54-7.51-12.61-5.81-20.26 1.71-7.63 5.28-23.51 24.97-27.34 3.16-0.61 4.9-0.94 4.78-3.92l-0.04-1.1 -1.1 0.04c-34.56 1.12-40.69 34.63-40.94 36.04 -0.5 2.73 1.05 4.44 2.84 6.42C533.88 108.95 537.25 112.68 532.32 120.45z"/><path d="M452.87 95.51h0c0.28-0.3 0.69-0.41 1.09-0.31 0.4 0.11 0.7 0.42 0.79 0.82l2.23 9.39 6.07-9.04c0.21-0.31 0.66-0.46 1.01-0.48 0.4 0.03 0.75 0.28 0.92 0.64l4.09 8.96 5.45-9.27c0.22-0.37 0.61-0.59 1.01-0.54 0.42 0.03 0.78 0.28 0.95 0.66l4.39 10.09 6.34-10.04c0.2-0.32 0.7-0.5 0.99-0.51 0.4 0.02 0.76 0.26 0.93 0.62l4.78 9.72 5.1-11.09c0.17-0.37 0.53-0.61 0.95-0.65 0.32-0.01 0.77 0.16 0.98 0.5l6.04 9.27 3.6-10.11c0.14-0.39 0.48-0.67 0.91-0.72 0.39-0.06 0.81 0.13 1.04 0.47l5.59 8.14 -0.24-3.97c-0.15-2.5-0.2-4.8-0.22-6.79l0-0.68 -0.42-0.21 -8.07-9.43 -5.66 9.44c-0.19 0.33-0.82 0.54-0.96 0.54 -0.4-0.01-0.76-0.23-0.95-0.58l-4.96-9.09 -5.63 9.14c-0.19 0.31-0.54 0.49-0.94 0.53 -0.37 0-0.74-0.2-0.94-0.52l-5.77-9.19 -5.19 9.15c-0.38 0.69-1.53 0.69-1.92 0l-5.24-9.28 -7 9.4c-0.26 0.35-0.7 0.51-1.12 0.42 -0.42-0.09-0.76-0.42-0.85-0.85l-2.05-9.58 -9.38 10.42 -0.18 0.27c-0.6 1.27-3.81 7.84-7.9 12.12l-1.34 1.42 2.53 0.56L452.87 95.51z"/><path d="M424.42 247.2l-0.81-1.92 -2.66 1.2 -0.28 0.18c-1.09 0.95-2 2.19-2.72 3.65l-0.75 1.53 1.71 0.06c0.18 0 0.37 0.01 0.55 0.01 1.46 0 2.84-0.2 4.14-0.6 0.36-0.11 0.66-0.23 0.96-0.35l-0.2-1.11 0.4 1.03 1.09-0.42 -0.48-1.06C425.03 248.67 424.73 247.94 424.42 247.2z"/><path d="M523.14 269.5c-0.52 0.75-1.07 1.49-1.61 2.23l-1.19 1.63 1.18 0.58c0.89 0.44 1.73 0.77 2.64 1.05 1.54 0.47 3.05 0.59 4.18 0.59 0.18 0 0.35 0 0.5-0.01l1.71-0.06 -0.76-1.54c-0.72-1.48-1.65-2.7-2.73-3.66l-3.4-1.58L523.14 269.5z"/><path d="M384.98 117.47l0.2 0.18c0.13 0.09 0.22 0.18 0.29 0.28l0.07 0.21c0.05 0.15 0.07 0.3 0.06 0.48l0 0.27 0 0c-0.76 5.04-2.08 18.41 0.53 23.01 0.91 1.52 1.85 3.43 2.77 5.29 2.96 5.98 5.66 10.97 8.79 11.32 0.43 0.05 0.79 0.33 0.93 0.74 0.31 0.91 0.59 1.99 0.9 3.2 1.37 5.4 3.44 13.56 14 18.31l1.38 0.62 0.37-3.22c0.13-1.19 0.25-2.38 0.44-3.58 0.03-0.18 0.1-0.35 0.21-0.5l17.46-23.14 -0.31-0.61c-4.35-8.73-9.15-13.7-14.27-14.77h0c-2.9-0.6-4.67-1.57-5.56-3.03 -1.14-1.85-0.56-4 0-6.07 0.82-3.02 1.59-5.86-2.35-8.32 -0.26-0.16-0.44-0.43-0.5-0.74 -0.06-0.3 0.02-0.61 0.21-0.88 0.88-1.18 8.49-11.83 6.62-20.19 -2.57-11.47-7.17-22.52-23.25-25.64 -2.47-0.48-4.17-1.16-5.18-2.08l-1.59-1.44 -0.24 2.14c-0.54 4.71-1.16 9.5-2.05 12.6C383.02 88.15 379.47 113.23 384.98 117.47z"/><path d="M413.52 244.48l1.71 0.06c0.19 0 0.37 0.01 0.56 0.01 1.46 0 2.85-0.2 4.13-0.59 0.61-0.19 1.11-0.4 1.61-0.6l-0.36-1.05 0.43 1.02 0.99-0.41 -0.38-1c-0.23-0.61-0.43-1.23-0.63-1.86 -0.15-0.45-0.29-0.9-0.45-1.35l-0.4-1.14 -3.44 1.55 -0.27 0.17c-1.08 0.95-2 2.18-2.73 3.65L413.52 244.48z"/><path d="M427.6 253.98l-0.48-0.94 -2.48 1.11 -0.27 0.18c-1.09 0.95-2 2.18-2.73 3.66l-0.76 1.54 1.71 0.06c0.16 0 0.33 0.01 0.51 0.01 1.13 0 2.64-0.12 4.17-0.59 0.42-0.13 0.77-0.27 1.11-0.41l-0.21-1.1 0 0 0 0v0l0.41 1.03 1.15-0.46 -0.59-1.09C428.61 255.97 428.1 254.98 427.6 253.98z"/><path d="M528.1 261.78c-0.58 0.98-1.19 1.94-1.79 2.9l-0.69 1.09 1.18 0.51c0.58 0.25 1.2 0.51 1.94 0.73 1.53 0.48 3.05 0.6 4.18 0.6 0.18 0 0.35 0 0.51-0.01l1.71-0.06 -0.75-1.54c-0.73-1.48-1.65-2.71-2.73-3.66l-3.05-1.42L528.1 261.78z"/><path d="M561.07 325.7c1.1 0.44 2.07 0.63 2.96 0.63 2.62 0 4.46-1.66 6.38-3.38l2.14-1.86 -1.33-0.79c-0.65-0.38-1.62-0.86-2.59-1.34l-0.48-0.24c-6.48-3.19-12.81-7.25-18.8-12.06l-0.94-0.76 -0.67 1.02c-1.26 1.92-2.73 3.6-4.36 5l-0.99 0.85 1 0.84C551.19 320.15 558.55 324.7 561.07 325.7z"/><path d="M553.76 291.41l0.01 0c0.43-0.58 0.82-1.17 1.12-1.7l0.92-1.63 -1.87-0.02c-0.11 0-0.22 0-0.32 0 -4.11 0-7.48 1.11-10.01 3.31l-0.21 0.18 -0.28 0.81c-0.12 0.3-0.25 0.59-0.38 0.87l-1.03 2.28 2.15-0.47c1.82-0.4 3.9-0.54 6.22-0.4l0.41 0.02 0.32-0.24C551.91 293.57 552.9 292.57 553.76 291.41z"/><path d="M345.58 169c-0.53 6.17-1.01 12.02-1.46 17.65 -2.45 30.53-4.38 54.64-13.82 80.03 -6.73 18.1-21.75 56.03-27.9 71.5l-0.64 1.62 1.74-0.11c3.56-0.22 10.34-2.49 16.18-14.94h0.4v-0.86c1.57-3.45 20.81-46.05 27.46-73.07 7.36-30.07 8.39-60.46 8.83-73.44l-1.1-0.09 1.11 0.04 0.17-4.7c0.58-17.68 1-30.46 25.11-39.86l0.7-0.27 0-0.75c0.01-3.75 0.32-7.32 0.59-9.65l0.2-1.81 -1.7 0.65C373.32 124.07 348.57 133.62 345.58 169z"/><path d="M380.39 95.22c0.26-2.27 0.56-4.41 0.88-6.32l0.25-1.51 -1.51 0.24c-6.26 0.99-27.91 5.47-43.74 21.72 -16.6 17.2-24.92 36.46-25.31 37.42 -2.94 10.92-3.43 20.2-3.82 27.67 -0.43 8.16-0.77 14.61-4.14 19l-0.83 1.09 1.24 0.59c1.63 0.78 4.31 1.82 6.9 1.82 1.01 0 2.01-0.16 2.92-0.56 2.38-1.04 3.92-3.61 4.6-7.81 0.03-6.84 1.35-27.11 3.43-39.69 2.07-12.61 15.63-29.29 24.61-36.49 13.08-10.37 29.11-15.02 33.71-16.2l0.74-0.19L380.39 95.22z"/><path d="M299.38 339.8c3.5-8.8 21.35-53.73 28.85-73.89 9.33-25.11 11.16-47.9 13.69-79.46v0c0.45-5.61 0.92-11.47 1.46-17.64 3.11-36.86 28.4-46.54 37.92-50.19l1.18-0.45 -0.61-1.11c-0.71-1.31-1.24-3.05-1.61-5.3l-0.45-1.19 -1.52 0.49c-5.07 1.61-15.61 4.97-25.55 12.96 -6.41 5.13-17.39 17.44-18.94 42.27 -0.31 5.43-0.44 10.55-0.57 15.5 -0.41 16.49-0.8 32.06-7.75 51.72 -0.36 2.06-9.31 51.36-46.2 120.64l-0.88 1.65 1.87-0.02C284.42 355.72 292.41 353.61 299.38 339.8z"/><path d="M380.06 98.32l-1.51 0.43c-5.59 1.58-19.82 6.24-31.31 15.36 -8.49 6.8-21.85 23.21-23.81 35.12 -2.05 12.43-3.37 32.6-3.4 39.34l0 0.01 0.01 0.38c-0.07 2.64-0.98 32.1-8.82 45.04l-0.79 1.31 1.49 0.35c1.42 0.32 2.77 0.49 4 0.49 3.3 0 5.87-1.15 7.43-3.37l0.14-0.27c6.76-19.12 7.14-34.48 7.55-50.74 0.12-4.99 0.25-10.14 0.57-15.58 1.6-25.67 13.07-38.49 19.77-43.85 10.26-8.24 21.06-11.69 26.27-13.35l2.23-0.72 -0.04-0.83c-0.1-2.26-0.06-4.79 0.13-7.51L380.06 98.32z"/><path d="M386.91 148.14l-1.35-2.68 -0.86 0.22c-4.98 1.26-13.29 7.07-12.93 31.81 0.77 49.71-17.88 110.3-18.07 110.9l-0.51 1.65 1.71-0.22c3.73-0.48 10.6-3.44 14.7-17.8 4.05-15.6 14.82-57.04 14.1-93.87 -0.31-17.43 2.91-20.8 6.1-21.81l1.35-0.42 -0.74-1.21C389.2 152.73 388.11 150.57 386.91 148.14z"/><path d="M397.37 162.96l-0.14-0.54c-0.11-0.44-0.22-0.87-0.33-1.27l-0.15-0.55 -0.54-0.19c-0.98-0.34-1.94-0.99-2.95-2l-0.38-0.38 -0.99 0.14c-3.05 0.29-6.28 2.1-5.96 19.93 0.46 23.37-3.56 52.24-11.96 85.81l-1.07 4.28 15.26-16.86 0.24-0.42c11.75-39.19 11.81-76.67 11.8-79.13l0.05-0.47 -0.13-0.27C398.67 168.08 397.95 165.25 397.37 162.96z"/><path d="M404.18 176.98l-1.82-1.93 -0.09 2.65c-0.38 11.3-2.24 40.93-11.22 71.85l-0.42 1.44 1.51-0.03c1.54-0.03 2.98-0.41 4.38-1.15 4.45-2.36 8.02-8.22 10.33-16.92 3.7-13.96 5.28-22.94 7.32-48.59l0.06-0.8 -0.74-0.31C409.74 181.64 406.6 179.55 404.18 176.98z"/><path d="M382.58 136.31l-0.14-1.49 -1.38 0.57c-21.35 8.78-21.73 20.13-22.29 37.3l-0.17 4.71c-0.44 13.04-1.47 43.57-8.9 73.94 -5.85 23.76-21.39 59.53-26.01 69.92l-0.96 2.16 2.27-0.65c6.29-1.79 17.99-8.37 25.7-32.3l0.08-0.23c2.9-7.31 19.49-67.82 18.79-112.73 -0.37-25.27 8.44-31.98 13.72-33.72l1.17-0.39 -0.51-1.12C383.27 140.8 382.81 138.79 382.58 136.31z"/><path d="M394.96 270.17l0.92 1.66c0.77 1.4 2.09 3.43 4 5.25l0.34 0.32 0.47-0.02c2.47-0.12 4.72 0.16 6.7 0.78l0.31 0.1c0.29 0.09 0.58 0.18 0.86 0.29l3.37 1.38 -2.03-3.02c-0.62-0.93-1.41-1.83-2.33-2.69 -0.43-0.4-0.9-0.78-1.42-1.15 -0.44-0.31-0.88-0.62-1.37-0.9 -2.31-1.29-4.97-1.96-7.92-1.99L394.96 270.17z"/><path d="M543.77 269.88l-0.95-1.09 -0.8 1.21c-0.41 0.63-1.03 1.67-1.58 3.05 -0.23 0.58-0.44 1.21-0.62 1.88l-0.16 0.63 0.86 0.82c0.26 0.24 0.52 0.47 0.74 0.73 1.03 1.19 1.81 2.53 2.38 4.11l1.23 3.2 0.93-3.1c0.15-0.49 0.28-1 0.43-1.71 0.04-0.17 0.09-0.34 0.11-0.52 0.16-1.08 0.2-2.07 0.11-3.03 -0.17-1.85-0.87-3.59-2.26-5.53C544.1 270.33 543.98 270.1 543.77 269.88z"/><path d="M550.96 264.91c-0.44-1.76-1.14-3.19-2.16-4.38l-0.95-1.1 -0.81 1.21c-0.85 1.28-1.95 3.42-2.38 6.41l-0.08 0.53 0.37 0.39c1.43 1.51 2.46 3.16 3.04 4.89l0.73 2.16 1.29-1.45 0.44-0.61c0.79-2.31 1.1-4.49 0.91-6.45 -0.04-0.46-0.16-0.85-0.27-1.19L550.96 264.91z"/><path d="M539.8 294.87l1.34-3.6c0.15-0.39 0.28-0.77 0.41-1.19 0.18-0.58 0.32-1.19 0.43-1.8 0.27-1.37 0.34-2.52 0.24-3.63 -0.19-2.07-0.97-3.95-2.4-5.74l-0.61-0.77 -0.83 0.52c-0.12 0.07-0.23 0.12-0.36 0.14l-0.5 0.1 -0.24 0.44c-0.77 1.37-1.31 2.9-1.65 4.76l-0.15 0.94 0.59 0.61c0.08 0.07 0.16 0.15 0.23 0.23 1.22 1.44 2.09 3.05 2.56 4.79l0.16-0.04c0 0.01 0 0.01 0 0.02l0.32 0.12 -0.42 0.17 0.75-0.04 0.15 0.06 -0.85 0.31L539.8 294.87z"/><path d="M532.82 276.74c-0.08 0.21-0.29 0.58-0.74 0.69 -0.08 0.02-1.59 0.35-3.67 0.35l-2.08 0 1.17 1.72c0.97 1.43 2.02 2.91 3.16 4.45l0.75 1.01 0.91-0.87c0.16-0.16 0.29-0.27 0.3-0.29l0.9-0.33 0.13-0.56c0.36-1.63 0.96-3.2 1.78-4.68l0.43-0.76 -2.43-2.22L532.82 276.74z"/><path d="M532.39 253.97c-0.5 1-1.01 1.99-1.54 2.98l-0.42 1.15 1.15 0.46c0.36 0.15 0.73 0.29 1.17 0.43 1.54 0.47 3.05 0.59 4.18 0.59 0.18 0 0.35 0 0.51-0.01l1.71-0.06 -0.76-1.54c-0.73-1.48-1.65-2.7-2.73-3.66l-2.78-1.29L532.39 253.97z"/><path d="M559.37 281.13l0.75-1.65h-1.89c-0.35 0-0.67 0.03-0.99 0.06l-0.38 0.04c-2.35 0.17-4.4 0.76-6.22 1.81 -0.43 0.25-0.86 0.5-1.24 0.8 -0.54 0.42-1.04 0.9-1.59 1.52h0c-0.33 0.38-0.64 0.76-0.91 1.15l-1.74 2.5 2.94-0.8c1.96-0.54 4.14-0.79 6.5-0.66l0.38 0.01 0.31-0.23c0.62-0.45 1.2-0.95 1.81-1.57C558.02 283.17 558.81 282.14 559.37 281.13z"/><path d="M539.33 246.66l-2.96-1.38 -0.81 1.93c-0.31 0.73-0.61 1.46-0.94 2.18l-0.28 1.13 1.07 0.43c0.32 0.13 0.62 0.25 1 0.37 1.29 0.39 2.68 0.59 4.13 0.59 0.19 0 0.37 0 0.55-0.01l1.71-0.06 -0.75-1.53C541.33 248.84 540.42 247.61 539.33 246.66z"/><path d="M533.82 301.46l1.42-1.54c0.12-0.13 0.26-0.26 0.58-0.59l0.4-0.79c0.34-0.94 0.57-1.94 0.71-2.95 0.04-0.27 0.05-0.54 0.06-0.81l0.04-0.65c0.03-0.33 0.06-0.65 0.03-0.98 -0.03-0.48-0.12-0.92-0.22-1.36 -0.26-1.26-0.77-2.44-1.5-3.52 -0.31-0.45-0.65-0.89-1.05-1.32l-0.89-0.96 -0.8 1.04c-0.23 0.29-0.46 0.64-0.68 1.01 -0.21 0.34-0.4 0.73-0.59 1.13 -0.19 0.41-0.36 0.86-0.52 1.34 -0.15 0.45-0.27 0.95-0.39 1.47l-0.09 0.41 0.21 0.37c1.42 2.49 2.34 4.67 2.8 6.65L533.82 301.46z"/><path d="M652.91 358.67c0.17-1.61 0.3-2.88-0.03-4.27l-0.15-0.6 -0.58-0.19c-2.42-0.8-4.78-0.65-6.81 0.45 -3.4 1.84-5.99 6.45-7.47 13.35l-0.14 0.65 0.5 0.43c1.77 1.5 7.72 4.37 12.7 6.55l1.68 0.74 -0.14-1.83c-0.35-4.58-0.25-8.5 0.36-14.45L652.91 358.67z"/><path d="M639.81 338.4l-0.36-0.38c-4.48-4.69-8.03-6.97-10.83-6.97 -0.12 0-0.24 0-0.35 0.01 -2.05 0.13-3.26 1.53-4.45 3.12l-0.58 0.73 0.62 0.7c2.75 3.09 6.07 7.7 7.31 11.05 2.34 5.83 0.63 13.15-5.09 21.77 -2.55 3.83-4.84 6.6-6.75 8.9 -3.4 4.1-5.27 6.36-5.28 10.65l0.07 0.4c0.22 0.57 0.77 1.62 1.97 2.2 0.6 0.29 1.28 0.44 2.05 0.44 1.07 0 2.31-0.28 3.69-0.85 9.89-3.98 13.67-21.98 13.71-22.16v-0.42c1.62-8 4.56-13.2 8.73-15.46 1.41-0.76 2.95-1.17 4.58-1.21l2.29-0.06 -1.46-1.76C647.68 346.71 644.55 343.4 639.81 338.4z"/><path d="M620.85 357.56c0.31 0.15 0.61 0.23 0.91 0.23 0.43 0 0.85-0.16 1.29-0.49 0.92-0.69 1.29-2.59 0.92-4.62 -0.44-2.4-1.41-3.83-3.24-4.82 -0.5-0.27-1.03-0.4-1.5-0.53 -0.25-0.06-0.5-0.13-0.74-0.22l-1.65-0.62 0.16 1.76c0.14 1.53 0.28 3.04 0.28 3.96C617.54 354.72 618.77 356.57 620.85 357.56z"/><path d="M553.4 270.8l1.89-1.39c2.88-2.12 6.34-5.13 6.43-7.45 0.04-0.79-0.38-1.48-1.29-2.09 -1.51-0.98-2.98-0.65-3.59-0.28 -1.8 1.1-2.91 3.8-3.41 5.31l-0.09 0.26 0.04 0.27c0.03 0.16 0.06 0.32 0.1 0.48 0.03 0.13 0.06 0.27 0.08 0.41 0.06 0.67 0.02 1.34-0.02 2L553.4 270.8z"/><path d="M550.12 276.91l-2.03 3.02 3.37-1.38c0.29-0.12 0.59-0.21 0.9-0.31l0.27-0.08c1.99-0.63 4.24-0.9 6.71-0.78l0.47 0.02 0.34-0.32c1.91-1.82 3.23-3.85 4-5.25l0.92-1.66 -1.89 0.02c-2.94 0.03-5.6 0.69-7.92 1.99 -0.5 0.28-0.94 0.59-1.37 0.9 -0.51 0.37-0.98 0.74-1.41 1.14C551.52 275.08 550.74 275.99 550.12 276.91z"/><path d="M377.9 321.33c41.28 43.28 85.62 47.95 102.77 47.95 17.02 0 61.05-4.6 102.17-47.24l0.79-0.82 -30.48-27.91 0.04 2.57c0 0.09 0.01 0.28-0.03 0.38 -0.66 1.82-1.86 3.85-3.31 5.57l-0.36 0.43 0.13 0.55c0.03 0.14 0.03 0.27 0 0.44l-0.13 0.66 0.52 0.42c6.19 5.06 12.44 9.13 19.11 12.41l0.5 0.25c3.11 1.53 4.62 2.34 4.81 3.84 0.13 1.01-0.41 1.94-1.8 3.12l-0.73 0.64c-1.96 1.77-4.41 3.97-7.84 3.97 -1.19 0-2.47-0.27-3.8-0.8 -2.65-1.05-9.91-5.48-17.79-12.04l-1.2-0.53 -1.2 1.93 0.74 0.64c4.64 4 9.27 7.33 14.13 10.16l0.6 0.36c2.75 1.66 4.07 2.52 4.15 3.98 0.06 0.98-0.51 1.87-1.88 2.93l-0.82 0.63c-1.87 1.46-4.2 3.27-7.23 3.27 -1.3 0-2.68-0.34-4.1-1 -1.93-0.91-7.5-4.62-14.19-10.72l-0.62-0.57 -2.62 1.57 1.05 1.01c3.95 3.79 8.14 7.2 12.48 10.11l0.47 0.32c2.7 1.83 4 2.78 4.01 4.27 0.01 1.42-1.42 2.41-2.03 2.84l-0.83 0.56c-1.97 1.36-4.2 2.91-6.99 2.91 -1.45 0-2.9-0.41-4.41-1.26 -1.53-0.87-5.73-4.06-11.02-9.3l-0.99-0.67 -1.62 1.83 0.65 0.74c1.67 1.9 3.42 3.83 5.3 5.79 0.68 0.73 1.31 1.32 1.85 1.82 1.37 1.28 2.15 2.06 2.02 3.19 -0.1 0.86-0.74 1.58-2.14 2.39 -2.42 1.46-6.1 3.19-9.83 3.19 -2.02 0-3.84-0.52-5.41-1.55 -0.44-0.28-1.47-1.1-3.41-3.39l-0.62-0.73 -0.81 0.51c-0.94 0.59-1.84 1.08-2.74 1.5l-1.09 0.51 0.6 1.05c0.69 1.2 1.51 3.01 0.64 4.69 -0.84 1.62-2.97 2.52-6.5 2.76 -5.97 0.31-27.65 0.31-33.6 0.01 -3.55-0.25-5.68-1.15-6.52-2.77 -0.66-1.28-0.46-2.77 0.64-4.69l0.6-1.04 -1.09-0.51c-0.91-0.42-1.8-0.91-2.74-1.5l-0.81-0.51 -0.62 0.73c-1.94 2.29-2.97 3.11-3.42 3.4 -1.57 1.02-3.39 1.54-5.41 1.54 -3.73 0-7.4-1.73-9.84-3.19 -1.39-0.81-2.02-1.52-2.12-2.38 -0.13-1.13 0.65-1.91 2.03-3.2 0.53-0.49 1.16-1.08 1.83-1.8 1.88-1.97 3.64-3.9 5.31-5.8l0.65-0.74 -1.77-1.99 -0.84 0.83c-5.3 5.24-9.5 8.43-11.02 9.3 -1.52 0.85-2.97 1.27-4.42 1.27 -2.79 0-5.02-1.54-7.02-2.92l-0.8-0.55c-0.61-0.43-2.04-1.42-2.03-2.84 0.01-1.49 1.31-2.44 4.01-4.27l0.47-0.32c4.32-2.9 8.52-6.31 12.48-10.11l1.04-1.01 -2.63-1.56 -0.62 0.56c-6.69 6.1-12.25 9.81-14.18 10.72 -1.42 0.67-2.8 1-4.1 1 -3.03 0-5.36-1.81-7.24-3.27l-0.81-0.62c-1.38-1.07-1.94-1.95-1.88-2.94 0.08-1.45 1.4-2.32 4.16-3.98l0.57-0.35c4.89-2.85 9.52-6.18 14.15-10.17l0.69-0.71 -1.37-2.14 -0.98 0.81c-7.88 6.56-15.15 10.98-17.79 12.04 -1.33 0.53-2.61 0.8-3.8 0.8 -3.43 0-5.87-2.2-7.85-3.98l-0.73-0.65c-1.38-1.17-1.91-2.1-1.79-3.11 0.19-1.5 1.69-2.31 4.82-3.85l0.48-0.23c6.66-3.28 12.91-7.34 19.11-12.42l0.52-0.42 -0.13-0.65c-0.04-0.17-0.04-0.31 0-0.44l0.13-0.54 -0.36-0.43c-1.44-1.72-2.65-3.75-3.3-5.56 -0.03-0.09-0.04-0.22-0.04-0.41l-0.14-0.61 -1.25-1.3 -28.28 26.58L377.9 321.33z"/><path d="M610.31 251.34c-7.43-30.37-8.46-60.9-8.89-73.94l-0.17-4.7c-0.56-17.17-0.94-28.52-22.29-37.3l-1.38-0.57 -0.14 1.49c-0.23 2.49-0.69 4.5-1.36 5.97l-0.51 1.12 1.18 0.39c5.28 1.75 14.07 8.45 13.71 33.72 -0.69 45.16 16.07 106.08 18.87 112.93l0.01 0.04c7.76 24.15 19.45 30.65 25.73 32.38l2.25 0.62 -0.95-2.13C631.73 310.94 616.17 275.14 610.31 251.34z"/><path d="M574.44 145.46l-1.34 2.68c-1.2 2.43-2.29 4.6-3.51 6.56l-0.74 1.21 1.35 0.43c3.19 1.01 6.41 4.38 6.1 21.8 -0.71 36.22 9.66 76.76 13.84 92.89l-0.04 0.03 0.29 0.94c4.09 14.38 10.97 17.33 14.71 17.82l1.71 0.22 -0.51-1.65c-0.19-0.6-18.83-61.2-18.07-110.9 0.35-24.73-7.95-30.54-12.93-31.8L574.44 145.46z"/><path d="M542.81 96.29c-1.94 8.71 6.55 20.09 6.64 20.2 0.19 0.25 0.26 0.56 0.2 0.87 -0.06 0.31-0.23 0.57-0.5 0.74 -3.93 2.45-3.2 5.17-2.35 8.33 0.56 2.07 1.13 4.22 0 6.07 -0.9 1.46-2.66 2.43-5.56 3.03 -5.14 1.07-9.95 6.06-14.31 14.82l-0.31 0.61 17.48 23.08c0.11 0.15 0.19 0.33 0.22 0.5 0.19 1.22 0.31 2.43 0.44 3.64l0.36 3.16 1.38-0.62c10.56-4.74 12.63-12.91 13.99-18.32l-1.07-0.27 1.1 0.17c0.3-1.16 0.56-2.2 0.87-3.08 0.14-0.4 0.5-0.69 0.92-0.74 3.14-0.35 5.85-5.33 8.81-11.33 0.92-1.85 1.87-3.77 2.79-5.33 2.6-4.56 1.27-17.91 0.5-22.96l0.02-0.08 -0.02-0.2c-0.02-0.16 0.01-0.3 0.06-0.44l0.08-0.23c0.07-0.09 0.16-0.18 0.3-0.28l0.2-0.18c5.48-4.3 1.94-29.31 0.09-35.58 -0.89-3.1-1.52-7.9-2.06-12.62l-0.24-2.13 -1.59 1.43c-1.02 0.92-2.72 1.6-5.19 2.08C549.98 73.77 545.39 84.82 542.81 96.29z"/><path d="M557.64 175.06l-1.82 1.93c-2.42 2.57-5.56 4.66-9.32 6.21l-0.74 0.31 0.07 0.8c2.04 25.66 3.62 34.64 7.32 48.59 2.31 8.71 5.89 14.56 10.33 16.93 1.4 0.74 2.87 1.12 4.39 1.15l1.5 0.03 -0.42-1.44c-8.98-30.92-10.84-60.54-11.22-71.85L557.64 175.06z"/><path d="M568.03 159.27l-0.35-1.17 -0.54-0.07 -0.38 0.38c-1.01 1-1.98 1.65-2.96 2l-0.55 0.19 -0.16 0.56c-0.15 0.56-0.31 1.16-0.47 1.8 -0.54 2.15-1.29 5.11-2.72 8.08l-0.11 0.32 0.03 0.3c0 0.38-0.29 38.92 11.81 79.26l15.49 17.28 -1.07-4.28c-8.39-33.56-12.41-62.43-11.96-85.82v0c0.32-17.82-2.91-19.63-5.97-19.92L568.03 159.27z"/><path d="M680.72 354.15c-36.88-69.29-45.83-118.58-46.23-120.82 -6.9-19.46-7.3-35.04-7.71-51.54 -0.12-4.95-0.25-10.08-0.57-15.52 -1.55-24.81-12.53-37.12-18.94-42.24 -9.95-8-20.49-11.35-25.57-12.97l-1.75-0.57 -0.21 1.27c-0.37 2.25-0.89 3.98-1.61 5.3l-0.6 1.11 1.18 0.45c9.52 3.65 34.81 13.34 37.92 50.2 0.54 6.15 1.01 12 1.46 17.6 2.53 31.56 4.36 54.37 13.7 79.49 8.23 22.09 28.72 73.54 28.96 74.15 6.86 13.56 14.85 15.67 19 15.72l1.86 0.03L680.72 354.15z"/><path d="M629.7 266.68c-9.44-25.4-11.37-49.53-13.82-80.06l0-0.02c-0.45-5.6-0.92-11.44-1.45-17.59 -2.98-35.39-27.74-44.93-35.87-48.07l-1.7-0.65 0.21 1.81c0.27 2.35 0.58 5.92 0.58 9.65v0.75l0.7 0.27c24.11 9.4 24.53 22.18 25.11 39.86l0.17 4.75c0.44 12.98 1.47 43.38 8.82 73.44 6.56 26.61 24.91 67.44 27.46 73.07l0.01 0.87h0.4c5.83 12.45 12.62 14.71 16.18 14.93l1.74 0.11 -0.64-1.62C652.84 326.2 636.78 285.69 629.7 266.68z"/><path d="M613.38 365.15h0.01c0.13 0.03 0.35 0.09 0.65 0.09 0.6 0 1.52-0.22 2.62-1.27l0.19-0.25c0.97-1.66 1.23-4.21-0.97-6.41 -1.73-1.72-5.35-3.74-6.07-4.13l-1.59-0.88 -0.04 1.82c-0.04 1.91 0.12 4.62 0.44 5.63C609.3 361.92 611.42 364.67 613.38 365.15z"/><path d="M475.55 197.61l-2.38 7.28 6.18-4.51c0.39-0.28 0.93-0.28 1.31 0l6.19 4.51 -2.38-7.28c-0.15-0.46 0.02-0.96 0.41-1.24l6.19-4.48 -7.65 0.02c-0.48 0-0.9-0.31-1.05-0.77l-2.35-7.28 -2.35 7.28c-0.15 0.46-0.57 0.76-1.05 0.76l-7.65-0.01 6.19 4.48C475.53 196.65 475.7 197.15 475.55 197.61z"/><path d="M512.21 135.6l-64.53 0 -29.68 39.33 -0.21 0.5c-8.1 53.87 13.76 100.62 61.55 131.63l0.6 0.39 0.6-0.39c47.86-31 69.75-77.74 61.66-131.63L512.21 135.6zM480.54 295.65c-0.36 0.23-0.84 0.23-1.19 0 -42.56-27.18-62.01-68.44-54.77-116.17 0.03-0.18 0.1-0.36 0.21-0.5l26.17-34.53c0.21-0.27 0.54-0.44 0.88-0.44h56.2c0.34 0 0.67 0.16 0.88 0.44l26.28 34.53c0.11 0.14 0.18 0.32 0.21 0.5C542.66 227.23 523.17 268.49 480.54 295.65z"/><path d="M491.06 235.04l-7.66 0.02c-0.48 0-0.9-0.31-1.05-0.77l-2.35-7.27 -2.35 7.28c-0.15 0.46-0.57 0.76-1.05 0.76l-7.65-0.02 6.2 4.49c0.39 0.28 0.56 0.79 0.41 1.24l-2.38 7.28 6.17-4.51c0.39-0.29 0.94-0.28 1.31 0l6.19 4.52 -2.38-7.28c-0.15-0.45 0.02-0.95 0.41-1.24L491.06 235.04z"/><path d="M426.9 179.87l-0.21 0.51c-5.17 35.05 4.42 66.8 27.72 91.82l1.92 2.06V146.22h-3.93L426.9 179.87z"/><path d="M533.27 180.09l-25.77-33.87h-3.83v127.97l1.91-2.05c23.3-25.01 32.89-56.74 27.73-91.76L533.27 180.09z"/><path d="M428.71 306.09c0.05 0.21 0.12 0.39 0.27 0.76 0.08 0.24 0.16 0.46 0.29 0.77l1.43 3.6 0.69-3.8c0.22-1.19 0.57-2.21 1.08-3.14 0.33-0.59 0.73-1.19 1.21-1.77l0.28-0.34 -0.03-0.44c-0.06-0.74-0.13-1.44-0.24-2.08l-0.15-0.7c-0.22-1.02-0.5-1.96-0.91-2.97 -0.06-0.16-0.13-0.33-0.2-0.48l-0.98-2.11 -1.02 2.09c-0.19 0.39-0.34 0.77-0.49 1.15l-0.36 0.9c-0.56 1.48-0.92 2.97-1.06 4.41l-0.04 0.6c-0.06 1.2 0 2.25 0.2 3.28l0.82-0.05c-0.01 0.03-0.02 0.06-0.02 0.08L428.71 306.09z"/><path d="M542.99 239.3l-3.72-1.73 -0.4 1.14c-0.15 0.44-0.29 0.88-0.44 1.32 -0.21 0.63-0.41 1.26-0.65 1.89l-0.23 1.07 0.99 0.41c0.47 0.2 0.95 0.4 1.54 0.57 1.28 0.39 2.66 0.59 4.13 0.59 0.19 0 0.37 0 0.56-0.01l1.71-0.06 -0.76-1.53C545 241.48 544.08 240.24 542.99 239.3z"/><path d="M436.84 269.51l-0.52-0.76 -3.09 1.4 -0.27 0.17c-1.09 0.95-2 2.18-2.73 3.66l-0.76 1.54 1.72 0.06c0.16 0 0.32 0.01 0.5 0.01 1.13 0 2.64-0.12 4.18-0.59 0.89-0.28 1.72-0.6 2.6-1.04l1.19-0.58 -1.14-1.54C437.95 271.06 437.38 270.29 436.84 269.51z"/><path d="M444.33 339.08l0.02 0.06 -0.41 0.87c0.5 0.47 1.06 0.96 1.69 1.46 1.93 1.54 4.02 2.69 6.21 3.43l0.33 0.11 0.33-0.1c1.23-0.35 2.44-0.6 3.6-0.71h0c0.7-0.08 1.38-0.09 2.23-0.1h0.29c0.43 0.02 0.86 0.04 1.28 0.09l2.98 0.32 -2.06-2.18c-0.28-0.29-0.6-0.6-0.93-0.9 -0.54-0.5-1.15-0.99-1.83-1.47 -0.87-0.6-1.65-1.04-2.44-1.41 -0.22-0.1-0.46-0.18-0.7-0.26l-0.32-0.11c-1.97-0.73-4.13-1.09-6.38-0.99 -1.09 0.04-2.23 0.18-3.63 0.44 -0.19 0.03-0.38 0.05-0.58 0.1l-1.83 0.66 1.53 1.39L444.33 339.08z"/><path d="M454.59 321.98c-0.16-0.44-0.34-0.82-0.53-1.2 -0.41-0.84-0.89-1.6-1.41-2.26 -0.47-0.6-0.95-1.1-1.38-1.48l-1.02-1.02 -0.64 1.27c-1.29 1.9-1.86 3.92-1.68 6.2 0.1 0.95 0.34 1.93 0.74 2.93 0.25 0.63 0.59 1.22 1.04 2.02l0.16 0.29c0.17 0.28 0.34 0.54 0.53 0.81l1.88 2.49 0.15-3.23 0.05-0.34c0.03-0.35 0.1-0.69 0.18-1.12 0.03-0.15 0.05-0.29 0.07-0.44 0.02-0.13 0.03-0.26 0.06-0.39 0.3-1.09 0.85-2.24 1.69-3.54l0.3-0.47L454.59 321.98z"/><path d="M435.41 350.93l-1.46 1.36 1.27 0.75c2.06 1.23 5.38 2.82 8.6 2.82 1.47 0 2.92-0.33 4.23-1.19 0.64-0.41 1.57-1.32 2.76-2.72l0.71-0.83 -0.82-0.72c-0.92-0.81-1.74-1.64-2.37-2.38 -0.22-0.26-0.3-0.61-0.24-0.88l0.54-1.18 -0.89-0.48c-1.37-0.74-2.58-1.53-3.6-2.34l-0.82-0.65 -0.69 0.79c-1.65 1.89-3.4 3.8-5.27 5.75C436.64 349.78 435.97 350.4 435.41 350.93z"/><path d="M453.77 350.04c0.57 0.44 1.22 0.86 1.9 1.28 0.7 0.43 1.47 0.83 2.27 1.2 0.61 0.28 1.23 0.53 1.9 0.76l0.78-0.04 0.37-0.14c0.97-0.35 1.9-0.62 2.79-0.82 1-0.23 2.01-0.36 3.22-0.42l3.76-0.09 -2.53-1.92c-0.58-0.44-1.23-0.88-1.96-1.3 -0.35-0.2-0.7-0.38-1.07-0.57 -0.65-0.32-1.35-0.6-2.21-0.89 -0.76-0.24-1.56-0.43-2.39-0.56 -0.7-0.11-1.42-0.19-2.19-0.21 -0.93 0-1.96 0.06-3.02 0.22 -0.82 0.13-1.65 0.28-2.53 0.54l-1.95 0.59 1.56 1.31c0.2 0.16 0.42 0.34 0.65 0.52l0.67 0.53v0.01C453.77 350.04 453.77 350.04 453.77 350.04z"/><path d="M607.15 364.21c-1.88-1.44-4.41-1.96-6.26-2.35l-1.36-0.28 0.03 1.39c0.09 3.89 1.63 6.89 4.21 8.23 0.85 0.44 1.76 0.65 2.65 0.65 1.06 0 2.1-0.3 2.98-0.9l0.03-0.02c0.36-0.26 0.49-0.56 0.45-0.56 0.47-0.66 0.62-1.45 0.44-2.28C609.93 366.25 608.07 364.74 607.15 364.21z"/><path d="M441.5 275.89l-0.57-0.73 -0.82 0.45c-1.12 0.61-2.3 1.1-3.8 1.54l-2 0.5 1.06 1.33c2.05 2.58 4.06 4.98 5.99 7.12 0.27 0.31 0.34 0.77 0.16 1.18l-1.42 3.26 3.02-1.88c0.16-0.1 0.32-0.15 0.49-0.17 0.39-0.07 0.7 0.1 0.93 0.36 2.15 2.4 4.4 4.75 6.7 7.01 0.33 0.32 0.42 0.81 0.23 1.23l0.5 0.36 -0.63-0.09 -2.64 5.52 4.41-4.25c0.19-0.19 0.37-0.29 0.53-0.32 0.35-0.07 0.7 0.03 0.96 0.26 2.3 2.08 4.75 4.15 7.27 6.17 0.37 0.3 0.51 0.8 0.26 1.47l-1.3 3.61 3.02-2.36c0.14-0.12 0.28-0.19 0.39-0.22 0.32-0.08 0.67-0.02 0.95 0.19 2.52 1.89 5.11 3.72 7.71 5.46 0.04 0.03 0.13 0.18 0.25 0.39l1.55 2.57 0.48-2.97c0.29-1.76 0.51-3.35 0.7-4.82l0.09-0.68 -0.56-0.38C462 297.91 450.6 287.45 441.5 275.89z"/><path d="M440.46 333.97c0.67 0.41 1.38 0.79 2.15 1.14 0.19 0.08 0.39 0.15 0.58 0.22l0.6 0.22 0.32-0.07c0.69-0.15 1.38-0.3 2.07-0.39 0.96-0.12 1.88-0.19 3-0.16l0.3 0.02 2.15-0.34 -1.57-1.87c-0.19-0.23-0.39-0.48-0.58-0.72l-0.53-0.42c-0.25-0.15-0.5-0.3-0.93-0.53 -0.62-0.33-1.3-0.64-2.26-1.02 -0.34-0.13-0.68-0.27-1.07-0.39 -0.25-0.07-0.53-0.13-0.8-0.19l-0.33-0.07c-1.31-0.31-2.7-0.46-4.3-0.46 -0.67 0.01-1.37 0.01-2.1 0.09l-2.32 0.27 1.68 1.62c0.94 0.91 2.05 1.8 3.4 2.69C440.08 333.73 440.27 333.85 440.46 333.97z"/><path d="M418.98 341.66c-0.74 0.51-1.58 1.08-2.13 1.52l-1.02 1.05 2.07 1.41c1.91 1.32 3.65 2.52 5.74 2.52 1.01 0 2.11-0.28 3.35-0.98 1.37-0.78 6.22-4.56 11.74-10.12l0.96-0.96 -1.14-0.74c-1.77-1.15-3.45-2.6-4.85-4.19l-0.76-0.86 -0.83 0.8c-4.12 3.94-8.23 7.28-12.59 10.21L418.98 341.66z"/><path d="M455.24 302.09l-1.06-0.92 -0.65 1.24c-1.69 3.21-3.55 6.38-5.53 9.43l-0.32 0.49 0.89 2.22 1.08-0.52c0.36-0.17 0.67-0.22 0.9-0.11 0.01 0.01 1.32 0.6 2.84 2.12l1.02 1.03 0.72-1.26c1.81-3.19 3.25-6.16 4.42-9.1l0.3-0.75 -0.63-0.51C457.87 304.34 456.54 303.23 455.24 302.09z"/><path d="M431.88 261.79l-0.5-0.85 -2.75 1.24 -0.27 0.17c-1.08 0.95-2 2.18-2.73 3.66l-0.75 1.54 1.71 0.06c0.16 0 0.33 0.01 0.5 0.01 1.13 0 2.65-0.12 4.17-0.6 0.73-0.23 1.35-0.47 1.92-0.73l1.18-0.51 -0.69-1.09C433.06 263.74 432.46 262.77 431.88 261.79z"/><path d="M431.9 325.84l0.74 0.43c0.51 0.28 1.02 0.55 1.57 0.81l0.34 0.16 0.76-0.16c0.19-0.04 0.37-0.08 0.53-0.11 0.98-0.15 1.99-0.24 3.07-0.26 0.26 0 0.48 0.01 0.89 0.02l5.17 0.14 -5.38-2.57c-0.35-0.15-0.71-0.3-1.08-0.44 -0.39-0.15-0.78-0.31-1.21-0.44 -0.79-0.25-1.62-0.48-2.51-0.66l-0.72-0.12c-0.95-0.16-1.94-0.28-2.97-0.33l-0.34-0.02c-0.22-0.02-0.44-0.03-0.67-0.04l-3.6-0.05 3.59 2.48C430.64 325.08 431.25 325.46 431.9 325.84z"/><path d="M455.26 332.85l0.13 0.35c0.46 1.23 1.05 2.39 1.85 3.59l0.36 0.32c0.52 0.29 1 0.6 1.46 0.91 0.36 0.25 0.7 0.51 1.03 0.77l1.76 1.39 0.03-2.24c0.02-1.23 0.25-2.48 0.67-3.72l0.31-0.94 -0.1-0.36c-0.65-2.26-1.63-4.23-2.9-5.85 -0.6-0.77-1.24-1.44-1.88-1.99l-0.62 0.73 -0.02-0.01 0.51-0.83c-0.14-0.12-0.28-0.25-0.41-0.35l-1.03-0.8 -0.62 1.15c-0.09 0.17-0.13 0.32-0.15 0.39 -0.46 0.94-0.74 1.75-0.89 2.52 -0.19 1.07-0.2 2.15-0.03 3.23C454.84 331.73 455.05 332.3 455.26 332.85z"/><path d="M467.74 335.04l-0.25-0.27c-0.29-0.29-0.57-0.53-1-0.9l-1.15-0.86 -0.54 1.33c-0.09 0.21-0.12 0.4-0.16 0.63 -0.43 1.28-0.58 2.66-0.45 4.09l0.02 0.39c0.01 0.31 0.02 0.66 0.11 1.06 0.13 0.52 0.34 1.01 0.55 1.5l0.28 0.67c0.18 0.44 0.36 0.87 0.6 1.27 0.13 0.23 0.28 0.45 0.43 0.67l0.23 0.35c0.36 0.54 0.71 1.08 1.12 1.58l1.9 2.32 0.06-3c0.04-1.69 0.39-3.35 1.15-5.12l0.35-0.73 -0.23-0.47c-0.43-0.9-0.88-1.7-1.33-2.37C468.96 336.45 468.44 335.79 467.74 335.04z"/><path d="M470.31 313.81c-1.44-0.99-2.88-1.99-4.28-3.01l-1.07-0.78 -0.57 1.2c-1.56 3.26-3.46 6.74-5.67 10.37l-0.51 0.83 0.77 0.61c1.25 0.99 3.05 2.77 4.5 5.57l1.02 1.99 0.96-2.02c2.21-4.67 3.99-9.21 5.29-13.53l0.23-0.78L470.31 313.81z"/><path d="M463.24 358.27c1.81 1.27 4.46 2.53 7.8 2.53 1.33 0 2.77-0.2 4.31-0.67l0.33-0.09c0.27-0.07 0.53-0.15 0.81-0.25l1.47-0.57 -1.03-1.19c-0.81-0.93-2.22-2.22-4.47-3.14 -3.07-1.23-6.61-1.15-10.53 0.22l-1.76 0.62 1.39 1.25C462.05 357.39 462.62 357.84 463.24 358.27z"/><path d="M339.59 390.15c1.15 0.41 2.15 0.58 3.02 0.58 2.6 0 3.99-1.51 4.55-2.31l0.21-0.31 -0.02-0.37c-0.18-3.99-2.2-6.43-5.28-10.15 -1.84-2.21-4.13-4.97-6.67-8.76 -5.67-8.54-7.41-15.92-5.21-21.87 1.24-3.01 4.46-8.07 7.33-11.54l0.56-0.67 -0.52-0.7c-1.09-1.45-2.32-2.88-4.35-3 -2.86-0.24-6.6 2.15-11.2 6.97 -5.33 5.59-8.55 8.96-10.55 11.4l-1.48 1.81h2.34c1.73 0 3.36 0.41 4.85 1.21 4.19 2.27 7.14 7.5 8.76 15.6C326.31 369.94 330.06 386.64 339.59 390.15z"/><path d="M349.53 386.14l1.28-1c3.82-2.98 8.63-6.99 10.68-9.29l0.8-0.9 -1.36-1.03c-0.53-0.41-1.03-0.8-1.56-1.23l-0.64-0.52 -0.68 0.46c-3.28 2.23-6.35 2.48-8.41 0.76 -0.86-0.76-1.31-2.02-1.26-3.56 0.01-0.19 0.05-0.39 0.08-0.6l0.32-2.05 -1.65 0.46c-0.43 0.12-0.81 0.19-1.42 0.21 -1.4 0-2.64-0.59-3.71-1.77 -1.03-1.11-1.54-2.74-1.41-4.49l0.08-1.08 -1.08-0.1c-1.22-0.11-2.37-0.88-3.46-2.3 -1.01-1.4-1.81-4.04-0.77-6.92l0.55-1.52 -1.61 0.04c-1.11 0.03-1.91 0.86-2.57 1.64l-0.26 0.3 -0.01 0.39c-0.08 4.45 1.86 9.69 5.77 15.58 2.48 3.69 4.74 6.4 6.55 8.58 2.73 3.3 4.45 5.51 5.3 8.37L349.53 386.14z"/><path d="M308.85 375.79l1.68-0.74c4.86-2.13 10.73-4.95 12.6-6.47l0.53-0.43 -0.15-0.67c-1.5-6.74-4.07-11.27-7.41-13.08 -2.61-1.42-5.19-1.01-6.9-0.42l-0.62 0.22 -0.11 0.65c-0.2 1.2-0.08 2.37 0.07 3.71l0.1 0.96c0.6 5.95 0.7 9.86 0.35 14.44L308.85 375.79z"/><path d="M344.55 345.22l-1.48 1.02c-0.8 0.55-1.83 1.26-3.17 2.36 -3.79 3.17-3.04 6.63-1.96 8.24 0.9 1.17 1.57 1.41 1.97 1.41h0.07l0.06-0.01c0.77-0.09 2.03-0.79 4.06-5.8l0.2-0.49c0.58-1.42 0.74-3.08 0.49-4.95L344.55 345.22z"/><path d="M344.81 357.68c-2.83 2.93-2.23 5.79-1.16 6.93 0.64 0.69 1.33 1.03 2.13 1.03 0 0 0.01 0 0.01 0 1.76 0 4.31-1.5 5.33-3.81 0.63-1.79 1.06-4.63 1.18-5.46l0.01-1.48 -1.5 0.27C348.96 355.49 346.65 355.9 344.81 357.68z"/><path d="M610.54 385.06l1.32 1.03 0.43-1.61c0.84-3.13 2.82-5.52 5.35-8.56 1.82-2.2 4.09-4.94 6.6-8.71 3.92-5.91 5.84-11.12 5.72-15.5l-0.01-0.38 -0.25-0.29c-0.78-0.93-1.7-1.9-3.15-1.58l-1.17 0.26 0.46 1.46c0.12 0.37 0.24 0.74 0.31 1.1 0.55 2.97-0.13 5.58-1.77 6.81 -1.04 0.77-2.17 1.03-3.32 0.83l-1.3-0.24v1.33c0 0.36 0 0.73-0.04 1.04 -0.22 1.64-0.98 3.01-1.32 3.35 -1.37 1.37-2.82 2.06-4.32 2.06 -0.12 0-0.22-0.03-0.33-0.05l-1.84-0.28 0.29 1.52c0.1 0.55 0.14 0.98 0.1 1.38 -0.1 1.15-0.64 2.07-1.61 2.74 -2.36 1.63-5.1 1.59-7.91-0.08l-0.67-0.4 -3.1 2.52 0.74 0.86C601.63 377.85 606.56 381.95 610.54 385.06z"/><path d="M405.42 285.88c2.35-0.1 4.54 0.13 6.5 0.66l2.94 0.81 -1.74-2.5c-0.27-0.39-0.58-0.77-0.91-1.15 -0.54-0.61-1.04-1.09-1.59-1.51 -0.39-0.31-0.83-0.56-1.34-0.86 -1.72-1-3.78-1.58-6.12-1.75l-0.39-0.04c-0.32-0.03-0.67-0.08-1.25-0.05l-1.74 0.12 0.85 1.52c0.56 1.01 1.35 2.03 2.28 2.97 0.63 0.63 1.2 1.12 1.82 1.57l0.31 0.23L405.42 285.88z"/><path d="M360.86 362.17l-0.09-1.48 -1.8 0.65c-1.27 0.43-3.02 1.01-5.18 2.75 -2.96 2.29-3.77 6.09-2.84 7.44l0.25 0.26c0.47 0.35 1.05 0.53 1.71 0.53 1.14 0 2.52-0.52 4-1.55 0.74-0.5 1.58-1.21 2.09-1.77l-0.69-0.86 0.9 0.67C360.73 367.17 360.96 363.87 360.86 362.17z"/><path d="M412.96 260.64l-0.81-1.21 -0.95 1.11c-1.02 1.18-1.73 2.62-2.17 4.38l-0.12 0.41c-0.1 0.34-0.22 0.73-0.27 1.18 -0.19 1.97 0.12 4.14 0.91 6.46l0.34 0.51 0.92-0.63 -0.81 0.75 1.32 1.43 0.67-2.13c0.59-1.75 1.62-3.4 3.05-4.91l0.37-0.39 -0.08-0.53C414.92 264.07 413.81 261.92 412.96 260.64z"/><path d="M416.22 269.88c-0.17 0.2-0.3 0.41-0.56 0.85 -1.26 1.72-1.95 3.45-2.12 5.31 -0.09 0.95-0.05 1.94 0.11 3.02 0.02 0.18 0.07 0.35 0.11 0.51l0.87 0c-0.01 0.02-0.02 0.04-0.02 0.06l-0.79 0.16c0.1 0.51 0.23 1.02 0.38 1.51l1.03 3.03 1.14-3.13c0.57-1.57 1.35-2.91 2.38-4.11 0.22-0.25 0.48-0.49 0.74-0.72l0.86-0.82 -0.17-0.63c-0.18-0.67-0.38-1.3-0.62-1.88 -0.55-1.36-1.16-2.4-1.58-3.04l-0.8-1.22L416.22 269.88z"/><path d="M422.27 278.53l-0.8-1.2 -0.95 1.08c-1.6 1.82-2.52 3.91-2.73 6.24 -0.1 1.08-0.02 2.23 0.24 3.62 0.11 0.62 0.26 1.23 0.43 1.81 0.12 0.41 0.26 0.8 0.49 1.4l1.42 3.04 0.72-3.47 -0.69-0.25 0.22-0.13 0.54 0c0.48-1.75 1.34-3.36 2.56-4.79l0.81-0.85 -0.07-0.51c-0.02-0.16-0.05-0.31-0.12-0.63 -0.3-1.67-0.86-3.27-1.73-4.78C422.49 278.9 422.38 278.7 422.27 278.53z"/><path d="M423.93 298.94l0.4 0.53c0.15 0.15 0.3 0.29 0.44 0.44l1.41 1.56 0.48-2.05c0.47-1.99 1.38-4.17 2.8-6.65l0.21-0.36 -0.08-0.41c-0.11-0.53-0.23-1.03-0.39-1.49 -0.16-0.47-0.33-0.93-0.52-1.34 -0.19-0.4-0.38-0.79-0.58-1.12 -0.23-0.38-0.46-0.72-0.69-1.01l-0.8-1.05 -0.89 0.97c-0.4 0.43-0.74 0.88-1.05 1.33 -0.73 1.07-1.23 2.25-1.5 3.51 -0.1 0.45-0.18 0.9-0.22 1.37 -0.02 0.32 0.01 0.64 0.04 0.96l0.04 0.66c0.01 0.27 0.02 0.54 0.06 0.8 0.14 1.04 0.38 2.03 0.72 2.97l0.85-0.18c-0.01 0.04-0.02 0.09-0.03 0.13L423.93 298.94z"/><path d="M423.68 276.78l0.48 0.77c1.06 1.7 1.79 3.45 2.21 5.37l0.12 0.56 0.87 0.32c0.08 0.07 0.19 0.17 0.33 0.31l0.9 0.86 0.75-1c1.14-1.54 2.19-3.02 3.16-4.45l1.16-1.72 -2.08 0c-2.12 0-3.66-0.35-3.67-0.35 -0.54-0.13-0.89-0.63-0.82-1.2l0.33-2.98L423.68 276.78z"/><path d="M406.63 265.43l0.05-0.27 -0.09-0.26c-0.5-1.51-1.62-4.2-3.41-5.31 -0.62-0.37-2.08-0.72-3.61 0.28 -0.9 0.6-1.31 1.29-1.27 2.07 0.1 2.34 3.55 5.35 6.43 7.47l1.88 1.21 -0.13-2.34c-0.04-0.66-0.07-1.31-0.01-1.97 0.01-0.14 0.05-0.28 0.08-0.42C406.57 265.74 406.6 265.59 406.63 265.43z"/><path d="M515.43 388.35c0.22-0.06 0.41-0.17 0.58-0.32 0.18-0.16 0.5-0.44 0.84-0.83 -0.11-0.39-0.2-0.78-0.3-1.16 -0.04 0.03-0.07 0.05-0.1 0.08 -0.11 0.08-0.2 0.16-0.28 0.22 -0.58 0.5-0.93 0.83-1.18 1.12 -0.21 0.24-0.42 0.48-0.54 0.66 -0.05 0.08-0.17 0.27-0.21 0.37 0.04 0.01 0.13 0.03 0.26 0.02C514.85 388.51 515.14 388.43 515.43 388.35z"/><path d="M365.1 342.29c0.05-0.33 0.09-0.67 0.15-0.99 -0.17-0.06-0.32-0.12-0.44-0.15 -0.5-0.15-0.82-0.22-1.12-0.23 -0.16-0.01-0.33 0.01-0.52 0.05 -0.15 0.03-0.16 0.06-0.17 0.09 0 0 0 0.12 0.22 0.43 0.22 0.3 0.44 0.54 0.71 0.82 0.12 0.12 0.29 0.23 0.42 0.26 0.22 0.06 0.45 0.1 0.69 0.12C365.06 342.55 365.08 342.42 365.1 342.29z"/><path d="M440.31 388.63c0.14 0.05 0.41 0.05 0.57 0.02 0.24-0.05 0.53-0.15 0.86-0.28 -0.01-0.13-0.02-0.26-0.02-0.39 -0.02-0.28-0.04-0.57-0.04-0.86 -0.21 0.03-0.39 0.06-0.52 0.08 -0.6 0.12-0.97 0.24-1.29 0.36 -0.29 0.1-0.46 0.21-0.61 0.31 -0.15 0.11-0.2 0.19-0.2 0.21 0.01 0 0.07 0.09 0.29 0.19C439.66 388.43 440.01 388.55 440.31 388.63z"/><path d="M395.48 371.66c0.01 0.01 0.02 0.01 0.03 0.02 -0.03-1.22-0.34-2.03-0.94-2.41 -0.13-0.08-0.22-0.12-0.3-0.13 -0.06-0.01-0.12 0.01-0.18 0.04 -0.12 0.06-0.2 0.19-0.24 0.38 -0.05 0.25 0.05 0.56 0.32 0.94 0.28 0.4 0.7 0.77 1.21 1.1C395.41 371.62 395.44 371.64 395.48 371.66z"/><path d="M562.3 368.24c-0.05-0.21-0.18-0.43-0.38-0.66 -0.08-0.09-0.19-0.19-0.25-0.18 -0.01 0-0.01 0.01-0.02 0.01 -0.1 0.06-0.3 0.3-0.53 1.17 -0.15 0.6-0.31 1.41-0.48 2.42 0.57-0.65 1.06-1.25 1.3-1.65C562.25 368.86 562.37 368.49 562.3 368.24z"/><path d="M553.45 374.5c-0.08-0.03-0.16-0.04-0.24-0.03 -0.11 0.01-0.22 0.05-0.34 0.11 -0.25 0.13-0.41 0.32-0.52 0.59 -0.11 0.3-0.14 0.54-0.08 0.76 0.06 0.25 0.15 0.37 0.48 0.4 0.33 0.01 0.76-0.1 1.33-0.4 0.01 0 0 0 0.01 0 0.08-0.04 0.16-0.09 0.26-0.14 0.03-0.02 0.06-0.03 0.09-0.05C554.11 375.02 553.79 374.61 553.45 374.5z"/><path d="M576.16 361.22c0.13-0.1 0.15-0.15 0.14-0.16 -0.01-0.05-0.11-0.22-0.69-0.5 -0.29-0.14-0.52-0.19-0.71-0.17 -0.09 0.01-0.16 0.04-0.23 0.09 -0.23 0.18-0.37 0.63-0.42 1.39 0.31-0.09 0.58-0.17 0.78-0.23C575.75 361.42 576.11 361.26 576.16 361.22z"/><path d="M562.55 378.09c0.75 0.17 1.5 0.02 2.24-0.46 0.24-0.16 0.21-0.29 0.2-0.33 -0.11-0.44-0.43-0.68-1.01-0.77 -0.71-0.11-1.64 0.06-2.82 0.51C561.44 377.6 561.9 377.94 562.55 378.09z"/><path d="M364.06 373.41c0.97 0.18 2.73 1.47 6.25 4.04 14.97 10.97 54.53 39.97 109.01 39.96 0.45 0 0.9 0 1.35 0 64.85-0.67 110.85-38.78 115.88-43.12l0.29-0.39c0.08-0.18 0.17-0.31 0.28-0.4 0.79-0.65 1.43-1.16 2.13-1.73l-0.69-0.86c0 0 0 0 0 0l0.98 0.63 0.75-0.59 -0.47-0.83c-1.42-2.51-3.73-9.82-2.34-11.29 0.38-0.14 1.75-0.12 6.8 1.67l2.42 0.82 -0.31-1.82c-0.98-5.77-0.31-9.23 0.67-10.03 0.25-0.03 1.38 0.01 5.79 2.86l2.27 1.39 -0.08-2.05c-0.03-0.82-0.15-2.05-0.26-3.32 -0.47-5.1-0.35-5.36 0.67-5.79 0.02 0 0.05 0 0.08 0 1.44 0 7.35 3.93 8.21 4.86l0.53 0.57 0.72-0.31c0.77-0.34 1.5-0.5 2.22-0.5h1.82l-0.84-1.61c-1.58-3.03-4.46-7-7.02-9.66 -0.1-0.1-0.17-0.25-0.23-0.44l-7.46-7.44c-9.03-7.86-19.31-14.78-27.1-6.37l-0.48 0.49c-42.03 44.56-87.57 49.38-105.2 49.38 -17.72 0-63.5-4.87-105.64-49.92 -7.74-8.38-18.01-1.45-27.04 6.43l-0.93 0.81c-4.5 3.94-6.05 5.97-6.03 6.01 -0.04 0.04-0.14 0.1-0.31 0.36 -2.22 2.22-5.6 7.02-7.55 10.69l-0.88 1.66 1.88-0.04c0.77 0.03 1.48 0.15 2.27 0.49l0.69 0.3 0.84-0.85c0.16-0.18 0.32-0.35 0.52-0.51 1.54-1.27 2.67-2.04 3.51-2.61 0.36-0.25 0.8-0.6 1.25-0.98 0.54-0.44 1.55-1.26 1.67-1.33 0.43 0.01 0.81 0.27 0.98 0.66 0.02 0.05 2.11 4.95 0.62 9.53l-0.64 1.97 2-0.57c0.94-0.27 1.84-0.46 2.58-0.59 0.14-0.02 0.47-0.12 0.89-0.27 0.56-0.18 2.26-0.75 2.68-0.69 0.69 0.36 1.12 2.42 0.11 7.02l-0.49 2.24 2.06-1.01c1-0.49 1.87-0.78 2.57-1.02 2-0.66 3.52-0.69 3.8-0.48 1.61 1.79 1.39 8.07-0.93 11.11l-0.66 0.86 3.11 2.45L364.06 373.41zM371.85 364.16c-0.05 0.05-0.12 0.07-0.19 0.06 -0.07-0.01-0.13-0.05-0.17-0.11 -0.3-0.49-0.58-0.97-0.86-1.45 -0.17-0.28-0.33-0.57-0.5-0.85 -0.15 0.15-0.31 0.3-0.47 0.45 -0.19 0.19-0.39 0.37-0.58 0.55 -0.05 0.05-0.13 0.08-0.2 0.07 -0.07-0.01-0.14-0.05-0.17-0.11 -0.22-0.37-0.44-0.74-0.66-1.11 -0.44-0.73-0.87-1.47-1.26-2.18 -0.05-0.09-0.04-0.19 0.04-0.26 0.45-0.45 0.96-0.88 1.44-1.3 0.06-0.06 0.13-0.11 0.19-0.17 0.05-0.04 0.12-0.06 0.19-0.05 0 0 0 0 0 0 0.07 0.01 0.14 0.06 0.17 0.11 0.36 0.63 0.77 1.28 1.17 1.91 0.08 0.13 0.16 0.26 0.24 0.39 0.35-0.33 0.74-0.68 1.16-1.03 0.05-0.04 0.11-0.06 0.18-0.05 0.09 0 0.14 0.06 0.17 0.12 0.6 1.07 1.25 2.13 1.9 3.13 0.06 0.1 0.04 0.22-0.04 0.29 -0.42 0.35-0.81 0.72-1.2 1.09C372.22 363.81 372.04 363.99 371.85 364.16zM454.29 403.37c-0.11 0.17-0.22 0.35-0.33 0.52 -0.04 0.06-0.09 0.1-0.16 0.11 -0.06 0.02-0.14 0-0.19-0.04 -0.21-0.13-0.43-0.27-0.65-0.4 -0.44-0.28-0.88-0.55-1.32-0.83 -0.12 0.19-0.24 0.37-0.36 0.56 -0.23 0.35-0.46 0.71-0.67 1.06 -0.04 0.06-0.09 0.1-0.17 0.11 -0.02 0-0.04 0-0.06 0 -0.05 0-0.1-0.02-0.14-0.04 -0.53-0.37-1.05-0.74-1.56-1.1 -0.42-0.3-0.85-0.6-1.27-0.9 -0.1-0.07-0.13-0.2-0.06-0.3 0.19-0.28 0.39-0.56 0.58-0.84 0.32-0.46 0.65-0.93 0.94-1.39 0.04-0.06 0.09-0.09 0.16-0.11 0.07-0.02 0.13 0 0.19 0.04 0.66 0.45 1.33 0.9 2.04 1.36 0.35-0.57 0.72-1.17 1.12-1.78 0.04-0.05 0.09-0.09 0.16-0.1 0.07-0.01 0.14 0.01 0.19 0.04 0.2 0.13 0.41 0.27 0.61 0.4 0.71 0.46 1.41 0.91 2.14 1.37 0.11 0.07 0.14 0.21 0.07 0.31C455.11 402.06 454.7 402.72 454.29 403.37zM462.57 403.1c-0.53 0.82-1.07 1.68-1.57 2.5 -0.03 0.06-0.08 0.09-0.15 0.11 -0.02 0.01-0.04 0.01-0.06 0.01 -0.04 0-0.09-0.01-0.12-0.03 -1.31-0.76-2.54-1.51-3.59-2.17 -0.11-0.06-0.14-0.19-0.08-0.29 0.49-0.84 1.09-1.83 1.79-2.83 0.03-0.05 0.09-0.09 0.16-0.1 0.06-0.01 0.14 0 0.19 0.04 1.11 0.73 2.3 1.47 3.54 2.19 0.11 0.06 0.15 0.2 0.08 0.3C462.69 402.91 462.63 403.01 462.57 403.1zM588.94 363.85c-0.01 0.1-0.09 0.18-0.19 0.19 -1.1 0.2-2.21 0.39-3.32 0.58 0 0 0 0-0.01 0 -0.07 0.01-0.14-0.01-0.19-0.06 -0.05-0.05-0.08-0.12-0.07-0.19 0.21-1.36 0.42-2.81 0.58-4.23 0.02-0.1 0.09-0.18 0.19-0.2 1.24-0.21 2.36-0.42 3.29-0.6 0.09-0.02 0.15 0.01 0.21 0.06 0.05 0.05 0.08 0.12 0.07 0.19C589.29 361.03 589.12 362.44 588.94 363.85zM595.05 333.11c0.06-0.64 0.16-1.38 0.28-2.25 0.05-0.33 0.09-0.67 0.13-1 0.01-0.1 0.09-0.18 0.19-0.19l0.01 0c0.1-0.01 0.2 0.05 0.24 0.14 0.49 1.19 1.04 2.48 1.75 4.05 0.03 0.06 0.06 0.13 0.09 0.19 0.67 1.47 1.24 2.75 1.73 3.89 0.34 0.8 0.66 1.67 1.01 2.75 0.21 0.68 0.35 1.43 0.43 2.37 0.07 0.83 0.06 1.99-0.03 3.45 -0.01 0.08-0.06 0.16-0.14 0.19 -0.17 0.07-0.33 0.13-0.5 0.2 -0.09 0.04-0.18 0.07-0.27 0.11 -0.02 0.01-0.03 0.01-0.05 0.01 -0.05 0.01-0.1 0-0.15-0.02 -0.06-0.04-0.1-0.09-0.11-0.16 -0.19-1.22-0.41-2.19-0.65-2.89 -0.14-0.41-0.34-0.95-0.59-1.62 -0.07-0.2-0.15-0.41-0.23-0.61 -0.26-0.69-0.56-1.36-0.86-2.02 -0.11-0.25-0.23-0.5-0.34-0.75 -0.37-0.82-0.85-1.81-1.52-3.09 -0.2-0.38-0.35-0.72-0.4-0.95C594.96 334.58 594.96 333.98 595.05 333.11zM544.96 387.35c0.08-0.21 0.16-0.41 0.25-0.62 0.04-0.1 0.17-0.19 0.27-0.14 1.05 0.2 1.95 0.26 2.66 0.13 0.56-0.09 1.19-0.31 1.77-0.62 0.85-0.45 1.66-1.17 2.41-2.11 0.74-0.95 1.46-2.18 2.2-3.85 -0.09 0.06-0.19 0.12-0.27 0.16 -0.96 0.51-1.83 0.59-2.56 0.23 -0.72-0.36-1.17-1.08-1.38-2.22 -0.26-1.42-0.19-2.95 0.22-4.68 0.44-1.85 1.1-3.02 1.99-3.5 0.58-0.3 1.44-0.46 2.37 0.6 0.73 0.83 1.23 1.97 1.49 3.38 0.03 0.16 0.06 0.31 0.09 0.47 0.52-0.3 0.98-0.62 1.39-0.96 0.46-0.37 0.78-0.66 1-0.85 0.01-0.01 0.02-0.02 0.03-0.03 0.38-3.35 0.83-5.94 1.35-7.72 0.44-1.5 1-2.53 1.57-2.9 0.22-0.14 0.45-0.19 0.69-0.15 0.36 0.07 0.71 0.37 1.04 0.89 0.44 0.69 0.74 1.43 0.89 2.2 0.22 1.17 0.22 2.26-0.01 3.25 -0.16 0.66-0.41 1.31-0.75 1.93 0.16-0.12 0.32-0.24 0.47-0.35 0.53-0.39 1.01-0.71 1.45-1 0.43-0.28 0.86-0.56 1.28-0.85 0.13-0.08 0.25-0.17 0.38-0.25 0.01-0.01 0.03-0.02 0.04-0.03 0.16-0.1 0.31-0.19 0.46-0.3 0.07-0.05 0.14-0.09 0.21-0.14 0.08-0.05 0.15-0.1 0.23-0.15 0.02-0.01 0.03-0.02 0.04-0.02 0.19-0.12 0.37-0.24 0.56-0.36 0.35-0.23 0.71-0.46 1.04-0.69 0.79-0.52 1.35-1.02 1.71-1.51 0.44-0.58 0.72-1.3 0.81-2.07 0.18-1.48 0.55-2.92 1.11-4.28 0.48-1.15 0.99-1.97 1.49-2.36 0.3-0.25 1-0.42 2.36 0.96 0.71 0.73 1.25 1.55 1.64 2.5 2.37-1.85 4.8-3.76 7.16-5.68 -1-0.23-1.91-0.3-2.67-0.2 -0.03 0-0.06 0.01-0.09 0.01 -0.78 0.12-1.5 0.44-2.2 0.97 -0.21 0.16-0.39 0.31-0.55 0.46 -0.08 0.08-0.17 0.18-0.28 0.3 -0.11 0.12-0.25 0.27-0.41 0.44 -0.07 0.07-0.17 0.11-0.27 0.05 -0.09-0.04-0.14-0.13-0.13-0.23 0.16-1.31 0.37-2.67 0.83-3.74 0.44-1.01 1-1.78 1.71-2.35 0.54-0.42 1.1-0.69 1.7-0.78 0.65-0.12 1.33-0.09 2.08 0.06 0.02 0 0.05 0.01 0.07 0.01 0.57 0.12 1.43 0.28 2.54 0.6 0.58 0.17 1.22 0.33 1.59 0.28 0.33-0.05 0.79-0.25 1.41-0.62 1.3-1.19 2.62-2.4 3.95-3.61 -0.69-1.24-1.35-2.5-1.96-3.69 -0.61-1.21-1.15-2.42-1.73-3.77 -0.02 0-0.05 0.01-0.08 0.01 -0.21 0.02-0.41 0.04-0.62 0.07 -0.12 0.02-0.23-0.06-0.25-0.18 -0.11-0.58-0.16-1.2-0.14-1.83 0.03-0.93 0.16-2.02 0.39-3.24 0.02-0.09 0.09-0.16 0.19-0.18 0 0 0 0 0 0 0.01 0 0.02 0 0.03 0 0.12-0.02 0.24-0.05 0.36-0.09 0.05-0.01 0.1-0.02 0.15-0.04 0.06 0 0.13-0.01 0.18 0.03 0.05 0.04 0.09 0.09 0.1 0.15 0 0.02 0.01 0.05 0.01 0.1 0.01 0.08 0.02 0.21 0.04 0.38 0.01 0.08 0.03 0.24 0.4 0.24 0.3 0.01 0.77-0.11 1.42-0.33 0.06-0.04 0.14-0.01 0.2 0.03 0.06 0.04 0.1 0.1 0.1 0.18 0.01 0.2 0.02 0.4 0.02 0.59 0.02 0.44 0.04 0.89 0.05 1.33 0.01 0.58-0.02 1.19-0.09 1.88 -0.01 0.09-0.06 0.15-0.15 0.19 -0.07 0.03-0.15 0.06-0.22 0.08 0.58 1.26 1.09 2.32 1.59 3.32v0c0.5 1.01 1.08 2.11 1.81 3.48 0.26 0.84 0.52 1.64 0.78 2.44 0.13 0.39 0.26 0.77 0.38 1.15 0.03 0.08 0 0.17-0.06 0.23 -1.28 1.18-2.54 2.36-3.82 3.54 -0.81 0.75-1.64 1.5-2.46 2.25 -0.03 0.03-0.06 0.04-0.1 0.06 -4.39 3.96-8.86 7.56-12.7 10.55 -0.06 0.06-0.15 0.07-0.22 0.04 0 0-0.01 0-0.02-0.01 -0.72 0.45-1.42 0.81-2.17 1.12 -1.16 0.48-2.12 0.77-2.93 0.89 -0.27 1.06-0.76 2.02-1.42 2.78 -0.34 0.39-0.82 0.79-1.43 1.2 -1.09 0.73-2.18 1.45-3.27 2.17 -0.34 0.22-0.68 0.45-1.03 0.67 -0.1 0.06-0.2 0.14-0.31 0.21 -0.09 0.06-0.17 0.12-0.25 0.18 -0.09 0.06-0.19 0.13-0.3 0.22 0.11 0 0.23-0.01 0.35 0 0.43 0.02 0.78 0.34 0.9 0.82 0.09 0.34 0.1 0.72 0.12 1.12 0 0.06 0.01 0.11 0.01 0.17 0.01 0.15-0.01 0.35-0.03 0.62 -0.02 0.25-0.05 0.55-0.06 0.92 -0.04 1.43-0.18 2.46-0.39 3.09 -0.23 0.67-0.61 1.17-1.17 1.54 -1.3 0.86-2.68 0.86-3.96 0 -1.23-0.82-2.07-2.14-2.56-4.03 -0.4 0.23-0.8 0.45-1.19 0.68 -0.2 0.11-0.41 0.23-0.61 0.34 0.05 1.44-0.3 3.06-1.05 4.81 -1 2.34-2.19 3.89-3.53 4.6 -0.62 0.33-1.3 0.52-2.05 0.59 -0.25 0.02-0.5 0.03-0.77 0.02 -1.19-0.02-2.93-0.33-4.92-0.85 -0.06-0.02-0.12-0.06-0.15-0.11 -0.03-0.05-0.03-0.12-0.01-0.18C544.84 387.67 544.9 387.51 544.96 387.35zM532.42 393.44c0.11-0.28 0.23-0.55 0.35-0.83 0.04-0.1 0.17-0.15 0.28-0.14 1.1 0.25 1.82 0.29 2.24 0.28 0.49-0.04 1.04-0.15 1.65-0.39 0.64-0.27 1.26-0.72 1.78-1.31 0.63-0.7 1.43-1.79 2.3-3.16 1.58-2.49 1.79-3.61 1.69-4.12 -0.07-0.37-0.28-0.79-0.6-1.21 -0.37-0.48-0.85-0.85-1.44-1.11 -0.09-0.04-0.14-0.12-0.14-0.21 0.03-0.51 0.05-1.02 0.07-1.52 0.04-0.89 0.08-1.78 0.14-2.68 0.01-0.07 0.05-0.15 0.13-0.19 0.08-0.03 0.16-0.03 0.23 0 0.72 0.37 1.33 0.93 1.87 1.69 0.51 0.73 0.85 1.67 1.02 2.8 0.22 1.44 0.51 2.89 0.78 4.29 0.01 0.02 0.01 0.04 0.02 0.06 0.11 0.59-0.07 1.52-0.56 2.85 -0.46 1.22-1.09 2.41-1.87 3.54 -0.85 1.22-1.67 2-2.46 2.33 -0.59 0.24-1.23 0.4-1.92 0.44 -0.34 0.02-0.69 0.02-1.05 0 -0.94-0.06-2.45-0.33-4.47-0.81 -0.07-0.02-0.12-0.06-0.15-0.12 -0.03-0.06-0.04-0.12-0.01-0.18C532.33 393.65 532.37 393.54 532.42 393.44zM532.27 393.43c-0.12 0.38-0.23 0.77-0.36 1.15 -0.24 0.77-0.5 1.57-0.71 2.33 -0.03 0.11-0.16 0.21-0.28 0.16 -0.81-0.15-1.48-0.28-2.08-0.41 -0.1 0.36-0.22 0.71-0.33 1.07 -0.14 0.45-0.28 0.89-0.41 1.33 -0.03 0.1-0.12 0.16-0.22 0.17 -0.02 0-0.04 0-0.06 0 -0.28-0.05-0.56-0.1-0.83-0.16 -0.73-0.14-1.45-0.27-2.16-0.42 -0.07-0.01-0.12-0.05-0.16-0.1 -0.03-0.05-0.04-0.12-0.02-0.18 0.36-1.07 0.71-2.14 1.09-3.23 0.04-0.1 0.16-0.17 0.28-0.15 0.6 0.11 1.29 0.21 2 0.31 0.04 0.01 0.07 0.01 0.11 0.02 0.23-0.78 0.5-1.58 0.76-2.36 0.02-0.05 0.04-0.11 0.06-0.16 0.04-0.11 0.17-0.19 0.28-0.15 0.06 0.01 0.12 0.03 0.19 0.04 0.87 0.18 1.77 0.35 2.66 0.48 0.07 0.01 0.13 0.05 0.17 0.1C532.29 393.3 532.29 393.36 532.27 393.43zM522.2 375.54c0.06-0.28 0.13-0.58 0.26-0.91 0.01-0.03 0.03-0.06 0.06-0.09 0.03-0.02 0.05-0.04 0.08-0.06 0.05-0.04 0.1-0.08 0.15-0.13 0.05-0.06 0.16-0.1 0.22-0.08 0.08 0.01 0.15 0.07 0.19 0.14 0.04 0.1 0.03 0.2 0.02 0.31 0 0.04-0.01 0.1-0.01 0.15 0 0.09-0.01 0.18 0 0.25 0 0.06 0 0.12 0 0.18 0 0.18 0.03 0.31 0.09 0.39 0.02 0.03 0.03 0.05 0.1 0.02 0.34-0.13 0.64-0.52 0.81-1.02 0.11-0.31 0.25-0.88 0.39-1.57 0.01-0.05 0.04-0.09 0.08-0.13 0.08-0.07 0.19-0.14 0.29-0.21 0.06-0.04 0.15-0.06 0.22-0.02 0.07 0.03 0.12 0.09 0.14 0.15 0.1 0.4 0.19 0.66 0.22 0.74 0.02 0.07 0.05 0.11 0.09 0.12 0.02 0.02 0.08 0.01 0.14-0.02 0.3-0.12 0.54-0.43 0.72-0.91 0.14-0.39 0.21-0.81 0.21-1.21 0-0.06 0.03-0.13 0.09-0.18 0.02-0.02 0.05-0.04 0.07-0.06 0.05-0.05 0.11-0.1 0.19-0.14 0.06-0.04 0.14-0.06 0.22-0.02 0.07 0.03 0.13 0.08 0.14 0.15 0.03 0.12 0.06 0.27 0.09 0.43 0.01 0.05 0.02 0.09 0.03 0.14 0.04 0.23 0.05 0.43 0.06 0.6 0.04 0.71-0.06 1.39-0.3 2 -0.26 0.66-0.68 1.12-1.2 1.33 -0.19 0.08-0.42 0.1-0.55 0.1 -0.1-0.01-0.22-0.02-0.34-0.05 -0.19 0.39-0.33 0.64-0.46 0.83 -0.31 0.45-0.65 0.74-1.05 0.9 -0.15 0.06-0.31 0.1-0.45 0.1 -0.28 0.02-0.53-0.07-0.71-0.25 -0.22-0.25-0.33-0.61-0.34-1.18C522.1 376.07 522.14 375.81 522.2 375.54zM512.87 376.1c0.05-0.09 0.18-0.15 0.27-0.11 0.61 0.14 1.27 0.27 1.91 0.4 0.24-0.5 0.49-1.01 0.73-1.52 0.14-0.29 0.28-0.57 0.42-0.86 0.05-0.1 0.16-0.15 0.28-0.13 0.72 0.19 1.46 0.35 2.2 0.51 0.1 0.02 0.2 0.05 0.3 0.07 0.07 0.02 0.13 0.06 0.16 0.12 0.03 0.06 0.03 0.13 0 0.19 -0.37 0.69-0.69 1.39-1.02 2.07 -0.16 0.34-0.33 0.69-0.5 1.04 -0.05 0.09-0.16 0.13-0.27 0.12 -0.55-0.13-1.06-0.27-1.56-0.41 -0.09-0.02-0.18-0.05-0.28-0.07 -0.4 0.86-0.72 1.68-0.99 2.38 -0.03 0.09-0.12 0.15-0.22 0.15 -0.02 0-0.05 0-0.07-0.01 -0.9-0.23-1.8-0.47-2.68-0.72 -0.06-0.02-0.12-0.06-0.14-0.12 -0.03-0.06-0.03-0.12 0-0.18C511.89 377.99 512.38 377.03 512.87 376.1zM511.3 389.76c0.6-1.57 1.04-2.5 1.36-2.93 0.26-0.34 0.64-0.8 1.23-1.35 0.08-0.07 0.15-0.14 0.23-0.21 0.34-0.31 0.76-0.7 1.3-1.18 0.11-0.1 0.23-0.2 0.34-0.3 0.1-0.09 0.22-0.19 0.33-0.29 -0.01-0.02-0.01-0.04-0.02-0.06 -0.02-0.06-0.04-0.14-0.05-0.21 -0.02-0.12-0.02-0.23-0.02-0.34 0-0.02 0-0.04 0-0.06 0-0.39 0.06-0.88 0.19-1.48 0.15-0.69 0.43-1.48 0.83-2.35 0.04-0.09 0.17-0.13 0.24-0.13 0.11 0.02 0.19 0.09 0.21 0.18 0.33 1.72 0.6 3.02 0.87 4.23 0.08 0.35 0.15 0.7 0.23 1.05 0.23 1.05 0.47 2.12 0.75 3.18 0.44 1.64 0.88 2.24 1.11 2.46 0.25 0.26 0.6 0.19 0.74 0.14 0.36-0.11 0.73-0.22 1.09-0.33 2.47-0.78 4.94-1.63 7.34-2.46 -0.16-0.44-0.39-0.82-0.7-1.15 -0.14-0.16-0.48-0.48-1.09-0.9 -0.08-0.05-0.12-0.14-0.09-0.23 0.27-1.23 0.53-2.5 0.76-3.8 0.01-0.08 0.07-0.14 0.15-0.17 0.07-0.04 0.15-0.02 0.23 0.02 0.85 0.58 1.44 1.26 1.82 2.09 0.37 0.81 0.66 2.06 0.88 3.84 0.1 0.75 0.22 1.52 0.35 2.26 0.08 0.49 0.16 0.98 0.23 1.47 0.02 0.1-0.05 0.21-0.15 0.24 -2.76 1-5.52 1.91-8.1 2.73 -0.03 0.03-0.06 0.05-0.1 0.06 -0.26 0.08-0.53 0.16-0.8 0.24 -0.4 0.12-0.79 0.24-1.19 0.36 -0.15 0.05-0.35 0.1-0.61 0.11 -0.15 0.01-0.31 0-0.49-0.03 -0.6-0.1-1.2-0.5-1.74-1.17 -0.6-0.75-1.05-1.83-1.37-3.3 -0.42 0.68-0.79 1.25-1.08 1.65 -0.5 0.68-0.97 1.08-1.4 1.2 -0.23 0.06-0.48 0.08-0.78 0.09 -0.62 0.03-1.29 0.06-1.81 0.08 -0.89 0.03-1.32 0.03-1.52 0.01 -0.3-0.03-0.48-0.2-0.5-0.49C510.43 392.21 510.72 391.28 511.3 389.76zM496.75 384.93c0.29-0.62 0.74-1.58 1.35-2.75 0.04-0.09 0.15-0.15 0.25-0.12 0.1 0.02 0.19 0.09 0.2 0.19 0.21 1.41 0.48 2.94 0.84 4.83 0.26 1.38 0.44 2.64 0.6 3.75 0.06 0.37 0.11 0.72 0.16 1.06 0.15 0.99 0.26 1.99 0.31 3.07 0.04 0.79-0.02 1.57-0.2 2.39 -0.21 0.94-0.54 1.95-0.98 2.99 -0.04 0.09-0.12 0.14-0.22 0.15 -0.02 0-0.05 0-0.08-0.01 -0.12-0.04-0.26-0.07-0.4-0.11 -0.18-0.04-0.36-0.09-0.52-0.14 -0.1-0.03-0.18-0.12-0.17-0.23 0.12-1.39 0.14-2.26 0.09-2.9 -0.06-0.74-0.15-1.58-0.27-2.48 -0.13-1.01-0.29-2.06-0.48-3.22 -0.12-0.73-0.31-1.53-0.52-2.47 -0.09-0.4-0.19-0.82-0.28-1.27 -0.12-0.54-0.14-0.9-0.13-1.1C496.31 386.22 496.41 385.68 496.75 384.93zM464.77 402.03c0.05-0.02 0.13 0 0.19 0.04 0.9 0.62 1.67 1.08 2.22 1.32 0.52 0.23 1.11 0.36 1.73 0.39 0.03 0 0.06 0 0.09 0 0.62 0.01 1.23-0.14 1.86-0.44 0.71-0.35 1.67-0.99 2.77-1.86 1.59-1.25 2.38-2.22 2.37-2.86 -0.01-0.36-0.16-0.82-0.44-1.34 -0.36-0.67-0.79-1.21-1.31-1.65 -0.06-0.05-0.09-0.13-0.07-0.21 0.2-0.9 0.44-1.82 0.68-2.7 0.08-0.32 0.17-0.64 0.25-0.95 0.02-0.08 0.09-0.14 0.18-0.16 0.07-0.04 0.17 0 0.23 0.06 0.67 0.67 1.19 1.42 1.59 2.3 0.37 0.82 0.55 1.74 0.56 2.82 0.01 0 0.02 0 0.02 0 0 0 0 0 0.01 0 0.08 0 0.16 0 0.25 0 0.8-0.01 1.36-0.05 1.71-0.13 0.28-0.06 0.65-0.21 1.06-0.42 -0.27-0.47-0.48-0.76-0.62-0.92 -0.19-0.21-0.41-0.34-0.6-0.34 -0.01 0-0.01 0-0.01 0 -0.15 0-0.17 0.03-0.21 0.06 -0.06 0.04-0.16 0.21-0.26 0.35 -0.05 0.07-0.12 0.12-0.24 0.1 -0.21-0.02-0.47-0.05-0.65-0.07 -0.12-0.02-0.21-0.11-0.21-0.22 0-1.75 0.34-2.96 1.02-3.69 0.73-0.78 1.75-1.19 3.11-1.24 1.48-0.06 2.54 0.14 3.41 0.61 0.85 0.46 1.26 1.17 1.27 2.17 0.01 0.58-0.08 1.04-0.27 1.46 -0.2 0.44-0.6 1.01-1.11 1.73 0.11 0.08 0.23 0.14 0.37 0.19 0.2 0.07 0.43 0.09 0.63 0.1 0.8-0.06 1.6-0.12 2.4-0.19 1.62-0.13 3.29-0.28 4.92-0.45 -0.08-0.34-0.16-0.68-0.24-1.02 -0.26-1.1-0.53-2.23-0.76-3.33 -0.02-0.1-0.04-0.19-0.06-0.29 -0.28-1.37-0.56-2.8-0.8-4.21 -0.15-0.09-0.33-0.18-0.5-0.26 -0.12-0.06-0.24-0.12-0.35-0.18 -0.08-0.04-0.13-0.12-0.12-0.21 0.04-0.47 0.11-1.09 0.35-1.72 0.33-0.84 0.76-1.71 1.33-2.64 0.05-0.1 0.2-0.16 0.3-0.09 0.13 0.05 0.27 0.1 0.43 0.15 0.06 0.02 0.12 0.04 0.18 0.06 0.1 0.03 0.15 0.12 0.16 0.21 0 0.06-0.01 0.11-0.03 0.2 -0.02 0.08-0.04 0.18-0.06 0.31 -0.03 0.21 0.25 0.41 0.49 0.55 0.24 0.14 0.73 0.35 1.64 0.56 0.12 0.03 0.2 0.14 0.17 0.26 -0.12 0.61-0.29 1.24-0.46 1.82 -0.17 0.61-0.36 1.15-0.59 1.63 -0.05 0.1-0.15 0.16-0.26 0.13 -0.08-0.01-0.15-0.02-0.21-0.04 0.16 0.93 0.36 1.87 0.55 2.79 0.07 0.35 0.14 0.7 0.22 1.05 0.23 1.08 0.49 2.18 0.75 3.24 0.08 0.32 0.16 0.64 0.24 0.96 0.01 0.01 0.01 0.03 0.01 0.04 0.04 0.84 0.09 1.68 0.15 2.51 0.03 0.43 0.06 0.85 0.08 1.28 0.01 0.12-0.09 0.22-0.21 0.23 -2.42 0.27-4.88 0.49-7.26 0.69 -0.02 0.01-0.04 0.01-0.06 0.01 -0.06 0.01-0.11 0.01-0.17 0.02 -0.2 0.02-0.39 0.03-0.59 0.04 -0.1 0.01-0.19 0.02-0.28 0.03 -0.02 0-0.03 0-0.05 0 -0.36 0.03-0.73 0.06-1.1 0.08 -0.88 0.06-1.65-0.04-2.27-0.3 -0.61-0.25-1.11-0.67-1.48-1.2 -0.67 0.66-1.46 1.13-2.41 1.41 -0.73 0.21-1.62 0.32-2.52 0.31 -0.03 0-0.06 0-0.08 0 0 0.03 0 0.06 0 0.08 0.03 0.6-0.31 1.38-1.02 2.32 -0.7 0.92-1.49 1.7-2.42 2.36 -1.03 0.73-1.97 1.09-2.8 1.08 -0.02 0-0.04 0-0.05 0 -0.96-0.02-1.97-0.28-3.07-0.8 -0.85-0.4-2.19-1.26-4.34-2.8 -0.05-0.04-0.08-0.09-0.09-0.16 0-0.06 0.02-0.12 0.06-0.16 0.26-0.26 0.45-0.5 0.59-0.72C464.64 402.09 464.7 402.05 464.77 402.03zM448.85 380.61c0.11-0.19 0.24-0.42 0.38-0.69 0.03-0.06 0.09-0.1 0.16-0.12 0.05-0.01 0.09-0.02 0.14-0.03 0.06-0.02 0.12-0.02 0.16-0.04 0.07-0.01 0.15 0 0.21 0.04 0.06 0.04 0.09 0.11 0.09 0.18 0 0.08-0.02 0.22-0.07 0.4 -0.03 0.1-0.05 0.2-0.07 0.28 -0.01 0.03-0.01 0.06-0.02 0.08 -0.03 0.15-0.03 0.3 0.02 0.44 0.03 0.08 0.06 0.13 0.19 0.14 0.33 0.06 0.67-0.12 0.9-0.46 0.12-0.19 0.33-0.64 0.56-1.23 0.04-0.08 0.12-0.14 0.21-0.15 0.04 0 0.08-0.01 0.13-0.01 0.07-0.01 0.17-0.02 0.23-0.02 0.06 0 0.12 0.02 0.15 0.06 0.04 0.04 0.07 0.1 0.07 0.16 0.01 0.25 0.01 0.68 0.04 0.78 0.09 0.31 0.24 0.34 0.3 0.35 0.22 0.03 0.45 0.02 0.75-0.42 0.21-0.31 0.35-0.64 0.41-0.98 0.02-0.1 0.1-0.17 0.2-0.19 0.1-0.02 0.2-0.01 0.3-0.03 0.05-0.02 0.12 0 0.18 0.04 0.05 0.04 0.09 0.09 0.1 0.15 0.02 0.19 0.02 0.41 0.01 0.62 0 0.07 0 0.14 0 0.21 0 0.14 0 0.27-0.02 0.39 -0.12 0.73-0.33 1.29-0.64 1.69 -0.39 0.51-0.87 0.71-1.47 0.62 -0.26-0.04-0.44-0.11-0.6-0.21 -0.08-0.05-0.16-0.11-0.27-0.19 0 0-0.01-0.01-0.01-0.01 -0.2 0.23-0.38 0.39-0.53 0.49 -0.32 0.22-0.66 0.31-1.01 0.3 -0.07 0-0.15-0.01-0.23-0.02 0 0 0 0 0 0 -0.47-0.09-0.81-0.3-1.01-0.65 -0.21-0.35-0.28-0.77-0.22-1.23C448.6 381.11 448.69 380.87 448.85 380.61zM438.33 377.68c0.48-0.5 0.97-1.01 1.5-1.51 0.09-0.08 0.22-0.09 0.32-0.01 0.25 0.2 0.5 0.41 0.76 0.63 0.32 0.26 0.64 0.52 0.95 0.78 0.2-0.2 0.4-0.41 0.6-0.62 0.29-0.3 0.57-0.6 0.88-0.9 0.09-0.08 0.23-0.09 0.32-0.01 0.76 0.64 1.54 1.28 2.32 1.91 0.05 0.04 0.08 0.1 0.08 0.16 0 0.06-0.02 0.12-0.07 0.17 -0.64 0.63-1.32 1.31-1.96 2.01 -0.04 0.05-0.1 0.07-0.16 0.08 -0.06 0-0.13-0.02-0.17-0.06 -0.55-0.47-1.13-0.96-1.66-1.44 -0.25 0.28-0.49 0.57-0.73 0.86 -0.2 0.24-0.4 0.48-0.61 0.72 -0.04 0.05-0.1 0.07-0.17 0.08 -0.01 0-0.02 0-0.03 0 -0.06 0-0.11-0.02-0.15-0.06 -0.28-0.24-0.56-0.48-0.84-0.72 -0.53-0.45-1.05-0.91-1.55-1.36 -0.09-0.09-0.09-0.22-0.01-0.31C438.08 377.94 438.21 377.81 438.33 377.68zM436.04 387.88c0.89-1.17 1.44-1.79 1.79-2.01 0.32-0.2 0.83-0.41 1.45-0.61 0.22-0.07 0.49-0.13 0.81-0.21 0.28-0.07 0.6-0.15 0.94-0.24 0.1-0.03 0.21-0.06 0.32-0.09 0.09-0.02 0.18-0.05 0.27-0.08 0.01-0.07 0.01-0.13 0.01-0.21 -0.01-0.14 0-0.27 0.02-0.4 0.03-0.33 0.18-0.7 0.49-1.27 0.32-0.57 0.71-1.13 1.17-1.67 0.06-0.07 0.16-0.11 0.26-0.07 0.09 0.03 0.16 0.12 0.16 0.21 0 0.2 0 0.4 0 0.6 0.01 1.23 0.02 2.46 0.05 3.68 0.03 1.1 0.1 2.22 0.18 3.3 0.02 0.33 0.04 0.65 0.06 0.98 0.11 1.63 0.46 2.43 0.65 2.76 0.18 0.3 0.44 0.5 0.78 0.58 0.29 0.07 0.59 0.14 0.88 0.2 0.12 0.03 0.24 0.05 0.36 0.08 2.34 0.51 4.82 1.02 7.27 1.41 -0.09-0.49-0.23-0.91-0.42-1.26 -0.12-0.24-0.44-0.67-0.96-1.34 -0.05-0.06-0.06-0.15-0.03-0.22 0.27-0.6 0.57-1.22 0.86-1.81 0.19-0.4 0.39-0.8 0.58-1.2 0.03-0.07 0.11-0.12 0.2-0.13 0.08 0 0.17 0.03 0.22 0.1 0.73 0.99 1.18 1.86 1.38 2.69 0.18 0.76 0.23 1.83 0.18 3.47 2.06 0.3 4.2 0.59 6.31 0.85 -0.11-0.5-0.26-0.9-0.45-1.23 -0.08-0.14-0.26-0.36-0.48-0.65 -0.15-0.19-0.32-0.4-0.5-0.65 -0.05-0.06-0.06-0.14-0.03-0.21 0.23-0.56 0.49-1.13 0.75-1.69 0.21-0.46 0.42-0.92 0.62-1.39 0.03-0.07 0.11-0.13 0.19-0.14 0.09 0 0.17 0.02 0.22 0.09 0.69 0.84 1.17 1.71 1.43 2.6 0 0.01 0 0.01 0 0.01 0.24 0.82 0.33 2 0.27 3.82 -0.02 0.65-0.02 1.3-0.02 1.95 0 0.52-0.01 1.05-0.02 1.57 0 0.06-0.03 0.12-0.08 0.16 -0.04 0.04-0.1 0.06-0.16 0.05 -0.01 0-0.02 0-0.02 0 -2.92-0.33-5.83-0.73-8.34-1.1 -0.01 0-0.03 0.01-0.06 0 -0.03-0.01-0.06-0.01-0.09-0.02 -0.21-0.03-0.35-0.05-0.5-0.07 -0.15-0.02-0.3-0.04-0.44-0.06 -0.05-0.01-0.1-0.03-0.13-0.06 -2.34-0.36-4.69-0.81-7.2-1.36 -0.03 0.01-0.08 0.02-0.11 0 -0.28-0.06-0.56-0.13-0.83-0.19 -0.02-0.01-0.05-0.01-0.07-0.02 0 0 0 0.01 0 0.01 -0.12-0.03-0.24-0.05-0.37-0.08 -0.22-0.05-0.44-0.11-0.67-0.16 -0.38-0.09-0.75-0.26-1.05-0.48 -0.56-0.4-1.05-1.03-1.45-1.86 -0.44-0.92-0.68-2.11-0.76-3.71 -0.51 0.4-0.96 0.71-1.31 0.9 -0.66 0.35-1.16 0.46-1.62 0.34 -0.17-0.04-0.33-0.12-0.52-0.2 -0.04-0.02-0.09-0.04-0.13-0.06 -0.26-0.12-0.53-0.23-0.79-0.34 -0.35-0.15-0.69-0.3-1.01-0.45 -0.44-0.21-1.2-0.58-1.39-0.73 -0.23-0.17-0.34-0.37-0.32-0.6C434.79 389.75 434.94 389.33 436.04 387.88zM422.67 379.31c-0.01-0.37-0.02-0.73-0.03-1.1 -0.01-0.64 0.03-0.99 0.06-1.11 0.06-0.32 0.29-0.74 0.72-1.3 0.46-0.6 1.02-1.24 1.67-1.9 0.07-0.06 0.18-0.08 0.26-0.05 0.09 0.04 0.15 0.12 0.15 0.22 -0.04 1.77-0.02 3.48-0.01 4.93 0.02 1.84-0.08 3.45-0.15 4.74 0 0.02 0 0.05-0.01 0.08 -0.06 0.96-0.15 1.86-0.24 2.73 -0.01 0.06-0.01 0.12-0.02 0.18 -0.07 0.75-0.26 1.45-0.55 2.08 -0.27 0.58-0.75 1.3-1.39 2.19 -0.04 0.05-0.1 0.09-0.16 0.1 -0.02 0-0.04 0-0.06 0 -0.05 0-0.09-0.02-0.13-0.04 -0.24-0.17-0.43-0.33-0.63-0.48 -0.07-0.06-0.15-0.12-0.22-0.18 -0.07-0.06-0.1-0.15-0.08-0.23 0.33-1.11 0.51-1.92 0.57-2.55 0.05-0.51 0.09-1.24 0.15-2.39 0.01-0.26 0.03-0.53 0.04-0.79 0.04-0.78 0.08-1.59 0.09-2.38C422.73 381.27 422.7 380.36 422.67 379.31zM400.19 360.32c0.04-0.06 0.1-0.14 0.15-0.21 0.08-0.1 0.17-0.23 0.24-0.35 0.05-0.08 0.13-0.12 0.23-0.11 0 0 0.01 0 0.01 0 0.13 0.02 0.24 0.04 0.34 0.06 0.06 0.02 0.14 0.06 0.17 0.12 0.03 0.06 0.05 0.13 0.02 0.19 -0.04 0.1-0.09 0.21-0.13 0.31 -0.03 0.09-0.06 0.19-0.08 0.28 -0.01 0.02-0.01 0.04-0.02 0.06 -0.04 0.14-0.05 0.32-0.03 0.51 0.01 0.09 0.05 0.21 0.15 0.28 0.3 0.18 0.52 0.15 0.8-0.11 0.09-0.09 0.29-0.32 0.67-0.99 0.06-0.1 0.2-0.16 0.29-0.1 0.08 0.03 0.16 0.06 0.26 0.08 0.12 0.02 0.19 0.13 0.18 0.24 -0.02 0.22-0.07 0.69-0.04 0.81 0.07 0.32 0.13 0.48 0.31 0.6 0.23 0.15 0.48-0.03 0.61-0.16 0.2-0.23 0.36-0.51 0.47-0.85 0.03-0.11 0.16-0.17 0.27-0.15 0.04 0.01 0.07 0.02 0.11 0.03 0.06 0.02 0.14 0.03 0.2 0.05 0.12 0.02 0.2 0.13 0.19 0.24 -0.01 0.09-0.02 0.19-0.04 0.29 -0.01 0.1-0.03 0.2-0.04 0.3 -0.02 0.23-0.04 0.43-0.08 0.59 -0.17 0.66-0.45 1.16-0.83 1.49 -0.28 0.25-0.57 0.36-0.89 0.33 -0.19-0.02-0.38-0.09-0.58-0.21 -0.19-0.11-0.32-0.27-0.45-0.42 -0.08-0.09-0.16-0.19-0.26-0.33 -0.19 0.12-0.37 0.21-0.56 0.26 -0.38 0.1-0.76 0.06-1.15-0.19 -0.37-0.24-0.63-0.58-0.78-1 -0.15-0.4-0.15-0.84-0.01-1.31C399.94 360.74 400.04 360.52 400.19 360.32zM388.95 374.75c0.82 0.52 1.63 0.82 2.52 0.86 0.83 0.06 1.77-0.12 2.85-0.55 -0.19-0.1-0.37-0.2-0.53-0.31 -0.9-0.58-1.58-1.34-2.01-2.24 -0.41-0.86-0.51-1.8-0.29-2.88 0.28-1.36 0.86-2.47 1.72-3.28 1.26-1.2 2.29-0.95 2.92-0.54 0.75 0.48 1.25 1.36 1.52 2.68 0.27 1.25 0.27 2.53 0 3.93 -0.02 0.12-0.04 0.24-0.06 0.35 -0.01 0.07-0.02 0.14-0.04 0.22 0.02 0.01 0.03 0.02 0.05 0.03 0.26 0.16 0.5 0.32 0.77 0.49 0.87 0.55 1.58 0.76 2.22 0.65 0.81-0.14 1.32-0.82 1.6-2.12 0.02-0.08 0.07-0.14 0.15-0.17 0.07-0.03 0.16-0.02 0.22 0.04 0.06 0.04 0.11 0.09 0.17 0.13 0.23 0.17 0.46 0.34 0.69 0.52 0.08 0.06 0.11 0.16 0.07 0.25 -0.07 0.17-0.12 0.38-0.17 0.61 -0.02 0.09-0.04 0.18-0.06 0.26 -0.08 0.34-0.17 0.72-0.27 1.15 -0.08 0.35 0.01 0.78 0.26 1.23 0.24 0.46 0.54 0.79 0.87 0.96 0.42 0.22 0.84 0.44 1.25 0.65 0.13 0.07 0.25 0.13 0.38 0.2 1.33 0.68 1.98 0.78 2.3 0.75 0.32-0.03 0.78-0.21 1.01-1.36 0.06-0.28 0.19-0.48 0.4-0.61 0.13-0.07 0.32-0.12 0.65-0.19 0.2-0.04 0.38-0.08 0.56-0.14 0.08-0.02 0.16 0 0.22 0.05 0.06 0.04 0.09 0.12 0.09 0.19 0 0.04-0.01 0.07-0.01 0.11 -0.01 0.17-0.02 0.37-0.08 0.61 -0.04 0.16-0.04 0.29-0.04 0.4 0 0.07 0 0.13-0.01 0.17 -0.07 0.41-0.24 0.89-0.43 1.45 -0.02 0.07-0.05 0.15-0.08 0.22 0.31 0.32 0.61 0.6 0.95 0.86 0.3 0.23 0.6 0.45 0.9 0.67 -0.01-0.22-0.07-0.5-0.17-0.82 -0.25-0.82-0.24-1.09-0.21-1.23 0.06-0.27 0.14-0.44 0.24-0.56 0.05-0.05 0.1-0.08 0.17-0.12 0.07-0.03 0.16-0.08 0.28-0.16 0.45-0.29 0.92-0.61 1.35-0.91 0.06-0.04 0.14-0.07 0.22-0.02 0.07 0.02 0.13 0.09 0.15 0.16 0.17 0.65 0.28 1.26 0.32 1.79 0.03 0.46 0 1-0.12 1.77 -0.04 0.27-0.08 0.55-0.11 0.82 -0.02 0.13-0.04 0.26-0.06 0.39 1.42 0.69 2.9 1.4 4.43 2.1 -0.07-1.17-0.09-2.35-0.11-3.48 -0.01-0.31-0.02-0.63-0.02-0.94 -0.04-1.6 0-3.19 0.04-4.68 -0.2-0.21-0.37-0.41-0.52-0.6 -0.07-0.09-0.14-0.17-0.21-0.26 -0.05-0.05-0.06-0.12-0.05-0.19 0.12-0.54 0.32-1.03 0.6-1.49 0.32-0.54 0.83-1.15 1.59-1.92 0.05-0.05 0.12-0.07 0.19-0.07 0.06 0.01 0.11 0.03 0.15 0.07 0.11 0.11 0.21 0.22 0.32 0.32 0.08 0.08 0.15 0.16 0.23 0.24 0.04 0.04 0.07 0.11 0.06 0.17 -0.01 0.09-0.03 0.24-0.12 0.46 -0.06 0.17 0.05 0.45 0.35 0.86 0.3 0.41 0.79 0.91 1.42 1.44 0.08 0.07 0.1 0.17 0.06 0.26 -0.08 0.18-0.15 0.35-0.23 0.52 -0.15 0.34-0.29 0.67-0.47 0.98 -0.29 0.51-0.58 0.91-0.88 1.23 -0.05 0.05-0.13 0.09-0.2 0.07 -0.05 0-0.11-0.02-0.15-0.07 -0.01-0.01-0.02-0.02-0.03-0.03 -0.02 1.26-0.02 2.55 0.01 3.83 0 0.04 0 0.07 0 0.11 0.03 1.39 0.06 2.82 0.16 4.23 -0.12 1.05-0.22 2.06-0.32 3.08 -0.02 0.17-0.04 0.35-0.05 0.52 -0.01 0.07-0.05 0.14-0.12 0.17 -0.04 0.02-0.09 0.03-0.14 0.03 -0.03 0-0.06-0.01-0.08-0.02 -2.45-1.05-4.81-2.17-6.61-3.05 -0.05-0.01-0.1-0.02-0.15-0.03 -0.07-0.04-0.11-0.06-0.17-0.1 -0.04-0.02-0.08-0.05-0.13-0.08 -0.1-0.05-0.2-0.09-0.3-0.14 -0.11-0.05-0.23-0.1-0.33-0.16 -0.06-0.03-0.1-0.08-0.12-0.14 -0.07-0.04-0.15-0.08-0.22-0.12 -0.46-0.25-0.93-0.52-1.28-0.77 -0.72-0.52-1.34-1.06-1.85-1.6 -0.53 0.06-1.05 0.05-1.45-0.03 -0.42-0.09-1.08-0.35-1.97-0.8 -0.12-0.06-0.24-0.12-0.36-0.19 -0.63-0.32-1.23-0.62-1.84-0.95 -0.62-0.34-1.1-0.8-1.43-1.37 -0.28-0.47-0.51-1.06-0.69-1.79 -1.07 0.64-2.23 0.55-3.72-0.39 -0.3-0.18-0.58-0.37-0.87-0.55 -0.46 1.07-1.18 1.83-2.21 2.29 -1.54 0.71-2.92 0.63-4.25-0.21 -0.78-0.49-1.55-1.23-2.36-2.25 -0.77-0.97-1.88-2.72-3.44-5.52 -0.05-0.09-0.03-0.21 0.06-0.27 0.16-0.13 0.37-0.25 0.67-0.39 0.11-0.06 0.24-0.02 0.31 0.1 0.71 1.17 1.42 2.19 2 2.87C387.79 373.9 388.31 374.34 388.95 374.75zM379.08 367.21c0.05 0.01 0.09 0.01 0.14 0.02 0.57 0.07 1.38 0.04 2.42-0.1 1.48-0.21 2.26-0.6 2.38-1.19 0.08-0.35 0.05-0.88-0.07-1.57 -0.17-0.93-0.39-1.7-0.67-2.38 -0.02-0.06-0.02-0.12 0-0.17 0.48-1 1.02-1.99 1.53-2.95 0.04-0.08 0.13-0.12 0.22-0.12 0.1 0.01 0.18 0.07 0.21 0.15 0.39 1.02 0.64 2.05 0.77 3.14 0.12 1.06 0.06 2.09-0.17 3.08 -0.32 1.4-0.58 2.69-0.78 3.94 -0.09 0.58-0.54 1.09-1.35 1.55 -0.82 0.48-1.62 0.73-2.44 0.77 -0.31 0.01-0.61 0-0.88-0.03 -0.64-0.08-1.17-0.29-1.63-0.64 -0.77-0.59-1.53-1.41-2.32-2.51 -0.59-0.82-1.46-2.23-2.98-4.87 -0.06-0.1-0.03-0.23 0.07-0.29 0.06-0.04 0.13-0.08 0.19-0.11 0.15-0.1 0.3-0.2 0.44-0.29 0.06-0.04 0.15-0.03 0.19-0.04 0.06 0.01 0.12 0.05 0.16 0.11 0.64 1.08 1.18 1.89 1.58 2.41 0.44 0.57 0.87 1.01 1.34 1.38C377.93 366.86 378.49 367.11 379.08 367.21zM372.12 338.81c0.08-0.25 0.16-0.48 0.33-0.67 0.08-0.09 0.16-0.18 0.25-0.27 0.07-0.08 0.14-0.17 0.22-0.25 0.07-0.07 0.2-0.1 0.28-0.04 0.03 0.01 0.07 0.03 0.11 0.05 0.06 0.02 0.11 0.05 0.15 0.07 0.11 0.06 0.14 0.19 0.09 0.3 -0.01 0.02-0.01 0.05-0.02 0.07 -0.02 0.06-0.05 0.14-0.09 0.23 -0.06 0.12-0.11 0.25-0.13 0.34 -0.05 0.17-0.08 0.35-0.07 0.53 0 0.15 0.05 0.27 0.13 0.36 0.15 0.16 0.37 0.28 0.72-0.01 0.11-0.08 0.28-0.33 0.51-0.64 0.07-0.09 0.13-0.18 0.2-0.27 0.07-0.1 0.2-0.13 0.3-0.06 0.09 0.06 0.16 0.11 0.26 0.17 0.07 0.05 0.11 0.13 0.1 0.22 -0.06 0.42-0.1 0.74-0.1 0.86 0.01 0.32 0.07 0.54 0.19 0.67 0.17 0.16 0.32 0.23 0.6 0 0.19-0.17 0.35-0.41 0.5-0.78 0.02-0.05 0.07-0.1 0.13-0.12 0.06-0.02 0.11-0.01 0.18 0.01 0.06 0.03 0.12 0.06 0.17 0.1 0.03 0.02 0.06 0.03 0.09 0.06 0.08 0.04 0.13 0.13 0.11 0.22 -0.02 0.18-0.06 0.42-0.11 0.64 -0.02 0.08-0.04 0.16-0.05 0.23 -0.03 0.13-0.05 0.25-0.08 0.35 -0.2 0.63-0.51 1.13-0.89 1.39 -0.23 0.17-0.47 0.24-0.71 0.21 -0.22-0.03-0.45-0.15-0.69-0.37 -0.18-0.17-0.28-0.32-0.38-0.5 -0.06-0.11-0.13-0.24-0.2-0.39 -0.17 0.09-0.34 0.14-0.5 0.17 -0.39 0.07-0.76-0.05-1.09-0.38 -0.32-0.32-0.51-0.68-0.6-1.14C371.9 339.71 371.98 339.29 372.12 338.81zM364.28 330.21c0.21-0.13 0.43-0.26 0.64-0.39 0.42-0.26 0.83-0.51 1.27-0.77 0.05-0.03 0.13-0.03 0.18-0.02 0.06 0.02 0.11 0.06 0.14 0.12 0.19 0.43 0.39 0.85 0.58 1.27 0.16 0.35 0.33 0.69 0.48 1.04 0.22-0.14 0.44-0.27 0.66-0.41 0.26-0.16 0.51-0.32 0.77-0.49 0.05-0.03 0.13-0.03 0.18-0.02 0.06 0.02 0.11 0.06 0.14 0.12 0.22 0.46 0.44 0.93 0.66 1.39 0.27 0.58 0.55 1.15 0.82 1.73 0.05 0.1 0.01 0.23-0.09 0.29 -0.19 0.11-0.39 0.23-0.59 0.34 -0.48 0.27-0.96 0.56-1.44 0.84 -0.05 0.03-0.1 0.04-0.15 0.03 -0.01 0-0.02 0-0.03 0 -0.06-0.02-0.11-0.06-0.14-0.12 -0.19-0.43-0.37-0.84-0.56-1.25 -0.15-0.34-0.29-0.68-0.44-1.01 -0.45 0.34-0.89 0.67-1.32 1 -0.05 0.04-0.15 0.05-0.19 0.04 -0.07-0.01-0.12-0.06-0.15-0.12 -0.49-1.06-1.02-2.19-1.5-3.3C364.14 330.39 364.18 330.27 364.28 330.21zM361.95 345.42c-0.16-0.15-0.35-0.35-0.56-0.62 -0.41-0.52-0.81-1.06-1.19-1.57 -0.57-0.75-0.88-1.21-0.99-1.39 -0.14-0.24-0.18-0.44-0.12-0.65 0.13-0.45 1-1.2 1.5-1.61 1-0.81 1.57-1.19 1.94-1.25 0.37-0.07 0.8-0.05 1.33 0.02 0.35 0.06 0.8 0.16 1.49 0.32 0.05 0.01 0.1 0.02 0.15 0.03 0.09 0.02 0.19 0.04 0.29 0.07 0-0.04 0.02-0.07 0.03-0.11 0.01-0.03 0.01-0.05 0.02-0.08 0.04-0.15 0.07-0.27 0.11-0.39 0.12-0.38 0.39-0.76 0.66-1.11 0.3-0.38 0.72-0.76 1.35-1.21 0.08-0.05 0.18-0.06 0.26-0.01 0.08 0.05 0.12 0.14 0.1 0.23 -0.19 0.87-0.35 1.77-0.51 2.63 -0.11 0.63-0.23 1.26-0.35 1.88 -0.27 1.37-0.52 2.84-0.77 4.5 -0.2 1.36-0.23 2.44-0.08 3.15 0.09 0.42 0.27 0.76 0.54 1.02 0.48 0.45 0.97 0.91 1.49 1.39 0.02 0.02 0.03 0.03 0.04 0.05 1.55 1.48 3.21 3.04 4.86 4.54 0.03-0.48 0-0.94-0.07-1.37 -0.04-0.28-0.19-0.79-0.41-1.5 -0.03-0.11-0.07-0.23-0.1-0.34 -0.02-0.07-0.01-0.14 0.04-0.2 0.63-0.83 1.23-1.57 1.82-2.26 0.05-0.06 0.13-0.09 0.21-0.08 0 0 0.01 0 0.02 0 0.08 0.02 0.15 0.08 0.17 0.16 0.35 1.17 0.53 2.3 0.53 3.35 0.01 0.9-0.19 2.1-0.63 3.87 -0.28 1.12-0.54 2.26-0.77 3.38 -0.01 0.08-0.07 0.15-0.15 0.17 -0.03 0.01-0.07 0.01-0.11 0.01 -0.04-0.01-0.09-0.02-0.12-0.05 -2.16-1.81-4.26-3.75-6.28-5.64 -0.08-0.07-0.15-0.14-0.23-0.21 -0.02-0.01-0.03-0.02-0.04-0.03 -0.02-0.02-0.05-0.05-0.07-0.07 -0.08-0.07-0.16-0.15-0.24-0.22 -0.13-0.12-0.26-0.23-0.38-0.35 -0.01-0.01-0.02-0.02-0.02-0.02 -0.26-0.23-0.51-0.47-0.77-0.71 -0.27-0.26-0.52-0.58-0.73-0.95 -0.42-0.73-0.69-1.57-0.81-2.51 -0.14-1.14-0.07-2.47 0.22-4.18 -0.59 0.2-1.02 0.27-1.28 0.3C362.72 345.85 362.28 345.73 361.95 345.42z"/></svg>