<svg xmlns="http://www.w3.org/2000/svg" xmlns:xlink="http://www.w3.org/1999/xlink" version="1.1" x="0px" y="0px" viewBox="0 0 50.4 63" enable-background="new 0 0 50.4 50.4" xml:space="preserve"><g><path d="M32.436,19.294l-11.059,0.008v-1.655h-8.862v1.661l-2.718,0.002V4.198c0-1.69-1.371-3.063-3.062-3.063   c-1.692,0-3.063,1.373-3.063,3.063v18.175c0,1.689,1.371,3.062,3.063,3.062h10.903v16.951L32.436,19.294z M23.225,22.399   c1.297,0,2.347,1.049,2.347,2.347c0,1.296-1.05,2.347-2.347,2.347c-1.296,0-2.347-1.051-2.347-2.347   C20.878,23.449,21.929,22.399,23.225,22.399z"/><g><path d="M23.669,8.289V6.835h3.146c-0.552-0.49-0.914-1.335-0.914-2.298c0-1.517,0.896-2.744,2.001-2.744s2.003,1.228,2.003,2.744    c0,0.963-0.364,1.809-0.912,2.298h3.127v1.453h3.973c0.478-0.718,0.748-1.509,0.748-2.343c0-3.235-4.001-5.858-8.938-5.858    c-4.934,0-8.935,2.623-8.935,5.858c0,0.834,0.267,1.625,0.748,2.343H23.669z"/><path d="M19.427,10.129v1.899h2.245c0.06,3.377,2.813,6.098,6.206,6.098c3.39,0,6.145-2.721,6.207-6.098h1.953v-1.899H19.427z"/></g><rect x="17.639" y="46.397" width="19.635" height="4.003"/><path d="M33.809,17.647v1.681h3.488L22.446,42.326h14.829l0.004-13.477h2.064v18.255c0,4.162,5.973,4.162,5.959,0V27.014h1.694   v-7.685h1.217v-1.681H33.809z M40.508,27.014h-1.113v-7.674h1.113V27.014z M42.896,27.014h-1.115v-7.674h1.115V27.014z    M45.285,27.014h-1.112v-7.674h1.112V27.014z"/></g><text x="0" y="65.4" fill="#000000" font-size="5px" font-weight="bold" font-family="'Helvetica Neue', Helvetica, Arial-Unicode, Arial, Sans-serif">Created by Luis Prado</text><text x="0" y="70.4" fill="#000000" font-size="5px" font-weight="bold" font-family="'Helvetica Neue', Helvetica, Arial-Unicode, Arial, Sans-serif">from the Noun Project</text></svg>