<svg xmlns="http://www.w3.org/2000/svg" xmlns:xlink="http://www.w3.org/1999/xlink" version="1.1" id="Layer_1" x="0" y="0" width="403.2" height="228.3" viewBox="278.4 152.5 403.2 228.3" enable-background="new 278.4 152.5 403.2 228.3" xml:space="preserve"><path d="M482.39 217.55l2.74-5.48h-5.48 -5.48l2.74 5.48 -0.63 8.83c1.02-0.46 2.15-0.72 3.37-0.72 1.22 0 2.35 0.26 3.37 0.72L482.39 217.55z"/><path d="M446.78 275.62v-41.64c0-12.05 9.86-21.91 21.91-21.91l4.25 17.01c-1.31 1.73-2.06 3.94-2.06 6.22 0 2.32 0.76 4.61 2.19 6.39v16.4h-21.24l-2.92 17.53H446.78z"/><path d="M490.61 212.07c12.05 0 21.91 9.88 21.91 21.91v41.64h-2.13l-2.92-17.53h-21.24v-16.4c1.44-1.78 2.19-4.08 2.19-6.39 0-2.27-0.75-4.48-2.06-6.22L490.61 212.07z"/><path d="M479.65 157.28c12.1 0 21.91 11.04 21.91 24.65 0 13.62-9.81 24.65-21.91 24.65 -12.1 0-21.91-11.04-21.91-24.65C457.74 168.32 467.55 157.28 479.65 157.28z"/><polygon points="455.55 262.47 503.76 262.47 505.95 275.62 453.36 275.62 "/><path d="M479.65 230.03c2.42 0 4.38 2.35 4.38 5.26 0 1.95-0.88 3.65-2.19 4.56v18.24h-4.38v-18.24c-1.31-0.91-2.19-2.61-2.19-4.55C475.27 232.39 477.23 230.03 479.65 230.03z"/><path d="M332.84 258.08v-24.1c0-12.05 9.86-21.91 21.91-21.91l3.82 15.27c-2.2 1.47-3.78 3.93-4.27 6.68 -0.4 2.28-0.05 4.67 1.05 6.68l-3.06 17.39H332.84z"/><path d="M369.15 242.14c-0.27 0.3-0.55 0.58-0.85 0.84l-1.53 8.67 -0.75 4.24 -0.39 2.19h21.99v17.53h10.96v-41.64c0-12.03-9.86-21.91-21.91-21.91l-5.21 20.83c0.31 1.34 0.36 2.77 0.11 4.16 -0.24 1.35-0.73 2.64-1.45 3.78l-0.01 0.02 -0.01 0.02 -0.02 0.04 -0.01 0.02 -0.01 0.02 -0.02 0.04 -0.01 0.02 -0.01 0.02 -0.02 0.04 -0.01 0.02 -0.01 0.02 -0.02 0.04 -0.01 0.02 -0.01 0.02 -0.02 0.04 -0.01 0.02 -0.01 0.02 -0.02 0.04 -0.01 0.02 -0.01 0.02 -0.02 0.04 -0.01 0.02 -0.01 0.01 -0.03 0.04 -0.02 0.02 -0.01 0.01 -0.03 0.04 -0.02 0.02 -0.01 0.01 -0.03 0.04 -0.01 0.02 -0.01 0.01 -0.03 0.04 -0.02 0.02 -0.01 0.01 -0.03 0.04 -0.02 0.02 -0.01 0.01 -0.03 0.03 -0.02 0.02 -0.01 0.01 -0.03 0.04 -0.02 0.02 -0.01 0.01 -0.03 0.03 -0.02 0.02 -0.01 0.01 -0.03 0.03 -0.02 0.02 -0.01 0.01 -0.09 0.1L369.15 242.14z"/><path d="M368.45 217.55l2.74-5.48h-5.48 -5.48l2.74 5.48 -0.6 8.41c0.72-0.07 1.47-0.05 2.24 0.09 1.89 0.34 3.45 1.26 4.63 2.55L368.45 217.55z"/><path d="M365.71 157.28c12.1 0 21.91 11.04 21.91 24.65 0 13.62-9.81 24.65-21.91 24.65 -12.1 0-21.91-11.04-21.91-24.65C343.79 168.32 353.6 157.28 365.71 157.28z"/><path d="M363.84 230.36c2.38 0.42 3.91 3.08 3.4 5.94 -0.34 1.92-1.5 3.44-2.95 4.11l-3.12 17.68h-4.45l3.25-18.44c-1.13-1.12-1.71-2.95-1.37-4.87C359.12 231.92 361.46 229.94 363.84 230.36z"/><polygon points="335.03 262.47 383.24 262.47 383.24 275.62 330.65 275.62 "/><path d="M626.47 258.08v-24.1c0-12.05-9.86-21.91-21.91-21.91l-3.82 15.27c2.2 1.47 3.78 3.93 4.27 6.68 0.4 2.28 0.06 4.67-1.05 6.68l3.06 17.39H626.47z"/><path d="M589.2 240.85v0l0.1 0.15 0.01 0.02 0.01 0.02 0.02 0.04 0.05 0.07 0.01 0.02 0.01 0.02 0.04 0.06 0.01 0.02 0.02 0.04 0.1 0.14 0.02 0.02 0.01 0.01 0.05 0.07 0.03 0.04 0.02 0.02 0.01 0.01 0.03 0.04 0.07 0.09 0.01 0.01 0.03 0.03 0.06 0.07 0.02 0.02 0.01 0.01 0.03 0.03 0.02 0.02 0.01 0.01 0.03 0.03c0.31 0.36 0.63 0.7 0.99 1l1.53 8.67 0.75 4.24 0.39 2.19h-21.98v17.53H560.73v-41.64c0-12.03 9.86-21.91 21.91-21.91l5.21 20.83c-0.31 1.34-0.35 2.77-0.11 4.16C587.98 238.41 588.48 239.7 589.2 240.85z"/><path d="M590.86 217.55l-2.74-5.48h5.48 5.48l-2.74 5.48 0.6 8.41c-0.72-0.07-1.47-0.05-2.24 0.09 -1.89 0.34-3.45 1.26-4.63 2.55L590.86 217.55z"/><path d="M593.6 157.28c-12.1 0-21.91 11.04-21.91 24.65 0 13.62 9.81 24.65 21.91 24.65 12.1 0 21.91-11.04 21.91-24.65C615.52 168.32 605.7 157.28 593.6 157.28z"/><path d="M595.46 230.36c-2.38 0.42-3.91 3.08-3.4 5.94 0.34 1.92 1.5 3.44 2.95 4.11l3.12 17.68h4.45l-3.25-18.44c1.13-1.12 1.71-2.95 1.37-4.87C600.19 231.92 597.85 229.94 595.46 230.36z"/><polygon points="624.28 262.47 576.07 262.47 576.07 275.62 599.08 275.62 628.66 275.62 "/><polygon points="642.16 372.03 659.69 372.03 659.69 380.8 642.16 380.8 "/><polygon points="300.31 372.03 317.84 372.03 317.84 380.8 300.31 380.8 "/><polygon points="287.17 280 672.84 280 681.6 367.65 278.4 367.65 "/></svg>