<svg xmlns="http://www.w3.org/2000/svg" xmlns:xlink="http://www.w3.org/1999/xlink" version="1.1" id="Layer_1" x="0" y="0" width="559.98" height="560" viewBox="200.01 0 559.98 560" enable-background="new 200.011 0 559.977 560" xml:space="preserve"><path fill="#010101" d="M725.95 398.75c-12.92 26.65-30.02 50.9-50.51 71.88l-35.6-35.6c17.45-17.98 31.51-38.38 41.88-60.44h-0.01c13.27-28.25 20.48-59.2 20.96-91.27h50.48C752.64 324.64 742.91 363.77 725.95 398.75l6.1 3.32c18.25-37.59 27.94-79.1 27.94-122.12 0-36.58-7.02-72.07-20.33-105 -13.89-34.38-34.66-65.96-61.68-92.98 -27.12-27.11-58.84-47.94-93.37-61.83l-0.01 0.03C551.78 6.96 516.43 0 480 0c-45.01 0-87.54 10.74-125.26 29.69l3.08 5.89c36.49-18.29 76.88-28.25 118.81-28.76v50.5c-34.2 0.51-66.52 8.81-95.34 23.12l3.06 5.88c28.4-14.06 59.74-21.76 92.28-22.25v45.72c-25.44 0.5-49.5 6.62-71.04 17.13l1.47 2.81 -1.47-2.82c-16.07 7.85-30.75 18.13-43.51 30.4l-32.38-32.38c16.34-15.86 34.79-28.78 54.65-38.61l-3.06-5.87c-20.79 10.33-39.78 23.77-56.29 39.78l-35.77-35.77c20.51-20.02 43.65-36.37 68.59-48.87l-3.08-5.89c-54.51 27.4-98.89 72.04-125.92 126.77l3.16 1.71 -3.16-1.71c-18.41 37.28-28.81 79.21-28.81 123.52 0 27.11 3.87 53.6 11.27 78.92l6.61-1.66c-6.95-23.72-10.75-48.51-11.05-73.87h50.48c0.31 21.15 3.57 41.82 9.55 61.54l6.55-1.65c-5.85-19.2-9.04-39.31-9.35-59.89h45.72c0.13 6.73 0.76 13.37 1.66 19.95 -3.21 0.35-6.25 1.39-6.25 1.39l-1.36 4.67c-3.1 0.57-5.05 5.64-5.05 5.64 -2.54 0.86-4.54 4-3.7 4.86 0.85 0.86-1.56 1.17-1.56 1.17v6.42l-1.36 1.95 0.39 6.8c1.7 0 1.36 3.31 1.36 3.31 -2.82 0.29-2.33 3.89-2.33 3.89l-5.83 2.14 -1.16 1.55 -7.39-0.19 -1.9 1.89c-0.62-1.84-1.29-3.66-1.86-5.53l-6.55 1.65c0.2 0.67 0.45 1.32 0.67 1.98h-8.43l-0.58-1.36 -2.72-0.58 -0.39-3.3 -4.28 0.39 -0.78 1.75 -4.47 0.19c0.29 2.87-4.5 7.17-5.05 6.03 -0.57-1.15-3.75-4.29-2.33-4.86 1.41-0.58 5.06-1.17 5.06-1.17v-1.94l-10.3-0.39 -1.16 1.75 -4.28 0.39v4.47l-1.94 0.58c-1.41 0.86 0.2 4.08 0.2 4.08 1.98 2-0.2 5.05-0.2 5.05 -1.7 1.73 1.36 5.06 1.36 5.06 2.26 0.57-1.36 2.14-1.36 2.14 0.56 2.87 2.13 3.7 2.13 3.7 -1.7 2.87 1.17 4.47 1.17 4.47l0.39 4.86 1.94 1.17v3.11l1.17 1.94h4.47l-0.39-7.19c-3.95-4.59 3.41-5.6 3.7-3.89 0.29 1.72 3.5 2.53 3.5 2.53 0.57 4.31 5.4 6.83 6.8 2.53 1.41-4.3 2.46-1.61 3.3 0.39 0.85 2.01 6.22 6.81 6.22 6.81h4.28l0.58 4.08c4.8-0.29 6.19 0.22 8.16 6.81 1.98 6.59 7.39 8.36 7.39 8.36l3.89-0.39c0-3.43 3.89 0.62 3.89 2.34 0 1.71 7.58 8.36 7.58 8.36l7.78 1.75 1.6 1.28c4.63 5.82 9.49 11.49 14.73 16.9l-35.7 35.71c-31.57-32.38-54.14-71.23-66.54-113.53l-6.61 1.66c13.01 44.53 37.02 85.35 70.74 119.07 22.84 22.84 48.94 41.22 77.24 54.77l3.35-5.95c-26.78-12.76-51.55-29.97-73.38-51.27l35.7-35.69c18.55 18.01 39.7 32.36 62.58 42.82l3.33-5.91c-22.35-10.15-43.03-24.14-61.14-41.69l6.61-6.6c0.35 0.63 0.64 1.41 0.77 2.42 0.56 4.3 2.53 3.5 2.53 3.5l16.14-0.39 5.64-4.86 14.39-0.2c7.35-0.28 2.77-10.5 1.36-10.5 -0.85-0.66-0.99-2.03-0.85-3.56 11.5 8.88 23.93 16.25 37.13 21.86l3.33-5.9c-15.82-6.64-30.51-15.94-43.73-27.42l-6.04-5.58 35.54-35.54c11.47 10.82 24.82 18.97 39.3 24.16 3.95 1.42 8.01 2.53 12.11 3.49 -0.72 0.64-1.12 1.24-0.96 1.66 0.56 1.43-2.34 2.92-2.34 2.92l-2.53 0.78 -1.75 2.53 -3.3 1.16 -0.58 6.03 -1.75 1.17v2.53l-1.94 0.58v1.56l-2.92 0.19 1.75 4.28 2.34 1.17c3.95 0.57 2.14 5.44 2.14 5.44l2.34 0.39 1.17 3.11 2.14 4.47c0.85 3.44 3.53 2.62 4.67 2.34 1.13-0.28 2.14 3.5 2.14 3.5l11.28 0.19c0 0-0.42 1.18 1.56 1.75 1.09 0.32 5.48 0.66 9.3 0.76v5.03c-20.89-0.41-41.13-4.74-59.89-12.61l-3.33 5.91c19.78 8.4 41.14 13.03 63.22 13.45v45.72c-30.08-0.46-59.14-7.07-85.79-19.16l-3.33 5.91c27.66 12.65 57.86 19.54 89.12 20v50.48c-40.1-0.48-78.8-9.57-114.02-26.35l-3.35 5.95C396.5 550.58 437.54 560 480.03 560c44.56 0 87.51-10.42 126.16-29.97l-3.19-6.18c-36.04 18.26-76.61 28.8-119.59 29.33v-50.48c20.58-0.3 40.68-3.45 59.91-9.14l4.93 1.5 1.56 4.66 2.14-0.39 1.75-1.36 6.8-0.39 3.31-3.11 3.69-0.58 26.39-22.45c14.75-8.79 28.59-19.31 41.21-31.57l35.6 35.6c-19.86 19.39-42.7 35.72-67.7 48.38l3.19 6.18c26.19-13.26 50.45-30.68 71.81-52.04 22.47-22.46 40.59-48.09 54.06-75.86l-0.02-0.06L725.95 398.75zM629.48 346.07c-7.71 17.36-18.33 33.14-31.29 46.7 -0.56-5.73-1.93-12.06-1.93-12.06l-2.14-1.16 0.58-6.81h-3.11l-5.06 6.61 -0.61 1.77 -2.92-2.92 1.4-1.57 -0.19-3.3 1.94-1.75v-2.92l1.75-0.58 0.2-6.22 1.55-0.39V347.67l-4.28-3.89c-0.28 1.43-4.86 1.36-4.86 1.36s-1.09 1.94-1.94 1.94c-0.85 0 1.15 2.74 0.58 4.47 -0.56 1.71-2.92 1.55-2.92 1.55l-4.28 1.17 -0.97 1.55h-4.66l-0.29-2.77c0.36-0.44 0.76-0.86 1.12-1.3l3.84-1.18 2.72-1.36 1.36-2.92c0.28-2.86 3.69-2.52 3.69-2.52s6.53-5.4 6.81-7.97c0.29-2.58 2.66-9.92 6.61-9.92h7.19c2.82-1.15 2.14-4.86 2.14-4.86l3.5-0.58 0.58 2.14c0 0 5.08 0.48 5.64-0.39 0.57-0.85 1.7-2.8 3.11-1.94 1.41 0.86 6.03-1.95 6.03-1.95 0.28-2 7.39-1.16 7.39-1.16l0.78-2.72c0 0-4.78-6.42-5.64-6.42 -0.84 0-5.46-4.15-6.02-2.72 -4.52-1.14-4.08-7.39-4.08-7.39l-1.75-4.08c0-2.3-4.21-7.18-5.05-6.61 -1.76-1.31-2.22-2.68-2.12-3.86h39.58C643.01 305.61 638.04 326.81 629.48 346.07L629.48 346.07zM474.94 296.92l1.17-1.36 -0.58-1.94c-2.26-0.86-1.22-2.91 0.2-2.33 1.41 0.58-1.94-2.52-1.94-2.52 -1.69 1.43-3.11-1.75-3.11-1.75h-4.28v-4.08l-0.58-3.69 -4.08-1.94 -3.11 2.71 -0.58 4.08v2.53l-2.92 0.58 -0.58 7.78 -2.14 0.97 0.2 2.72 -3.11 0.98 -3.11 0.78 -0.58 3.7 -2.14 1.55 -1.16 3.31 -1.34 8.24c-4.03-4.2-7.27-8.95-9.72-14.07 0.5-2.01 0.56-3.89 0.56-3.89 -2.54-1.14-1.07-5.19 1.75-1.75 2.82 3.43-1.75-6.81-1.75-6.81l-2.33-1.94 -2.79-0.37c-0.43-2.75-0.71-5.55-0.71-8.4 0-1.19 0.1-2.37 0.17-3.56 0.82-0.71 1.76-0.31 1.76-0.31l1.56 1.36 2.72 1.94 0.2 1.75 -1.75 0.98 -0.2 2.34 0.78 3.11h2.34c0.85-4.59 6.67-4.62 8.36-1.75l1.75-4.08c-3.95-2 0.03-5.13 1.16-3.7 1.13 1.43 3.7-3.7 3.7-3.7s0.53 0.56 0.78 0.78c-0.09-0.24-0.28-0.69-0.78-1.55 -1.98-3.44 1.36-5.25 1.36-5.25 -0.56-3.44 3.7-2.92 3.7-2.92l0.2-4.47 -3.89-0.39c-0.84 4.01-4.22 0.67-2.53-0.2 1.7-0.86 3.31-2.72 3.31-2.72v-2.72l1.75-0.58 0.39-2.92h4.09l3.7-1.75 0.98-1.36 3.89-0.39 5.64-5.06 -0.58-2.33c-3.39 0 0-2.52 0-2.52l0.58-4.28h-3.11l-0.56-6.1c3.85-0.91 7.81-1.43 11.85-1.47l0.56 6.79 -3.11-0.97h-1.94l-0.97-1.75 -1.56-0.2v6.22l1.56 1.36 1.56 1.55 2.72 0.2 0.58 3.5 7 0.2 0.97 1.55 4.28 0.2 8.16 8.36 -0.58 2.53 -1.36 0.97c0.58 2.01-3.69 0.78-3.69 0.78v1.75l1.94 0.2 1.95 1.17 2.92-4.86c3.11-2 4.37 0.81 4.67 2.53 0.29 1.72-1.35 1.56-1.35 1.56v3.89l1.75 0.58c2.83 3.44-1.17 5.44-1.17 5.44l-0.78 2.92c-0.85 2.58-4.08 1.94-4.08 1.94l-1.16 1.75 -3.3 0.97 6.61 0.78c0.64-2.3 2.45-2.9 3.31-1.75 0.85 1.15 0.78 3.3 0.78 3.3l1.75 0.2 -0.39 3.11 1.75 0.58v9.14l1.95 2.34c3.38-1.43 3.45 0.8 1.75 1.94 -1.69 1.14-0.58 6.42-0.58 6.42l-1.36 1.36v2.34l-1.75 1.17v3.11c-2.83-1.43-6.15-0.86-7 0 -2.54-1.72-7.97-1.05-7.97 0.39 1.69 2.3-1.94 2.72-1.94 2.72l-1.95 2.34c1.42 2.87-1.36 3.11-1.36 3.11v5.44l-3.51 3.31 0.26 4.97c-1.75 0.17-3.52 0.27-5.31 0.27 -13.24 0-25.7-4.78-35.54-13.46 0.19-0.1 0.38-0.25 0.54-0.52 1.41-2.29 3.7-2.53 3.7-2.53l0.78-1.94 7.58 0.19c0.57-3.15 4.28-2.01 4.28-0.58s2.92 0.39 2.92 0.39l1.94-3.11h3.11l0.2-3.5 1.56-0.97v-5.05C475.58 301.32 474.94 296.92 474.94 296.92zM367.3 272.9c-0.45 0.88-0.85 1.46-0.85 1.46 -0.33 0.5-0.5 1.33-0.6 2.24H355.12l0.05-0.3 -3.11-0.2c-3.39-2.01-1.75-9.52-1.75-9.52 5.37-8.03 11.67-3.5 11.67-3.5l3.89-0.2c1.05 0.71 1.65 1.54 2.08 2.4C367.62 267.8 367.46 270.35 367.3 272.9zM427.5 234.89c-1.13 2.58-3.89-0.39-3.89-0.39 -0.56-1.72-4.66 0-4.66 0 0 3.15-5.25-1.36-5.25-1.36l-9.92-7.2c-5.65-5.16-14.11 1.48-14.39 2.92 0.15 2.17-1.78 2.21-3.6 1.79 4.43-8.43 10.02-16.31 16.7-23.41l27.75 27.75L427.5 234.89zM414.86 287.58l0.97-1.75 0.52-2.48h3.21c0.11 2.04 0.35 4.07 0.67 6.05l-1.86 0.51 -0.58-1.16 -0.78 3.11h-5.06l-0.2-3.5L414.86 287.58zM542.04 128.65c13.73 5.62 26.65 13.18 38.48 22.45 0.29 2 2.53 2.91 2.53 2.91l1.08 0.1c1.02 0.85 2 1.75 3 2.62v2.15c1.98-0.5 5.02 1.75 5.57 3.67l-35.18 35.19c-10.05-9.46-21.53-16.89-33.93-22.07l0 0c-12.61-5.27-26.2-8.22-40.21-8.63v-50.48C503.81 116.95 523.62 121.11 542.04 128.65L542.04 128.65zM501.77 338.33l1.36 0.58 -2.52 1.94 -2.34 2.53 -2.72-0.78 -3.5-0.39 -0.97-1.94 -2.14-0.19 -0.19 3.89 -1.36 1.75 -3.5 3.5c3.6 0 1.22 1.96-0.49 2.75v-11.51c3.65-0.2 7.23-0.74 10.73-1.57 0.38 0.35 0.64 0.61 0.64 0.61h2.53l0.11-1.51c1.32-0.39 2.63-0.85 3.92-1.33C501.39 337.46 501.77 338.33 501.77 338.33zM521.12 181.94c11.56 4.84 22.25 11.76 31.62 20.56l-1.84 1.85c-0.96-0.91-4.02-1.51-4.02-2.51 0-0.86-1.47-1.83-2.14-1.56 -0.22 0.09-0.46 0.35-0.39 0.78 0.28 1.72-1.95 2.51-2.52 1.94 -0.56-0.58-2.34 1.75-2.34 1.75 0 0.86-0.52 2.04 1.17 2.34 1.7 0.28 4.78-1.14 5.05 0.58 0.1 0.58 0.19 1.08 0.32 1.54l-11.01 11.02c-1.55 0.1-3.11-0.11-3.11-0.11 -0.85 2.58-4.82-0.22-3.69-1.94 1.13-1.72 1.17-2.92 1.17-2.92l-1.36-0.2 -1.75 3.11c-3.95 0-5.13 2.26-4.28 3.7 0.85 1.43-0.98-0.25-1.56 1.75 -0.56 2 0.25 2.06 1.95 2.92 1.7 0.86-0.94 0.9 0.19 2.34 0.74 0.94 2.4 0.64 2.94 0.86l-2.08 2.08c-1.94 0.65-4.17 0.17-4.17 0.17 -0.06 0.59-0.41 1-0.88 1.29 -4.55-3.74-9.52-6.79-14.85-9.04 0.87-0.66 2.38-0.56 3.1-2.55 1.14-3.15 1.55-8.36 1.55-8.36s-1.16-0.11-2.33 0c-1.17 0.11-2.19 0.45-2.34 1.17 -0.28 1.43-3.11 2.34-3.11 2.34s-2.41 0.8-1.55 1.94c0.85 1.15-1.56 1.75-1.56 1.75s0.12 0.77 0.02 1.51c-4.5-1.34-9.16-2.18-13.94-2.45v-45.79C496.54 174.18 509.27 176.98 521.12 181.94L521.12 181.94zM550.96 222.84c-1.97 3.74-6.28-0.39-6.05-3.03l7.41-7.42c0.45 0.05 0.91 0.15 1.36 0.15 1.69 0 5.44-0.58 5.44-0.58s1.55 0.22 2.9 0.59c1.36 1.65 2.68 3.31 3.93 5.02L562.44 217l-2.14-0.2 -4.28-0.39C551.79 219.29 550.96 222.84 550.96 222.84zM501.24 329.47c-1.66 0.72-3.36 1.36-5.1 1.9v-6.26l2.72-3.11C501.81 321.01 501.39 327.25 501.24 329.47zM543.38 373.61c0.16-0.11 0.35-0.21 0.51-0.32l6.69 3.35c0.85 1.14 4.47 0.98 4.47 0.98l1.17 1.36c0 0 2.28-0.36 3.7 1.36 1.41 1.72 8.75 0.39 8.75 0.39l1.94 1.75 3.11 1.17 5.27 0.12 3.23 3.23c-5.08 2.37-15.43 1.6-16.08 0.93 -0.85-0.86-6.8-3.5-6.8-3.5s-4.4-3.67-5.25-2.52 -4.86-1.44-4.86-0.58c0 0.86-3.69-1.95-3.69-1.95l-5.64-2.14 4.28-0.78L543.38 373.61zM569.05 224.78c0.85 4.31 2.23 6.03-0.58 6.03 -2.83 0-3.5-2.33-3.5-2.33s-2.14-0.76-2.14 0.39c0 1.15-0.85 3.33 0 4.47 0.84 1.15-1.29 3-2.14 2.14 -0.83-0.86-3.1-3.61-2.52-4.47 0.56-0.86-3.94-6.14 0.58-7 4.52-0.86-0.14-3.51 1.56-4.08l2.14-1.16h2.33l1.27-1.08c1.11 1.52 2.18 3.08 3.2 4.66C568.97 223.04 568.87 223.86 569.05 224.78zM486.22 367.49l6.42-1.36c0.56-2.87 3.5 0.58 3.5 0.58 2.83-0.29 3.31 1.55 3.31 1.55l3.7 0.58c3.1 0.86 1.18 1.2 1.36 2.34 0.28 1.71 1.75 1.17 1.75 1.17l0.58-3.69 1.75 0.19 -1.75-1.94 -3.11-1.36 -3.31-1.56c-2.26-3.15 0.47-2.43 2.72-2.14h3.69c0 0 4.28 5.57 4.28 7s1.94 1.76 1.94 1.76l2.53-0.19 0.78 1.94h2.53l0.98 1.75h5.05l0.19-2.53 -4.66-0.97 -0.39-2.72 -3.3-0.97c-1.13-4.87 0.73-6.38 2.14-4.08l1.75 0.39 -0.58-4.28 1.95-0.58 -0.58-6.03 -1.55-0.58v-1.94l7 0.19c-0.56-3.73 0.39-5.44 0.39-5.44h1.94l0.2 1.55 8.75 0.78h0.39c3.39 2 1.71 4.48 0.58 5.05 -1.13 0.57-3.11 0.58-3.11 0.58l-0.58 1.17 -7.39 0.58 -0.58 2.92c-3.67-0.58-5.13 3.44-4.28 5.44 0.85 2.01 0 3.7 0 3.7l3.11 1.55 4.08-1.16c0.58-2.87 2.99-3.54 5.25-5.25 2.26-1.72 5.99 3.15 4.86 5.45 -0.13 0.28-0.21 0.47-0.32 0.69 -4.33 2.98-8.88 5.65-13.64 7.97 -7.49 3.65-15.49 6.34-23.82 8.16 -0.09-0.06-0.15-0.11-0.15-0.11l-3.11-0.97 -0.19-4.28c-0.57-2.87-5.92-2.78-5.64-0.78 0.27 1.95-9.68 0.85-10.21 0.79v-7.88L486.22 367.49zM483.4 436.73c1.86-1.37 7.16-1.45 9.63 0.37 3.1 2.28 7.39 0.97 7.39 0.97l3.01 3.72c-6.56 0.95-13.23 1.55-20.02 1.69V436.73zM609.29 276.58c0.35-0.49 0.59-0.85 0.59-0.85l1.36-3.89 4.86-1.56 0.58-3.7 -2.52-0.2c0 0 2.86-5.25 4.28-5.25 1.42 0 10.64-0.01 11.48-0.58 0.85-0.57 2.53-5.17 2.53-6.02s2.27-1.07 3.11-1.36c0.85-0.28 2.94-2.55 3.5-3.7 0.56-1.15-1.4-8.34-2.53-7.2 -1.13 1.15-3.69 1.75-3.69 1.75l-0.97 3.11 -1.36 1.17c0 0 0.28 0.91 0 2.92 -0.28 2.01-2.72 3.11-2.72 3.11l-1.16 1.36c0 0-6.77 0.36-7.58 0 -2.54-1.15-0.92-4.56 0.78-4.28 1.69 0.29-0.19-4.86-0.19-4.86l2.14-0.2c0 0 0.32-5.25 1.17-5.25 0.85 0-0.23-1.67-1.36-2.53 -1.12-0.86-2.56-3.79-3.69-3.5 -1.13 0.29-5.64 0-5.64 0l-0.97 1.75 -3.11 0.58c0 0 0.35 2.27-0.2 2.92 -1.7 2.01-8.27 6.19-5.44-0.97l0.98-1.75v-2.53l-5.06-0.2c0 0-2.52-0.99-2.52-2.14s-0.39-2.53-0.39-2.53l-5.83-6.61 -7.19-0.78 -0.58-1.55 -4.08-0.58c-0.69-0.35-1.37-0.59-2.03-0.77 -1.95-3.12-4.07-6.15-6.34-9.09 -0.07-0.22-0.15-0.48-0.18-0.64 -0.25-1.02-3.43-5.46-5.11-5.56 -0.64-0.72-1.2-1.49-1.86-2.19l35.13-35.12c1.18 1.08 1.02 1.51 2.57 2.63 0.53 0.38 1.04 0.58 1.53 0.66 0.95 1.05 1.89 2.1 2.81 3.16l-0.64 0.85c0 3.24 1.51 2.32 3.02 2.02 0.48 0.58 0.98 1.17 1.45 1.75 0.13 1.9 0.17 4.57 3.12 4.19 0.03 0 0.05 0 0.07 0 3.7 4.97 7.11 10.12 10.2 15.44l0.03 0.12h0.03c0.49 0.83 0.95 1.68 1.42 2.53 -0.56 0.58-0.87 1.17-0.87 1.17l-4.66 0.58v4.67l-2.14 0.78 0.2 2.92 3.11-0.39c0 0 0.12 3.57 0.98 2.14 0.85-1.43 7.77 0.25 7.19 3.7 -0.23 1.41 7.07 5.14 6.22 9.72 0.56 0.08 0.98 0.26 1.35 0.46 1.36 3.94 2.59 7.91 3.65 11.96l-0.53 1c0 0 0.4 0.24 0.95 0.72 0.95 3.77 1.8 7.57 2.47 11.42 -0.27 2.94-0.98 5.66-2.45 6.53 -3.39 2.01 0.2 0.78 0.2 0.78l-0.58 6.42c0.85 2.87 2.26 1.43 3.11 0 0.45-0.76 0.93-1.19 1.45-1.63 0.43 4.3 0.75 8.62 0.84 12.99h-34.19V276.58zM647.99 250.06c-0.84-0.86 0.98-4.86 0.98-4.86s1.13-2.37 0-4.66c-1.12-2.3 0.12-4.88 0.98-6.02l-2.14-1.16 -2.34-0.2 -1.71 0.26c-0.51-1.79-1.13-3.53-1.7-5.3l0.1-0.21 1.36 0.39v-1.75l-2.23-0.69c-0.35-1.05-0.7-2.11-1.06-3.16l-0.4-6.25 -1.94-1.36 0.58-2.33 -2.33-0.78 1.17-3.89 -1.94-3.89h-2.88c-1.35-2.73-2.78-5.43-4.28-8.09 0.27-0.16 0.6-0.32 1.13-0.46 1.56-0.43 2.16-0.62 2.34-0.58l-0.2-2.92 -2.52-1.75 -0.97-3.5c0 0-2.99 0.62-2.72 2.34 0.07 0.41-0.17 0.72-0.58 0.98 -1.97-3.16-4.03-6.28-6.2-9.32 0.06-0.13 0.11-0.27 0.18-0.41 1.13-2 0.62-3.31-1.36-3.89 -1.98-0.58-1.97-0.43-2.52-2.72 -0.56-2.29-2.92-2.92-2.92-2.92l-0.78-3.5 -2.13 1.34c-1.09-1.26-2.23-2.49-3.36-3.72l1.02-3.26c-1.14-0.23-1.66-0.93-1.97-1.66l8.81-8.81c3.94 2.32 6.87 7.73 6.38 8.73 -0.57 1.15 3.31 0.78 3.31 0.78 0.57-5.16 5.36-3.47 5.64-1.75 0.29 1.72 1.17 5.44 1.17 5.44l1.36 2.72 2.14 1.94 3.11-0.39 0.78 1.75 3.7 0.58c0 0 3.02 3.42 3.3 4.28 0.29 0.86 4.51 0.69 5.64 0.97s2.83 1.1 3.11 2.53c0.29 1.43 2.14 3.7 2.14 3.7s3.21 0.99 3.5 2.14c0.28 1.15 1.75 3.7 1.75 3.7l2.92 2.34 0.2 2.53 3.11 0.2 0.78 3.5 5.25-0.39 2.72-1.94c0.85-0.46 1.64-0.96 2.37-1.46 1.03 2.35 2.06 4.69 3 7.07l0 0c9.53 24.02 14.74 49.77 15.15 76.32h-45.71c-0.16-8-1.02-15.86-2.26-23.64C648.25 251.67 648.45 250.52 647.99 250.06zM733.41 177.64c12.54 31.07 19.34 64.48 19.76 98.94h-50.49c-0.41-27.48-5.81-54.14-15.69-78.98l0 0c-1.42-3.56-2.93-7.08-4.55-10.56 0.42-1.56 1.22-3.26 3.07-2.69 2.82 0.86 0.98-6.22 0.98-6.22s-3.97-2.84-3.69-4.28c0.28-1.43-3.98-4.29-3.7-5.44s-3.58-3.52-3.3-4.66 -2.14-4.28-2.14-4.28l-4.08-4.08 -0.58-2.53 -3.5-0.39 -6.8-8.16 0.39-2.33 -1.94-0.39v-3.11l-1.95-1.16 -3.11-0.2 -6.22-7 -0.58-3.11h-3.11l0.48-4.89 32.9-32.91C700.77 115.04 720.25 145.05 733.41 177.64zM483.37 6.82c34.38 0.42 67.74 7.2 98.76 19.68l0.01-0.03c32.65 13.16 62.72 32.65 88.63 57.94l-30.25 30.26c-1.08 0.27-2.22 0.41-3.02 0.06 -1.98-0.86 0.97-2.92 0.97-2.92v-2.33l-1.75-1.75c0 0-4.78 0.67-5.05-0.2 -0.28-0.86-1.16-4.66-1.16-4.66l-0.2-4.86 -1.94-0.78 -0.39-1.75 -3.11 0.39v-3.5l-1.75-0.58 -1.56-0.78 -0.39-3.5 -6.22-0.39 -1.94-2.72 -2.34-3.5 -7-0.58 -1.75-1.75 -2.72-0.58 -1.94-0.78 -0.99 1.36 -5.25 0.39 -0.39 1.56c-1.69 0.86-6.39 0.8-9.96 0.8 -5.56-2.82-11.22-5.44-16.99-7.78l-2.46 6.28c4.69 1.9 9.27 4.02 13.82 6.25 -0.32 0.94-0.71 1.65-1.3 1.65 -1.41 0-0.78 3.7-0.78 3.7s3.73 0.11 4.86 0.39c1.13 0.28 0.97 3.11 0.97 3.11 4.25-0.29 6.02 5.57 5.45 7s1.75 1.36 1.75 1.36 -0.01 4.49-0.58 5.64c-0.56 1.15 3.54 2.17 4.66 3.89 1.13 1.72-0.51 7.3-1.35 7.58 -0.85 0.29 2.22 1.29 1.94 2.72 -0.28 1.44 0.89-0.15 1.17 2.14 0.29 2.29 0.98 7.2 0.98 7.2l3.89 0.39c0.58-3.73 7.76-3.93 8.95-3.5 4.8 1.72 8.55 9.17 8.55 10.89s-3.11 1.94-3.11 1.94l0.14 1.9 -9.97 9.97c-1.01-0.6-2.02-0.95-2.6-0.6 -1.41 0.86-0.78-6.02-0.78-6.02s2.56-1.83 3.69-0.97c1.13 0.85-9.6-14.27-11.86-12.84 -2.26 1.43-7.47-1.3-7.19-3.89 0.28-2.58-10.11-11.28-10.11-11.28s-1.92-1.25-3.11-1.16c-0.4 0.03-0.63 0.15-0.78 0.58 -0.56 1.72-1.7 2.84 0 3.7 1.69 0.86 1.33-1.42 3.31 0.58 1.98 2.01 5.69 4.69 4.28 6.42 -1.41 1.73-3.11 2.14-3.11 2.14l1.94 2.34h3.11l0.58 4.86c0 0 3.42 1.69 4.28 3.7 0.57 1.35 0.61 2.34 0.42 3.21 -6.28-4.8-12.86-9.1-19.67-12.95 0.12-0.63 0.14-1.24 0-1.74 -0.56-2 2.28-2.68 3.7-0.39l2.72-0.39 0.58-2.53 -3.89-3.11h-3.11c0 0-0.35 2.22-2.33 1.36 -1.98-0.86-0.83-0.49-2.52-0.78 -1.49-0.25-1.18 2.8-0.89 4.32 -4.37-2.25-8.8-4.35-13.35-6.21 -19.19-7.85-39.83-12.16-61.13-12.58V84.62c1.79 0.02 2.65-0.62 2.85-1.38 0.28-1.15 0.63-1.47 2.33-1.75 1.69-0.28-0.45-3.78-2.14-3.5 -1.25 0.21-2.4-0.17-3.03-0.96V64.06c27.1 0.42 53.39 5.82 77.83 15.73l2.46-6.28c-25.23-10.22-52.34-15.79-80.3-16.2V6.82H483.37zM408.68 132.8L408.68 132.8c20.97-10.18 44.02-15.8 67.95-16.28v50.49c-15.86 0.47-30.92 4.23-44.5 10.6l3.1 5.93c12.85-5.97 26.88-9.34 41.41-9.78v45.8c-5.94 0.33-11.63 1.56-16.98 3.48h-0.25l-0.2-3.11 1.36-0.97 -2.33-0.78 -1.75 2.34 -0.39 2.53 -2.92 0.58v1.36h-1.94v1.8c-4.17 2.26-8.05 4.97-11.55 8.11l-32.4-32.4c8.37-7.86 17.8-14.23 27.96-18.94l-3.1-5.92c-10.93 5.13-20.9 11.95-29.6 20.13l-35.73-35.73C379.33 149.97 393.45 140.19 408.68 132.8zM397.76 202.51c-7.4 7.86-13.62 16.82-18.56 26.54 -1.27-0.03-2.48 0.2-2.83 1.17 -0.84 2.29-4.47 1.75-4.47 1.75l-0.58 1.17 -2.92 0.58 -0.58 1.75 -3.3 0.39 8.56-0.2c2.26-0.29-0.92 4.95-2.33 4.67l-3.89 0.2 -1.56 1.36h-3.7l-1.55 2.34 -5.44-0.2c0 0-3.01 2.45-2.72 3.3 0.28 0.86-0.71 3.5-1.56 3.5 -0.85 0-2.51 2.64-1.94 3.5 0.57 0.86-1.75 3.7-1.75 3.7l-0.39 2.92 -1.75 0.58v7.58l-3.5 2.34v3.5l-1.54 1.66h-22.91c0.45-22.71 5.55-44.66 14.78-64.76l0 0c7.54-16.44 17.85-31.66 30.71-45.06L397.76 202.51zM336.51 285.05l-4.28 4.47 0.58 4.67 -2.53 0.78 -0.58 1.94 -0.97 6.03 2.72 0.39c1.41-0.57 1.13 3.71 0 4.28 -1.14 0.57-4.23 1.77-2.53 2.92 1.7 1.15-4.47 0.75-4.47-0.97 0-1.71-3.43-3.1-4.28-2.52 -0.46 0.31-1.1-0.46-1.6-1.24 -1.17-7.36-1.89-14.85-2.04-22.44h19.76L336.51 285.05zM257.33 276.61h-50.5c0.49-41.23 10.13-80.97 27.84-116.98l0 0c12.6-25.64 29.27-49.4 49.78-70.42l35.77 35.77c-16.64 17.15-30.55 36.95-41.01 58.71l0 0C265.64 211.89 257.83 243.37 257.33 276.61zM264.07 276.61c0.48-31.57 7.72-62.04 20.99-89.76l0 0c9.97-20.84 23.35-40.13 39.87-57.16l32.39 32.38c-13.05 13.58-23.85 29.32-31.85 46.61l0 0c-9.61 20.74-15.19 43.72-15.66 67.93H264.07zM317.3 421.94h1.13c1.41-4.88 8.19 0.22 8.75 1.95 0.22 0.66 1.02 1.51 1.96 2.23l-4.19 4.18C322.3 427.58 319.77 424.77 317.3 421.94zM362.03 393.19c-2.3-2.4-4.51-4.86-6.65-7.38 0.42-1.82 1.55-3.73 1.55-3.73 3.67-2.3-0.97-6.02-0.97-6.02 0.57-3.44-1.94-7.39-1.94-7.39 -5.08-3.44-3.7-10.11-3.7-10.11v-4.47c-4.23-4.01 1.75-4.66 1.75-4.66 1.98-3.43-1.36-6.03-1.36-6.03l-0.39-3.69 -4.47-0.58 -0.58-13.42 -10.11-14.58c-1.98-0.58-0.58-4.08-0.58-4.08 2.54-1.43-0.58-4.86-0.58-4.86l-0.2-6.22 5.84-0.58 1.36-2.33h2.92l-0.39-7.58c0.51-1.34 1.28-1.9 2.06-2.1h1.38c0.81 0.17 1.42 0.54 1.42 0.54l3.89 0.2 0.4-0.73h13.48l1.09 7.34 -3.5 3.11c-3.11 1.73-3.2 5.75 0.2 6.61 2.26 0.28 1.45 5.68-1.94 1.95 -3.72 0-0.53 2.64 0.58 3.5 5.09 2.58 3.89-2.33 3.89-2.33l2.56-2.06c1.09 5.66 2.58 11.19 4.5 16.57l0 0c5.19 14.54 13.35 27.94 24.21 39.45L362.03 393.19zM402.49 352.72c-10-10.63-17.56-22.97-22.42-36.34l0 0c-2.17-5.96-3.73-12.16-4.8-18.48 2.37 0.89 4.98 4.77 4.98 5.43 0 0.86 11.28 0.2 11.28 0.2 3.11 2.01 4.28 7.2 4.28 7.2 3.11-4.02 9.67-0.35 4.86 1.94 4.51 2.87 4.47 5.45 4.47 5.45 3.67-1.14 3.7 1.86 3.7 2.72 0 0.86 1.17-4.28 1.17-4.28 -4.24-3.15 5.54-4.37 2.72 1.36l-1.56 2.53 2.72 2.34 0.39 6.61c6.22-0.58 4.47-8.36 4.47-8.36l2.72-0.58c0-2.58 2.14-1.16 2.14-1.16 -1.36-6.7 1.24-9.57 3.02-10.73 2.26 4.2 5 8.16 8.24 11.78L402.49 352.72zM407.29 357.53l32.39-32.39c9.86 8.85 22.14 14.08 35.28 15.16l-0.02 0.17c0 0-1.07 2.49 0.2 2.92 1.23 0.41 0.95 0.7 1.52 1.31v0.12l-0.74 1.48c-1.05-1.42-1.61 0.91-0.97 1.55 0.64 0.64-1.56 0.31-1.56 1.17 0 0.86-0.64 1.32 0 1.75 0.64 0.43-0.12 0.72-0.97 1.35 -0.85 0.65 3.5 0.78 3.5 0.78s-0.86-1.75 0.2-1.75c0.23 0 0.36 0.01 0.54 0.01v2.79c-0.38-0.09-0.72-0.15-1.13-0.27v2.14l-2.33 0.2 1.94 2.33 1.52 0.13v5.03c-0.22 3.53-9.43 1.12-10.27 0.28l-0.19 5.05 -1.75 0.39 0.39 3.5 -0.39 4.86 3.11-0.58v1.95l7.58 0.39 1.52-1.62v5.52l-5.21 0.58 -2.14 1.17 -0.97-1.75h-2.14l-1.43 1.9c-6.69-0.97-13.25-2.49-19.57-4.68C431.22 375.64 418.33 367.9 407.29 357.53zM483.4 450.22c7.9-0.15 15.69-0.9 23.36-2.11l0.65 1.43 4.86 1.36 3.31 0.78 1.17 5.05 2.53 0.2 0.78 3.11c3.11 2.29-0.78 7.19-0.78 7.19v6.42l2.14 0.97 -0.2 2.34 3.7 3.7 4.28 0.39 6.93 7.43c-16.85 4.55-34.5 7.19-52.72 7.47V450.22zM596.08 461.86v-2.59c5.08-3.72 5.38-10.32 0.58-10.89 -3.64-0.44-2.03-4.3 1.36-4.86l1.95-0.97v-2.52l6.61-6.02v-4.48l-14.19-11.86c-2.91-1.07-3.03-4.66-1.96-8.15 2.56-2.19 5.13-4.39 7.58-6.75l12.44 12.43c-0.56 2.13-2.55 3.32-3.67 2.46 0.44 0.49 1.56 1.75 1.95 2.53 0.56 1.14 2.34 1.14 2.92 0 0.38-0.77 0.35-2.16 0.45-3.34l5.79 5.78c-0.77 1.5-1.51 3.01-1.19 3.98l2.53 1.17 0.39 4.86c1.89 1.92 6.11 1.82 9.5 1.23l1.15 1.15C619.85 445.1 608.35 454.03 596.08 461.86zM635 430.18l-1.16-1.16c-0.17-3.11-0.43-7.27-0.43-7.27l-1.55-1.56 -0.2-7.19c0.99-3.26-3.84-7.85-5.45-8.16 -0.23-0.05-0.31 0.04-0.39 0.19 -0.56 1.14-4.28 0.41-4.28 1.56 0 1.14-2.3 6.74-1.16 8.75 0.07 0.13 0.05 0.21 0.1 0.32l-17.73-17.72c13.85-14.4 24.84-30.82 32.77-48.57h-0.01c9.19-20.56 14.26-42.9 14.71-66.03h45.71c-0.49 31.38-7.73 61.15-20.28 87.95h0.01C665.4 393.14 651.62 413.04 635 430.18z"/><polygon fill="#010101" points="528.03 22.57 528.41 22.37 531.53 20.23 530.75 18.87 528.03 20.63 526.27 19.46 525.3 20.82 527.63 22.37 "/><polygon fill="#010101" points="541.44 27.63 539.89 26.07 538.72 27.23 540.67 29.37 541.24 29.96 541.83 29.37 544.74 27.04 543.58 25.68 "/><path fill="#010101" d="M535.03 31.51c-1.41 0.58-4.28 0.39-4.28 0.39h-5.06c-0.13-1-1.32-1.28-2.52-1.16 -1.2 0.11-2.39 0.59-2.53 1.17 -0.28 1.15-1.95 1.36-1.95 1.36l-6.42 0.58c-0.58 1.72-3.99 2.9-4.28 1.75 -0.62-2.52-4.27 3.13-0.58 4.28 3.67 1.15 7.39 0 7.39 0l0.78-1.75 14.2 0.39c1.14-1.15 1.55-2.92 1.55-2.92s3.45-1.16 4.86-0.58C537.61 35.58 536.44 30.94 535.03 31.51z"/><path fill="#010101" d="M504.89 45.9V42.79l-1.16-1.16 -1.17-4.08 -3.69-1.16 -3.7 1.56 -3.89 2.53L487 41.04l-2.14 2.53 8.94 0.98 1.75 2.72 6.42 0.58 4.28 4.47c3.68 1.15 4.59-0.72 2.33-2.72L504.89 45.9z"/><path fill="#010101" d="M609.68 77.79l4.28 1.36c0 0 5.25 6.19 5.05 3.11 -0.56-8.6-4.61-8.78-6.02-10.5 -0.35-0.43-0.98-0.76-1.75-0.78 -2.29-0.04-5.58 1.61-5.25 3.3C606.27 75.72 607.42 77.21 609.68 77.79z"/><polygon fill="#010101" points="524.33 75.26 522.77 74.48 521.61 77.01 523.17 77.79 "/><path fill="#010101" d="M533.08 80.12l-1.94-1.55c0 0-3.11-0.31-3.11-1.16 0-0.67-1.51 1.99-2.72 2.72 1.36 0.71 2.92 1.56 2.92 1.56 2.26 0 3.7 1.86 3.7 2.72 0 0.86 3.11 0.58 3.11 0.58l0.39-2.14L533.08 80.12z"/><polygon fill="#010101" points="518.89 79.54 518.5 79.54 515.58 79.15 515.58 80.9 517.91 81.09 519.67 84.01 521.03 83.04 519.08 79.92 "/><path fill="#010101" d="M524.33 80.12c0.14 0.11 0.41 0.03 0.58 0 -0.51-0.26-0.98-0.73-1.16-0.78C523.51 79.29 523.59 79.57 524.33 80.12z"/><path fill="#010101" d="M454.53 91.59c0.29 0.86 3.22 1.05 3.5 0.2 0.28-0.86 1.37-2.53-1.16-2.53 -2.54 0-2.07-1.47-2.92-2.33 -0.43-0.43-1.96-0.63-3.5-0.58 -1.55 0.05-3.02 0.27-2.92 0.78 0.28 1.43 2.53 3.3 2.53 3.3S454.25 90.73 454.53 91.59z"/><polygon fill="#010101" points="522 89.26 522 91.79 525.1 91.98 524.33 89.84 "/><path fill="#010101" d="M554.08 116.68c-1.41 0-4.06-1.77-3.5-2.92 0.57-1.15-4.86-2.14-4.86-2.14s-4.8-4.66-3.11-4.08c1.7 0.57 0.98-1.94 0.98-1.94s-3.43 0.48-4.28 0.2c-0.85-0.29-0.58-2.92-0.58-2.92s-1.97-0.32-2.92-0.2c-0.32 0.04-0.39-0.02-0.39 0.2 0 0.86 1 1.01 1.55 2.72 0.58 1.72 0.37 4.48 2.92 5.05 2.54 0.58 3.01 1.19 3.3 2.34 0.28 1.15 3.5 1.36 3.5 1.36l2.14 1.17 6.8 5.84v-2.33C555.63 119.01 555.49 116.68 554.08 116.68z"/><polygon fill="#010101" points="381.03 107.54 382.39 106.37 380.64 104.62 379.48 105.98 "/><polygon fill="#010101" points="433.72 159.65 431.97 158.09 430.8 159.45 432.56 161.01 "/><path fill="#010101" d="M430.03 162.56c1.7 0-1.36-1.94-1.36-1.94s-2.65 0.13-3.11-0.78l0.2 2.72H430.03z"/><polygon fill="#010101" points="611.63 160.04 611.82 162.75 613.57 162.56 613.38 159.84 "/><path fill="#010101" d="M633.02 181.23l2.92-0.97c0 0 0.16-2.81-0.97-1.94 -1.12 0.86-1.98-2.04-3.11-1.75 -1.13 0.29-1.6-1.1-2.72-2.53 -1.14-1.43-0.92-1.67-2.33-2.52 -0.71-0.43-1.16-0.62-1.55-0.58 -0.39 0.03-0.58 0.2-0.58 0.78 0 1.15 1.35 1.68 0.78 3.11 -0.56 1.43 0.62 2.72 1.75 2.72 1.13 0 1.98 0.59 3.11 1.17C631.43 179.27 632.16 180.08 633.02 181.23z"/><path fill="#010101" d="M640.99 199.31c0 0.86 1.75-3.11 1.75-3.11 -1.42-1.15-2.53-3.89-2.53-3.89s-1.55-3.9-1.55-4.47c0-0.58-1.87-1.27-2.72-1.56 -0.85-0.29-2.33-2.72-2.33-2.72l-3.31 0.2c0.85 1.15 2.53 1.97 2.53 3.11 0 1.15-0.53 2.04 1.17 2.34 1.69 0.29 2.74-0.27 3.31 1.17 0.56 1.43 0.67 3.71 0.39 4.86 -0.28 1.15 0.15 2.92 1.56 2.92S640.99 198.45 640.99 199.31z"/><polygon fill="#010101" points="606.96 186.28 606.77 184.53 603.86 184.92 604.05 186.67 "/><rect x="608.52" y="186.67" fill="#010101" width="1.75" height="1.36"/><path fill="#010101" d="M607.74 208.45c0 0-3.5 0.94-6.61-0.78 -3.1-1.72 0.6-2.33 1.17-2.33 0.58 0 3.08-2.07 1.95-3.5 -1.13-1.43 0-4.07 0-2.92s3.13 1.83 3.69 0.98c0.57-0.86 0.06-3.42-1.35-4.28 -1.41-0.86 2.49-1.48 1.35-2.92 -1.12-1.44-1.75-3.11-1.75-3.11s-1.66 2.31-5.05 1.17c0 0-0.44 5.26-2.14 6.42h-4.08c0 0 0.91 1.47 1.75 2.34 0.85 0.86 2.76 2.55 0.78 3.7 -1.98 1.14 0.39 0.97 0.39 0.97s-0.38 5.92-2.92 5.06c-2.54-0.85-3.3 3.13-3.3 4.28s9.92 1.59 8.36 0c-0.85-0.86 1.17-2.72 1.17-2.72s6.76 0.58 8.16 0.58c1.41 0 2.6-0.32 1.75-1.75C610.2 208.18 607.74 208.45 607.74 208.45z"/><rect x="611.82" y="198.15" fill="#010101" width="1.75" height="1.94"/><polygon fill="#010101" points="617.27 199.89 615.72 199.11 614.93 200.87 616.29 201.65 "/><path fill="#010101" d="M650.32 224.58c-1.41-0.29-0.78-4.47-0.78-4.47s1.28-5.44-0.97-5.44 -0.54-2.84-1.94-3.7c-1.42-0.86-0.6-4.88-1.17-6.03 -0.57-1.15-0.53-2.45-1.94-3.3 -0.17-0.11-0.3-0.22-0.39-0.2 -0.63 0.2 0.55 3.38-0.2 3.89 -0.85 0.58-1.48 1.67-2.33 2.53 -0.85 0.86 1.75 2.06 1.75 2.92 0 0.86 0.58 5.06 0.58 5.06s2.06 0.99 2.34 2.14c0.28 1.15-0.08 3.41 0.78 3.7 0.84 0.29 2.52 1.38 1.94 2.53 -0.56 1.15-0.58 3.5-0.58 3.5l1.17 2.53 2.34 1.36C650.91 231.58 651.74 224.87 650.32 224.58z"/><polygon fill="#010101" points="571.77 207.28 571.96 209.03 574.69 208.65 574.49 206.89 "/><path fill="#010101" d="M529.77 212.14c0 0.86 1.98 1.75 3.11 1.75 1.13 0 4.08-2.33 4.08-2.33s1.52-3.98 0.39-3.7c-1.13 0.29-3.41 1.92-3.69 0.2 -0.15-0.85-1.07-0.96-1.95-0.96 -0.88 0-1.75 0.2-1.75 0.2l-4.47 0.58 -0.39 1.94 3.11 0.39C528.22 210.2 529.77 211.28 529.77 212.14z"/><rect x="511.75" y="208.63" transform="matrix(0.2233 0.9747 -0.9747 0.2233 602.6931 -337.3553)" fill="#010101" width="2.59" height="1.79"/><polygon fill="#010101" points="516.75 210.39 522.96 210.2 522.96 208.45 516.75 208.65 "/><rect x="469.89" y="209.03" fill="#010101" width="2.14" height="1.75"/><polygon fill="#010101" points="484.08 210.98 486.03 211.37 486.41 209.61 484.47 209.23 "/><rect x="487.85" y="210.29" transform="matrix(0.9951 0.0992 -0.0992 0.9951 23.3611 -47.4536)" fill="#010101" width="1.95" height="1.76"/><polygon fill="#010101" points="467.17 210.98 465.22 210.78 464.84 212.53 466.97 212.73 "/><polygon fill="#010101" points="510.72 211.17 511.3 212.73 512.27 212.34 511.69 210.78 "/><polygon fill="#010101" points="580.13 211.56 579.16 213.5 580.72 214.28 581.69 212.14 "/><rect x="491.86" y="212.53" fill="#010101" width="2.33" height="1.56"/><polygon fill="#010101" points="465.61 213.31 463.28 212.73 462.89 214.48 465.03 215.06 "/><polygon fill="#010101" points="462.69 216.81 462.5 215.06 460.75 215.45 461.14 217.2 "/><polygon fill="#010101" points="494.39 215.25 494.39 217.2 496.13 217.2 495.94 215.06 "/><path fill="#010101" d="M581.88 216.23c-1.41 0.29-1.13 1.29 0 2.72l3.5-0.39c0 0 2.52-1.28 1.95-2.14 -0.29-0.43-1.24-0.58-2.34-0.58S582.59 216.08 581.88 216.23z"/><polygon fill="#010101" points="652.85 245.2 653.05 243.06 651.49 242.86 651.1 245 "/><polygon fill="#010101" points="651.88 251.22 650.32 250.45 649.55 252.2 651.1 252.98 "/><polygon fill="#010101" points="458.61 267.56 455.5 267.17 454.92 268.53 453.55 268.53 453.17 270.86 454.92 270.86 455.11 272.61 453.94 273.78 453.55 275.14 451.22 275.72 446.17 280.58 445.78 282.92 444.42 285.05 442.67 289.33 436.84 289.52 435.67 294.78 436.44 299.05 441.5 301 442.08 298.08 443.84 297.31 444.22 294.39 445.2 292.44 446.94 290.5 447.53 288.17 450.25 286.42 453.75 285.83 455.11 284.08 455.7 280.58 455.89 278.06 457.05 276.3 460.55 274.94 460.55 269.5 458.8 269.5 "/><polygon fill="#010101" points="632.43 270.67 635.55 271.25 635.74 269.5 632.63 268.92 "/><polygon fill="#010101" points="625.63 271.44 624.66 271.83 622.71 273 620.77 271.83 619.99 273.39 622.13 274.75 622.52 275.14 623.1 274.75 624.66 273.78 624.86 274.36 626.6 273.78 626.02 272.42 "/><path fill="#010101" d="M503.91 299.64c1.42 0.86 3.77-1.17 2.34-2.14 -4.23-2.87-3.93-6.56-5.06-9.14 -0.24-0.56-0.69-1.09-1.16-1.17 -0.47-0.08-0.93 0.41-1.36 1.55v3.69C498.67 292.44 502.5 298.78 503.91 299.64z"/><path fill="#010101" d="M354.98 311.89c0.28 3.15 2.53-1.95 2.53-1.95v-19.44l-5.25-0.58 0.39 1.95h1.36c2.26 4.01 0.39 13.8 0.39 13.8s-3.51 0.16-4.08-1.55c-0.56-1.72-1.91 3.8-0.78 4.67C350.66 309.63 354.7 308.73 354.98 311.89z"/><path fill="#010101" d="M486.22 303.33c0.6 2.5 0.62-3.98 1.75-3.69 1.13 0.29 0.19-4.08 0.19-4.08l-5.05 3.7C485.65 299.54 485.93 302.19 486.22 303.33z"/><path fill="#010101" d="M633.41 306.25c-0.43-1.29-1.6-1.85-2.92-1.75 -2.18 0.16-4.66 1.87-3.89 2.92 1.7 2.29 4.51 1.07 5.64 1.36C633.37 309.06 634.54 309.69 633.41 306.25z"/><path fill="#010101" d="M362.56 308.58c-0.66 0-1.16 0.5-1.16 1.17 0 0.67 0.5 1.36 1.17 1.36 0.66 0 1.17-0.69 1.17-1.36C363.72 309.09 363.22 308.58 362.56 308.58z"/><polygon fill="#010101" points="358.48 322.58 359.06 319.86 357.11 319.08 357.51 314.8 359.06 314.42 359.45 312.48 355.17 315.39 352.25 313.64 352.25 320.44 356.92 326.47 "/><path fill="#010101" d="M463.86 319.67l-2.53 0.2 0.39 4.08 1.56 1.36 3.11 0.98c0 0 4.39-1.23 4.66-4.66l-6.61-0.19L463.86 319.67z"/><polygon fill="#010101" points="359.64 329.97 357.7 330.17 357.51 332.5 359.64 332.89 "/><path fill="#010101" d="M713.71 332.69c-0.32-0.13-0.58-0.21-0.97-0.19 -1.18 0.06-2.52 0.64-3.3 1.17l0.78 1.36c1.06-0.73 2.6-0.93 2.92-0.78 -0.02-0.02-0.18-0.16-0.2-0.2l1.75-0.19C714.6 333.31 714.22 332.91 713.71 332.69z"/><path fill="#010101" d="M361.59 336.58c0-0.67-0.5-1.16-1.16-1.16 -0.66 0-1.16 0.49-1.16 1.16 0 0.67 0.5 1.17 1.17 1.17C361.08 337.75 361.59 337.25 361.59 336.58z"/><path fill="#010101" d="M362.37 341.44c-0.66 0-1.16 0.5-1.16 1.17 0 0.67 0.5 1.17 1.17 1.17 0.66 0 1.36-0.5 1.36-1.17C363.73 341.94 363.03 341.44 362.37 341.44z"/><path fill="#010101" d="M467.94 349.8c1.27-0.22 2.06-0.76 3.11-0.97 1.06-0.22 1.52-1.98 1.94-3.69 0.43-1.73-0.39-2.53-0.39-2.53s-1.03 1.73-2.72 0c-0.21-0.22-0.58-0.38-0.78-0.39 -1.43-0.07-2.55 4.32-3.11 5.45C466 347.67 466.67 350.02 467.94 349.8z"/><polygon fill="#010101" points="354.78 346.89 357.11 346.49 357.11 344.55 354.78 344.94 "/><path fill="#010101" d="M731.99 359.53c-0.04-0.48-0.06-1.27-0.39-1.95l-1.56 0.78c0.19 0.38 0.16 0.78 0.2 1.17 0.05 0.5 0.11 1.19 0.58 1.55 0.31 0.23 0.71 0.28 1.17 0.2l-0.19-1.75c0.13 0.02 0.16 0.26 0.2 0.39C731.96 359.86 732 359.67 731.99 359.53z"/><path fill="#010101" d="M728.29 361.28c0.43 1.74 0.95 3.42 0.98 3.49l1.75-0.58c-0.01-0.01-0.76-1.65-1.16-3.31L728.29 361.28z"/><rect x="597.44" y="362.44" fill="#010101" width="1.94" height="5.44"/><polygon fill="#010101" points="537.17 365.36 536.39 363.99 534.05 365.36 535.03 366.72 "/><path fill="#010101" d="M720.32 367.88c-0.13 1.35 0.22 3.04 1.55 3.31l0.39-1.75c-0.13-0.12-0.26-0.73-0.2-1.36L720.32 367.88z"/><path fill="#010101" d="M719.54 370.99c-0.51 0.04-1.33 0.59-1.94 0.98 -1.7 1.08-1.06 5.35 0 4.28 1.05-1.06 2.31 0.11 2.53-3.11C720.23 371.52 720.06 370.96 719.54 370.99z"/><polygon fill="#010101" points="502.94 377.8 504.89 374.69 503.13 374.11 501.19 375.47 501.97 376.44 "/><polygon fill="#010101" points="649.55 394.13 652.27 394.33 652.46 391.99 649.74 391.61 "/><path fill="#010101" d="M647.41 397.63l-0.58 1.75c0.13 0.05 0.39 0.07 0.58 0.2l0.39 1.55c-0.12 0.2-0.28 0.26-0.39 0.39l1.17 1.16c0.91-1.01 1.21-1.97 0.98-2.92C649.17 398.32 647.59 397.7 647.41 397.63z"/><polygon fill="#010101" points="438.58 452.85 436.84 454.21 436.06 454.99 436.84 455.58 438.78 457.13 439.75 455.58 438.78 454.8 439.56 454.21 "/><polygon fill="#010101" points="460.36 477.55 461.72 476.19 462.5 475.41 461.53 474.82 458.61 473.46 457.84 474.82 459.58 475.8 459 476.38 "/><polygon fill="#010101" points="315.7 487.85 317.84 491.35 318.23 493.88 320.95 494.85 322.12 496.41 324.06 495.44 322.7 491.55 319.01 488.44 "/></svg>