<svg xmlns="http://www.w3.org/2000/svg" xmlns:xlink="http://www.w3.org/1999/xlink" version="1.1" id="Layer_1" x="0" y="0" width="123.39" height="537.87" viewBox="418.3 22.13 123.39 537.87" enable-background="new 418.303 22.127 123.394 537.873" xml:space="preserve"><path d="M433.71 505.88C433.66 505.32 433.71 506.41 433.71 505.88L433.71 505.88z"/><path d="M519.02 506.57C519.02 507.1 519.08 506.01 519.02 506.57L519.02 506.57z"/><path d="M521.59 505.9l2.48-299.27c-1.91-0.11-8.21-0.2-16.65-0.29l-0.88 108.9c0 0.42-0.18 0.83-0.48 1.13l-19.51 19.2 -0.26 32.49 15.9 16.17c0.94-0.54 1.98-0.92 3.14-0.92 3.51 0.03 6.32 2.89 6.3 6.4 -0.03 3.5-2.89 6.32-6.4 6.3 -1.25-0.01-2.34-0.47-3.31-1.1l-4.86 4.43c0.47 0.9 0.8 1.87 0.79 2.95 -0.02 3.51-2.89 6.33-6.4 6.29 -3.51-0.02-6.32-2.89-6.29-6.4 0.03-3.51 2.89-6.32 6.4-6.3 1.24 0.01 2.34 0.47 3.31 1.1l4.86-4.44c-0.47-0.89-0.8-1.87-0.79-2.95 0-1.17 0.42-2.19 0.97-3.13l-16.37-16.64c-0.3-0.3-0.47-0.71-0.47-1.14l0.28-33.82c0-0.42 0.18-0.83 0.48-1.13l19.51-19.2 0.87-108.24c-4.46-0.04-9.37-0.08-14.48-0.11l-0.8 99.06c-0.01 0.43-0.18 0.84-0.49 1.14l-36.5 35.33 -0.34 41.47c2.7 0.74 4.72 3.12 4.69 6.05 -0.01 1.11-0.37 2.09-0.87 2.99l4.57 4.64c1.03-0.72 2.23-1.23 3.59-1.22 3.5 0.03 6.32 2.89 6.29 6.4 -0.01 1.36-0.54 2.55-1.28 3.58l5.13 5.21c1-0.63 2.11-1.08 3.37-1.07 3.5 0.02 6.33 2.89 6.3 6.4 -0.01 1.26-0.48 2.37-1.13 3.35l4.79 4.87c0.99-0.62 2.1-1.07 3.35-1.06 3.5 0.03 6.32 2.89 6.3 6.4 -0.01 1.26-0.48 2.35-1.12 3.33l5.42 5.5c0.94-0.54 1.98-0.93 3.14-0.92 3.51 0.03 6.33 2.89 6.3 6.4 -0.02 3.5-2.89 6.32-6.4 6.3 -1.15-0.01-2.16-0.4-3.09-0.95l-5.42 5.4c0.55 0.95 0.95 1.99 0.93 3.17 -0.03 3.51-2.89 6.32-6.4 6.3 -3.51-0.03-6.32-2.89-6.3-6.4 0.03-3.51 2.89-6.33 6.4-6.3 1.15 0.01 2.17 0.4 3.1 0.95l5.41-5.4c-0.55-0.95-0.95-2-0.94-3.17 0.01-1.17 0.42-2.19 0.98-3.13l-5.48-5.57c-0.89 0.46-1.85 0.79-2.92 0.78 -3.52-0.03-6.33-2.89-6.3-6.4 0.01-1.08 0.35-2.04 0.83-2.92l-4.93-5.01c-0.88 0.46-1.84 0.78-2.91 0.77 -3.51-0.03-6.32-2.89-6.3-6.4 0.01-1.06 0.34-2.02 0.81-2.9l-5.34-5.43c-0.82 0.37-1.72 0.62-2.69 0.62 -3.51-0.02-6.32-2.88-6.29-6.4 0.01-0.97 0.27-1.86 0.67-2.68l-4.66-4.74c-0.98 0.59-2.05 1.03-3.28 1.02 -3.51-0.03-6.33-2.9-6.3-6.41 0.02-2.94 2.08-5.28 4.79-5.99l0.34-42.14c0.01-0.43 0.19-0.84 0.5-1.14l36.5-35.32 0.8-98.37c-22.79-0.13-48.2-0.2-52.95-0.22l-2.39 299.2c1.14 16.97 11.3 47.86 44.83 48.13C509.5 553.57 520.17 522.85 521.59 505.9zM455.38 497.79c-0.02 3.51-2.89 6.33-6.4 6.3 -3.5-0.03-6.32-2.89-6.29-6.4 0.03-3.51 2.9-6.33 6.4-6.3 1.25 0.01 2.34 0.47 3.31 1.1l4.86-4.44c-0.47-0.89-0.8-1.87-0.79-2.95 0.03-3.51 2.89-6.33 6.4-6.3 3.51 0.03 6.32 2.89 6.3 6.4 -0.03 3.51-2.89 6.33-6.4 6.3 -1.25-0.01-2.34-0.47-3.32-1.1l-4.86 4.44C455.06 495.74 455.4 496.71 455.38 497.79zM504.32 504.54c-3.51-0.03-6.33-2.89-6.3-6.39 0.01-1.17 0.41-2.19 0.96-3.12l-4.53-4.59c-1.05 0.77-2.29 1.31-3.7 1.29 -3.51-0.03-6.33-2.9-6.3-6.4 0.01-1.4 0.56-2.62 1.34-3.66l-5.4-5.46c-1.09 0.84-2.39 1.43-3.87 1.41 -3.52-0.03-6.33-2.89-6.3-6.4 0.01-1.47 0.6-2.76 1.45-3.83l-4.35-4.41c-1 0.64-2.12 1.1-3.39 1.09 -3.51-0.03-6.33-2.89-6.3-6.4 0.01-1.26 0.48-2.37 1.13-3.34l-5.42-5.49c-0.95 0.54-1.98 0.93-3.15 0.93 -3.51-0.03-6.33-2.89-6.3-6.4 0.03-3.51 2.89-6.32 6.4-6.3 1.09 0.01 2.06 0.36 2.95 0.86l5.52-5.36c-0.53-0.93-0.91-1.96-0.9-3.11 0.03-3.51 2.9-6.32 6.4-6.3 3.51 0.03 6.33 2.9 6.3 6.4 -0.02 3.51-2.89 6.33-6.4 6.29 -1.18-0.01-2.22-0.42-3.16-0.98l-5.45 5.3c0.61 0.98 1.05 2.08 1.03 3.31 -0.01 1.16-0.41 2.19-0.96 3.12l5.5 5.57c0.89-0.46 1.85-0.78 2.91-0.77 3.51 0.03 6.33 2.9 6.3 6.4 -0.01 1.06-0.34 2.01-0.8 2.88l4.68 4.74c0.75-0.3 1.56-0.47 2.41-0.47 3.5 0.03 6.33 2.9 6.3 6.41 -0.01 0.85-0.2 1.63-0.5 2.36l5.83 5.91c0.8-0.35 1.67-0.57 2.6-0.56 3.5 0.03 6.32 2.9 6.3 6.4 -0.01 0.93-0.23 1.78-0.59 2.57l4.71 4.77c0.95-0.54 1.99-0.94 3.16-0.92 3.51 0.02 6.32 2.89 6.3 6.4C510.7 501.75 507.83 504.56 504.32 504.54z"/><path d="M534.29 23l-106.92-0.87 8.63 103.78 86.28 0.7L534.29 23zM489.26 64.87c1.02 0.01 1.84 0.84 1.83 1.86 -0.01 1.02-0.84 1.83-1.86 1.83 -1.02-0.01-1.84-0.84-1.83-1.86C487.41 65.69 488.24 64.86 489.26 64.87zM440.13 44.94c-2.17-0.02-3.92-1.79-3.9-3.97 0.02-2.17 1.8-3.92 3.97-3.9 2.18 0.02 3.92 1.8 3.9 3.97C444.08 43.22 442.31 44.96 440.13 44.94zM449.71 51.49c0.01-1.76 1.46-3.18 3.22-3.17 1.77 0.02 3.18 1.45 3.17 3.22 -0.01 1.77-1.46 3.19-3.22 3.17C451.11 54.7 449.7 53.26 449.71 51.49zM441.14 71.31c-1.74-0.01-3.13-1.43-3.12-3.17 0.01-1.73 1.44-3.14 3.17-3.12 1.74 0.01 3.14 1.44 3.13 3.18C444.3 69.93 442.88 71.33 441.14 71.31zM476.9 45.24c0.01-1.1 0.91-1.98 2.01-1.98 1.1 0.01 1.98 0.91 1.98 2.01 -0.02 1.1-0.91 1.98-2.01 1.98C477.78 47.24 476.89 46.34 476.9 45.24zM461.05 64.34c0.02-1.85 1.53-3.34 3.37-3.32 1.85 0.02 3.34 1.53 3.32 3.38 -0.02 1.84-1.53 3.33-3.37 3.32C462.52 67.7 461.04 66.19 461.05 64.34zM452.61 87.1c-2.17-0.02-3.92-1.8-3.9-3.96 0.02-2.17 1.79-3.92 3.97-3.9 2.17 0.02 3.92 1.79 3.9 3.97C456.57 85.37 454.78 87.12 452.61 87.1zM459.06 83.22c0.02-2.87 2.36-5.17 5.23-5.15 2.87 0.03 5.17 2.36 5.14 5.23 -0.02 2.86-2.36 5.17-5.23 5.15C461.33 88.43 459.04 86.09 459.06 83.22zM443.62 122.55c-2.17-0.02-3.92-1.79-3.91-3.97 0.02-2.17 1.8-3.92 3.97-3.9 2.18 0.02 3.92 1.79 3.9 3.96C447.56 120.82 445.79 122.57 443.62 122.55zM455.58 114.8c-1.15-0.01-2.11-0.66-2.66-1.58 -0.45 0.12-0.9 0.27-1.38 0.27 -2.82-0.03-5.09-2.33-5.07-5.15 0.02-2.82 2.33-5.1 5.15-5.07 2.83 0.02 5.09 2.33 5.07 5.15 0 0.07-0.04 0.13-0.04 0.2 1.26 0.44 2.17 1.6 2.16 3.01C458.79 113.39 457.35 114.81 455.58 114.8zM499.78 92.88c-1.12-0.01-2.03-0.94-2.01-2.08 0.01-1.15 0.93-2.06 2.05-2.05 1.12 0.01 2.03 0.94 2.02 2.08C501.83 91.98 500.91 92.9 499.78 92.88zM482.47 113.74c0.01-1.76 1.46-3.18 3.22-3.16 1.77 0.01 3.19 1.46 3.17 3.22 -0.01 1.77-1.45 3.18-3.22 3.16C483.87 116.95 482.46 115.51 482.47 113.74z"/><path d="M439.68 549.88c-11.35-11.54-16.49-27.71-17.91-40.16l-0.17 0 -0.3-6.46 0.19-0.02 3.37-421.05 -6.42-22.55c-0.49-1.71 0.5-3.49 2.21-3.97 1.71-0.49 3.49 0.5 3.97 2.21l6.67 23.91 -3.4 424.41c1.37 19.31 12.97 51.6 48.05 51.89 35.14 0.29 47.25-31.94 48.89-51.11l3.52-424.86 7.06-23.33c0.51-1.7 2.31-2.66 4.01-2.15 1.7 0.51 2.66 2.31 2.15 4.01l-6.79 22.44 -3.48 420.9 0.18 0.02 -0.37 6.4 -0.17 0.01c-2.74 21.5-16.91 54.41-55.04 54.1C459.78 564.37 448.05 558.38 439.68 549.88z"/></svg>