<svg xmlns:svg="http://www.w3.org/2000/svg" xmlns:dc="http://purl.org/dc/elements/1.1/" xmlns:rdf="http://www.w3.org/1999/02/22-rdf-syntax-ns#" xmlns:cc="http://creativecommons.org/ns#" xmlns="http://www.w3.org/2000/svg" xmlns:xlink="http://www.w3.org/1999/xlink" version="1.1" id="Layer_1" x="0" y="0" width="403.66" height="381.3" viewBox="278.48 33.3 403.66 381.3" enable-background="new 278.478 33.3 403.663 381.3" xml:space="preserve"><path d="M480 33.3c-12.7 0-23.1 10.4-23.1 23.1 0 10.1 6.5 18.5 15.4 21.7l5.3 335c0 0.8 0.7 1.5 1.5 1.5h2c0.8 0 1.5-0.7 1.5-1.5l5-335c8.9-3.2 15.4-11.6 15.4-21.7C503.1 43.7 492.7 33.3 480 33.3zM415.5 41.2c-0.1 0-0.1 0.1-0.1 0.1H415.3c-7.6 0.1-14.6 3.4-22.7 8.1 -8.2 4.8-17.7 11.2-30.1 17.4 -20.1 10-32.5 16.3-58.7 23.7 -9 2.5-16 4.2-20.3 4.8 -1.3 0.2-2.3 0.4-3.1 0.7 -0.8 0.3-1.5 0.9-1.8 1.7 -0.3 0.8 0 1.7 0.4 2.2s0.9 0.9 1.5 1.3c1.4 0.7 10.5 5.5 23.5 5.5 5.6 0 11.8-0.7 18.2-1.7 -3.1 1.3-5.8 2.7-7.6 3.8 -1.9 1.2-3.7 2.2-4.3 4.1 -0.3 0.9-0.1 2.2 0.7 2.9 0.8 0.7 1.9 1.3 3.4 1.8 5.9 2 12 2.8 18.6 2.8s13.8-0.8 21.7-2.1c-4.7 2.3-9.2 4.7-12.7 7.7 -0.9 0.7-1.6 1.3-2 2.2 -0.4 0.9-0.4 2.2 0.3 2.9 1.3 1.6 3.6 2 6.7 2.4 4.5 0.6 9.9 1.4 16.7 1.4 8 0 18.2-1.3 31.4-5.6 -4.9 3.2-9.4 7.2-11.1 9.2 -0.4 0.5-0.7 0.8-0.8 1.4 -0.1 0.6 0 1.2 0.3 1.7 0.7 1 1.7 1.4 2.7 1.7 2 0.5 4.5 0.5 7 0.7 1.1 0.1 3 0.4 5.6 0.4 6.8 0 18.5-2 36.4-12.6 -1 1-1.6 1.7-2.7 2.7 -0.9 0.8-1.5 1.6-1.7 2.5s0.1 1.8 0.7 2.4c1.1 1.1 2.6 1.4 3.8 1.4h0.6c7.6 0 21-2.2 29.3-8.4l0.4-0.3c-0.2-13.2-0.5-26.4-0.7-39.6 -3.1-1.1-5.2-3.1-7-6.3 -1.8-3.3-3.3-7.8-4.8-13.7 -0.2-0.8-0.4-1.7-0.7-2.5 0-0.1-0.1-0.1-0.1-0.1 -1.1-2-1.8-4-2.4-6.2 -1.8-3.9-4.4-7.7-7.7-11.2 -5.9-6.2-14.5-11.1-26.2-11.2h-0.1c-0.1 0-0.1 0-0.1 0h-0.3V41.2zM544.3 41.2c-11.7 0-20.3 4.8-26.3 11.1 -3.7 3.9-6.5 8.4-8.4 12.7 -0.2 0.4-0.2 0.9-0.4 1.3 -0.3 1-0.7 2-1.1 2.9 -0.4 1.1-0.7 2.2-1 3.2 -0.7 2.9-1.5 5.6-2.2 7.8 -0.2 0.6-0.4 1.1-0.6 1.7 -0.6 1.6-1.3 3-2 4.2 -0.7 1.2-1.4 2.2-2.2 3.1 -1.1 1.2-2.2 2.1-3.6 2.8 -0.4 0.1-0.7 0.3-1.1 0.4 -0.2 13.2-0.4 26.5-0.6 39.8l0.3 0.3c3.2 2.4 7.1 4 11.2 5.3 0.6 0.2 1.1 0.4 1.7 0.6 2.9 0.8 5.7 1.4 8.4 1.8 0.4 0.1 0.8 0.1 1.3 0.1 0.5 0.1 0.9 0.1 1.4 0.1 0.3 0 0.7 0.1 1 0.1h0.1c0.4 0 0.8 0 1.1 0 0.5 0 0.8 0.1 1.3 0.1 0.1 0 0.2 0 0.3 0 0.7 0 1.4 0 2.1 0 0.3 0 0.7-0.1 1-0.1 0.1 0 0.3 0 0.4 0 0.1 0 0.3-0.1 0.4-0.1 0.2 0 0.4-0.1 0.6-0.1 0.5-0.2 0.8-0.6 1.3-1 0.6-0.6 1-1.5 0.8-2.4s-0.8-1.7-1.7-2.5c-0.5-0.5-1-0.8-1.4-1.3V133l-1.3-1.3c6.7 4 12.5 6.8 17.5 8.7 0.4 0.1 0.9 0.3 1.3 0.4 1 0.4 2.1 0.7 3.1 1 0.5 0.1 0.9 0.3 1.4 0.4 1.4 0.4 2.8 0.7 4.1 1 1.1 0.3 2.2 0.4 3.2 0.6 2.2 0.3 4.2 0.6 5.9 0.6 1.4 0 2.5-0.2 3.5-0.3 0.9-0.1 1.6-0.1 2.1-0.1 0.6-0.1 1.2-0.1 1.8-0.1 0.6 0 1.2-0.1 1.8-0.1 1.2-0.1 2.4-0.3 3.4-0.6 1-0.3 1.9-0.5 2.5-1.5 0.3-0.4 0.4-0.8 0.4-1.3 0-0.2 0.1-0.3 0-0.4 -0.1-0.6-0.5-1.1-0.8-1.5 -0.2-0.3-0.4-0.5-0.7-0.8l-1-1h-0.1c-0.3-0.3-0.7-0.6-1.1-1v-0.1c-0.4-0.3-0.8-0.7-1.3-1.1H572c-0.4-0.4-0.9-0.9-1.4-1.3 -1.6-1.2-3.2-2.4-5-3.6 6.5 2.1 12.2 3.5 17.4 4.3 0.7 0.1 1.2 0.2 1.8 0.3 0.3 0.1 0.6 0.1 1 0.1 0.9 0.1 1.8 0.2 2.7 0.3 0.1 0 0.2 0 0.3 0 2.8 0.3 5.6 0.4 8 0.4 6.8 0 12.1-0.8 16.7-1.4 3.1-0.4 5.3-0.8 6.6-2.4 0.7-0.8 0.8-2.1 0.4-2.9 -0.4-0.9-1-1.5-2-2.2 -3.5-3-8-5.4-12.7-7.7 2 0.3 3.9 0.6 5.7 0.8 5.7 0.8 11 1.3 16 1.3 4.9 0 9.6-0.5 14.1-1.5 1.5-0.4 3-0.7 4.5-1.3 1.5-0.5 2.6-1 3.4-1.8 0.8-0.8 1-2 0.7-2.9 -0.7-1.9-2.4-2.9-4.3-4.1 -0.4-0.3-1-0.5-1.5-0.8 -0.5-0.3-1.2-0.7-1.8-1 -0.7-0.3-1.2-0.6-2-1 -0.7-0.3-1.5-0.7-2.2-1 1.1 0.2 2.2 0.3 3.2 0.4 0.5 0.1 0.9 0.2 1.4 0.3h0.1c0.2 0 0.4 0 0.6 0 2.1 0.3 4.2 0.5 6.2 0.7h0.1c0.8 0.1 1.5 0.1 2.2 0.1 1.5 0.1 2.9 0.1 4.3 0.1 13.1 0 22-4.7 23.4-5.5 0.6-0.3 1.3-0.7 1.7-1.3 0.5-0.5 0.7-1.4 0.4-2.2 -0.2-0.4-0.5-0.8-0.8-1.1 -0.1-0.1-0.2-0.2-0.4-0.3 -0.2-0.1-0.4-0.2-0.6-0.3 -0.8-0.3-1.8-0.5-3.1-0.7 -4.3-0.5-11.3-2.2-20.3-4.8 -3.3-0.9-6.4-1.8-9.2-2.7 -1.5-0.5-2.8-0.9-4.2-1.4 -6.8-2.2-12.6-4.3-18.2-6.7 -1.1-0.5-2.3-1.1-3.4-1.5 -7.7-3.4-15-7.1-23.8-11.5 -12.4-6.1-21.7-12.4-30-17.2 -1-0.6-2-1.1-2.9-1.7H565c-6.9-3.8-13.1-6.4-19.7-6.4C544.5 41.3 544.4 41.2 544.3 41.2zM442.5 147.4c-5.7 0-9.9 1.2-10.9 1.7 -0.3 0.1-0.6 0.3-0.8 0.4 -10.6 1.6-22.1 6.9-22.1 22.7 0 23.2 19.9 30.5 44.1 37.5 -5 1.9-9.6 4.1-13.4 6.6 -6.7 4.4-11.1 9.8-10.9 16.7 0.1 3.7 1.1 6.5 2.4 8.7 0.3 0.6 0.6 1.1 1 1.5 1.8 2.3 4.1 4 5.9 5.2 0.7 0.5 1.4 1 2.1 1.5 5.3 3.8 11.6 7.2 18.9 10.6 -5.2 2.3-9.6 4.5-13.2 6.6 0 0-19.8 9.3-7.1 21.3 1.5 1.4 3.1 2.7 4.8 3.9 5.3 3.8 11.7 6.6 19.6 9.8 -6.6 3-12.1 5.8-16.2 9C446.6 311.2 446.6 311.2 446.6 311.2c-5.4 4.2-8.4 8.8-8.4 14.4 0.1 3 1.9 5.5 4.2 7.1 2.4 1.7 4.6 3 7 4.3v0.1c4.4 2.5 9.1 4.7 15.3 7.4 -8.4 4.3-13 7.8-13 12.2 0 3.7 2.8 6.5 6.6 8.5 0.1 0 0.1 0 0.1 0 3 2.1 6.5 3.7 10.6 5.5 -9.7 4.5-15.4 8.2-15.7 14.8 0 0.1 0 0.3 0 0.4v0.1 0.1c0 0.2 0 0.5 0 0.7v0.3c0.3 4.2 2.5 4.5 7 7.3 3.1 1.9 6.6 3.7 11.3 6.2 -3.5 2.3-5.5 4.3-5.5 6.7 0 2.5 1.7 4.5 4.1 5.9 -0.3-1.4 1.6-3.2 4.6-5 -0.1-5.2-0.1-10.4-0.1-15.5 -4.7-2.5-9.8-5.2-13-8 2.7-2.8 7.5-4.7 12.7-6.7 -0.1-5.2-0.2-10.4-0.3-15.5 -2.7-1.4-5.3-2.7-7.6-4.2 2.2-1.2 4.6-2.5 7.4-3.8 -0.1-6.8-0.2-13.6-0.3-20.4 -8-3.7-16.2-7.8-21.4-11.9 4.7-4.3 12.6-7.4 21-10.5 -0.1-6.8-0.2-13.5-0.3-20.3 -6.5-3-12.9-6.4-17.9-9.8 4.9-2.6 11-5.2 17.6-8.1 -0.1-8.7-0.3-17.6-0.4-26.3 -10.9-5.3-21.6-11.6-27.9-17.5 5.9-4.9 15.8-7.4 27.4-10.2 -0.1-6.9-0.2-13.9-0.3-20.9 -0.5-0.1-1.1-0.3-1.5-0.4 -23.9-7.2-43-12.7-43-24.6 0-7.5 6.3-9.4 11.1-9.8 2.3 1.1 5 1.9 8.7 3.4 6.1 2.5 10 4 13.7 4.5 0.9 0.1 1.7 0.1 2.5 0.1 2.2 0 4.1-0.4 6-1.4 2.6-1.4 1.4-6-2-10.5 -3.5-4.7-7.8-11.9-23-12.5H442.5L442.5 147.4 442.5 147.4zM516.5 147.4c-1.9 0.1-3.6 0.3-5.2 0.6 -0.4 0.1-0.7 0.2-1.1 0.3 -10.1 2-13.5 7.7-16.5 11.6 -1.9 2.5-3.1 5.1-3.4 7.1 0 0.2 0 0.5 0 0.7 0 1.3 0.4 2.1 1.4 2.7 1.2 0.6 2.4 1 3.6 1.3 0.3 0 0.4 0.1 0.7 0.1 0.5 0.1 1.1 0 1.7 0 0.8 0 1.6 0 2.5-0.1 3.7-0.4 7.6-2 13.7-4.5 3.7-1.5 6.4-2.3 8.7-3.4 4.7 0.4 11.1 2.3 11.1 9.8 0 12-19.1 17.4-43 24.6 -0.6 0.2-1.3 0.4-2 0.6 -0.1 6.9-0.2 13.8-0.3 20.7 11.8 2.8 21.8 5.3 27.7 10.2 -6.3 6-17.1 12.4-28.1 17.8 -0.1 8.6-0.3 17.3-0.4 25.9 6.7 2.9 12.9 5.6 17.9 8.3 -5.1 3.4-11.6 6.9-18.2 9.9 -0.1 6.7-0.2 13.3-0.3 20 8.5 3.2 16.6 6.1 21.3 10.5 -5.3 4.2-13.5 8.5-21.6 12.2 -0.1 6.7-0.2 13.6-0.3 20.3 2.9 1.3 5.5 2.6 7.7 3.8 -2.3 1.5-5 2.9-7.8 4.3 -0.1 5.1-0.2 10.3-0.3 15.4 5.3 2.1 10.2 3.9 12.9 6.7 -3.3 2.8-8.2 5.7-13 8.1 -0.1 5.1-0.2 10.1-0.3 15.3 3.2 1.9 5.2 3.7 4.9 5.2 0.6-0.3 1-0.7 1.5-1.1 1.5-1.3 2.5-2.8 2.5-4.8 -0.3-3.1-3.6-5.5-5.5-6.7 4.8-2.4 8.3-4.2 11.3-6.2 4.5-2.8 6.7-3.1 7-7.3 0-0.1 0-0.2 0-0.3v-0.7 -0.1V386.1 385.7c-0.3-6.6-6-10.4-15.7-14.8 0.9-0.3 1.7-0.8 2.5-1.1 3.1-1.3 5.7-2.7 8.1-4.3 3.9-2 6.6-4.8 6.6-8.5 0-4.4-4.6-7.9-13-12.2 6.2-2.7 10.8-4.9 15.3-7.4V337.3c2.4-1.3 4.7-2.7 7.1-4.3 1.3-0.9 2.3-2 2.9-3.1 0.8-1.3 1.3-2.8 1.3-4.1 0-5.6-3-10.2-8.4-14.4 -0.1-0.1-0.2-0.1-0.3-0.1 -4.1-3.1-9.5-6-16.1-9 1.4-0.6 2.7-1.1 4.1-1.7 6-2.5 11.2-5 15.5-8.1 1.7-1.2 3.3-2.5 4.8-3.9 12.7-12-7.1-21.3-7.1-21.3 -3.6-2.1-8-4.2-13.2-6.6 7.3-3.5 13.4-6.8 18.8-10.6 0.7-0.5 1.5-1 2.2-1.5 1.8-1.2 3.9-2.8 5.7-5.2h0.1c0.4-0.4 0.7-1 1-1.5 1.3-2.2 2.2-5 2.2-8.7 0.2-6.9-4.2-12.3-10.9-16.7 -3.8-2.5-8.4-4.7-13.3-6.6 0.2-0.1 0.4-0.1 0.6-0.1 11.1-3.2 21.2-6.5 28.8-11.3 0.6-0.4 1.2-0.8 1.8-1.3 3.6-2.6 6.6-5.6 8.8-9.2 0.2-0.3 0.4-0.7 0.6-1 2.2-4.1 3.4-8.8 3.4-14.6 0-15.8-11.4-21.1-22-22.7 -0.3-0.1-0.6-0.3-0.8-0.4 -1-0.5-5.4-1.7-11.1-1.7C517.5 147.4 517 147.4 516.5 147.4zM451.4 153c0.7 0 1.6 0 2.4 0.3 2.1 0.7 3.6 2.2 3.2 3.2s-2.3 1.3-4.5 0.6c-2.2-0.7-3.7-2.1-3.4-3.1C449.4 153.4 450.3 153 451.4 153zM509.1 153c1.1 0 2 0.4 2.2 1 0.3 1-1.2 2.4-3.4 3.1 -2.1 0.7-4.1 0.5-4.5-0.6 -0.3-1 1.1-2.5 3.2-3.2C507.5 153 508.4 153 509.1 153z"/></svg>