<svg xmlns="http://www.w3.org/2000/svg" xmlns:xlink="http://www.w3.org/1999/xlink" version="1.1" id="Layer_1" x="0" y="0" width="288.65" height="448" viewBox="346.68 44 288.65 448" enable-background="new 346.677 44 288.653 447.995" xml:space="preserve"><path d="M422.43 104.08l-14.37-2.61 -14.37 22.2 -1.3 13.06 5.22 18.29 14.37 28.73 7.83 9.15 -2.61 5.22 -13.21-12.36 -3.18 10.98 -18.5 4.33 -10.11-7.81 3.47-1.44 5.2 4.05 16.93-3.08 6.02-16.59 -8.68-14.47 -20.55-5.06 -16.04 8.63 -11.87 12.08 3.06 20.33 27.77 22.44 12.33 11.18 7.79 12.51 10.45 45.71 9.14 31.34 9.15 22.21 17.14 25.68 33.14 7.71 -34.28-2.38 -13.2-12.56 2.79 9.53 2.95 16.82 -6.53 57.47 1.93 41.39 14.37-3.92v-15.67l-5.23-28.73 6.53 11.75 7.84 14.37 6.53 24.81 19.59 1.3 5.23-20.9 9.14-22.2 24.82-10.44 -13.66 10.51 -3.31 2.55 -7.84 18.29v14.36l13.06 5.23 2.61-23.51 -2.61-7.84 7.84 3.92 3.91 11.76v14.36l6.53 1.31 6.52-15.67 3.92-13.07 -5.23-13.05 10.44 6.53 3.92 11.75c0 0-1.31 13.06-1.31 16.98 0 3.92 3.92 10.45 3.92 10.45l15.67-1.31 -1.31-24.81 7.84 16.97 2.61-14.36 5.23-5.23v7.84 14.37l10.45-2.62 -16.98-88.81 1.31-32.65 41.79-69.23 20.91-107.1 -28.48-49.29 -29 3.58 -5.68 30.81 4.38 22.75 14.37 9.14 14.37-1.3 -18.29 7.83 -10.97-7.4 -4.71 19.15 -16.98-31.35 1.31-94.04 -9.15-35.27L536.07 46.61l-18.29 1.31 -11.75 13.06 3.91 22.2 14.37 5.22 14.36-5.22L526.92 93.63h-14.37v10.45l3.92 11.75 15.67 5.22 11.75-3.92 -16.97 10.45 -14.37-9.14 -7.84 30.04 -5.22 6.53 -11.7-6.24L474.67 122.37l-3.91-27.43 -10.45 3.92 -20.9-3.92 19.77 0.09 11.93-4.9 6.18-17.38 3.92-19.59L466.84 44h-23.51l-14.37 16.98 -3.92 19.59 -2.61 16.98 2.83 5.28 16.18 9.63 14.85 9.87 -2.31 17.63 -3.8 4.04 5.78 19.46 -2.84 3.08 -6.51-20.95 -5.78 3.9 -8.52 5.06 -17.48-8.38 -5.46-9.44 7.63 6.7 14.58 5.06 11.43-4.49 8.16-7.27v-14.37L422.43 104.08"/></svg>