<svg xmlns="http://www.w3.org/2000/svg" xmlns:xlink="http://www.w3.org/1999/xlink" version="1.1" id="Layer_1" x="0" y="0" width="392" height="600" viewBox="0 0 392 600" enable-background="new 0 0 392 600" xml:space="preserve">
  <g id="Closing_Ceremonies">
    <rect x="193" y="525" fill="#056158" width="10" height="75"/>
    <polygon fill="#056158" points="202.9 559.4 205 562.1 202.9 564.7 "/>
    <rect x="193" y="525" fill="#056158" width="200" height="75"/>
    <g opacity="0.4">
      <circle fill="#CCCCCC" cx="271.3" cy="542.4" r="3.7"/>
      <path fill="#CCCCCC" d="M277 536.2c0 0 0 8.6 0 9 0.1 1.6-1.3 1.7-1.3 1.7 0.7 0-8.4 0-8.4 0 -2.6 0-4.3 2.2-4.3 4.8v11.4c0 2.2 2.9 2.2 2.9 0v-11.1h0.9l0 30.2c0 1.2 0.9 2.1 2.1 2.1 1.2 0 2.1-0.9 2.1-2.1l0-17.5h0.9l0 17.5c0 1.2 0.9 2.1 2.1 2.1s2.1-0.9 2.1-2.1l0-30.7 0-0.9c0 0 3.6-1.1 3.6-3.8 0 0 0-1.5 0-1.5l0-9.1C279.8 533.7 277 533.8 277 536.2zM267.8 547.4h1.2l1.8 4.2c-0.4 0.1-0.7 0.3-0.9 0.6L267.8 547.4zM271.3 554.3c-0.6 0-1.1-0.4-1.2-1 0-0.1 0-0.2 0-0.2 0-0.7 0.5-1.2 1.2-1.2 0.2 0 0.3 0 0.4 0.1 0 0 0 0 0 0 0.1 0.1 0.2 0.1 0.3 0.2 0 0 0 0 0.1 0 0 0 0 0 0 0.1 0.1 0.1 0.2 0.2 0.2 0.3 0 0 0 0 0 0 0.1 0.1 0.1 0.3 0.1 0.4C272.5 553.8 271.9 554.3 271.3 554.3zM272.6 552.2c-0.2-0.3-0.5-0.5-0.9-0.6l1.8-4.2h1.2L272.6 552.2z"/>
      <circle fill="#CCCCCC" cx="293.3" cy="554.2" r="3.7"/>
      <path fill="#CCCCCC" d="M299 548c0 0 0 8.6 0 9 0.1 1.6-1.3 1.7-1.3 1.7 0.7 0-8.4 0-8.4 0 -2.6 0-4.3 2.2-4.3 4.8V575c0 2.2 2.9 2.2 2.9 0v-11.1h0.9l0 30.2c0 1.2 0.9 2.1 2.1 2.1 1.2 0 2.1-0.9 2.1-2.1l0-17.5h0.9l0 17.5c0 1.2 0.9 2.1 2.1 2.1s2.1-0.9 2.1-2.1l0-30.7 0-0.9c0 0 3.6-1.1 3.6-3.8 0 0 0-1.5 0-1.5l0-9.1C301.7 545.5 299 545.6 299 548zM289.8 559.1h1.2l1.8 4.2c-0.4 0.1-0.7 0.3-0.9 0.6L289.8 559.1zM293.3 566.1c-0.6 0-1.1-0.4-1.2-1 0-0.1 0-0.2 0-0.2 0-0.7 0.5-1.2 1.2-1.2 0.2 0 0.3 0 0.4 0.1 0 0 0 0 0 0 0.1 0.1 0.2 0.1 0.3 0.2 0 0 0 0 0.1 0 0 0 0 0 0 0.1 0.1 0.1 0.2 0.2 0.2 0.3 0 0 0 0 0 0 0.1 0.1 0.1 0.3 0.1 0.4C294.5 565.5 293.9 566.1 293.3 566.1zM294.6 564c-0.2-0.3-0.5-0.5-0.9-0.6l1.8-4.2h1.2L294.6 564z"/>
      <circle fill="#CCCCCC" cx="314.2" cy="536.1" r="3.7"/>
      <path fill="#CCCCCC" d="M305.7 529.9l0 9.1c0 0 0 1.5 0 1.5 0.1 2.8 3.6 3.8 3.6 3.8l0 0.9 0 30.7c0 1.2 0.9 2.1 2.1 2.1s2.1-0.9 2.1-2.1l0-17.5h0.9l0 17.5c0 1.2 0.9 2.1 2.1 2.1 1.2 0 2.1-0.9 2.1-2.1l0-30.2h0.9v11.1c0 2.2 2.9 2.2 2.9 0v-11.4c0-2.7-1.7-4.8-4.3-4.8 0 0-9 0-8.4 0 0 0-1.4-0.1-1.3-1.7 0-0.4 0-9 0-9C308.6 527.4 305.8 527.3 305.7 529.9zM315.6 545.8c-0.2-0.3-0.5-0.5-0.9-0.6l1.8-4.2h1.2L315.6 545.8zM313.1 546.7c0-0.2 0-0.3 0.1-0.4 0 0 0 0 0 0 0.1-0.1 0.1-0.2 0.2-0.3 0 0 0 0 0-0.1 0 0 0 0 0.1 0 0.1-0.1 0.2-0.2 0.3-0.2 0 0 0 0 0 0 0.1-0.1 0.3-0.1 0.4-0.1 0.7 0 1.2 0.5 1.2 1.2 0 0.1 0 0.2 0 0.2 -0.1 0.5-0.6 1-1.2 1C313.6 547.9 313.1 547.4 313.1 546.7zM310.9 541h1.2l1.8 4.2c-0.4 0.1-0.7 0.3-0.9 0.6L310.9 541z"/>
    </g>
    <rect x="193.3" y="539.4" fill="none" width="199" height="46.2"/>
    <text transform="matrix(1 0 0 1 248.5005 556.1768)">
      <tspan x="0" y="0" fill="#F2F2F2" font-family="'Quicksand-Regular'" font-size="24">
        Closing
      </tspan>
      <tspan x="-46.4" y="28.8" fill="#F2F2F2" font-family="'Quicksand-Regular'" font-size="24">
        Cerememonies
      </tspan>
    </text>
  </g>
  <g id="Committee_3_">
    <rect x="190" y="450" fill="#09AE9E" width="10" height="75"/>
    <polygon fill="#09AE9E" points="190.5 490.6 188.4 487.9 190.5 485.3 "/>
    <rect y="450" fill="#09AE9E" width="200" height="75"/>
    <g opacity="0.4">
      <path fill="#CCCCCC" d="M100.9 480l0.6-1.1h-1.1 -1.1l0.6 1.1 -0.1 1.8c0.2-0.1 0.4-0.1 0.7-0.1s0.5 0.1 0.7 0.1L100.9 480z"/>
      <path fill="#CCCCCC" d="M93.6 492v-8.6c0-2.5 2-4.5 4.5-4.5l0.9 3.5c-0.3 0.4-0.4 0.8-0.4 1.3 0 0.5 0.2 0.9 0.5 1.3v3.4h-4.4l-0.6 3.6H93.6z"/>
      <path fill="#CCCCCC" d="M107.1 485.7v6.2h-0.4l-0.6-3.6h-4.4V485c0.3-0.4 0.5-0.8 0.5-1.3 0-0.5-0.2-0.9-0.4-1.3l0.9-3.5c1.9 0 4.9-5.1 4.9-6.1v-7.1c0-1.1 0.9-2 2-2l0 0c1.1 0 2 0.9 2 2l0 8C111.6 477 107.1 479.5 107.1 485.7z"/>
      <path fill="#CCCCCC" d="M100.4 467.6c2.5 0 4.5 2.3 4.5 5.1 0 2.8-2 5.1-4.5 5.1s-4.5-2.3-4.5-5.1C95.9 469.9 97.9 467.6 100.4 467.6z"/>
      <polygon fill="#CCCCCC" points="95.4 489.3 105.3 489.3 105.8 492 95 492 "/>
      <path fill="#CCCCCC" d="M100.4 482.6c0.5 0 0.9 0.5 0.9 1.1 0 0.4-0.2 0.8-0.5 0.9v3.8h-0.9v-3.8c-0.3-0.2-0.5-0.5-0.5-0.9C99.5 483.1 99.9 482.6 100.4 482.6z"/>
      <path fill="#CCCCCC" d="M70.2 488.4v-5c0-2.5 2-4.5 4.5-4.5l0.8 3.1c-0.5 0.3-0.8 0.8-0.9 1.4 -0.1 0.5 0 1 0.2 1.4l-0.6 3.6H70.2z"/>
      <path fill="#CCCCCC" d="M77.6 485.1c-0.1 0.1-0.1 0.1-0.2 0.2l-0.3 1.8 -0.2 0.9 -0.1 0.5h4.5v3.6h2.3v-8.6c0-2.5-2-4.5-4.5-4.5l-1.1 4.3c0.1 0.3 0.1 0.6 0 0.9 0 0.3-0.2 0.5-0.3 0.8l0 0 0 0 0 0 0 0 0 0 0 0 0 0 0 0 0 0 0 0 0 0 0 0 0 0 0 0 0 0 0 0 0 0 0 0 0 0 0 0 0 0 0 0 0 0 0 0 0 0 0 0 0 0 0 0 0 0 0 0 0 0 0 0 0 0L77.6 485.1 77.6 485.1 77.6 485.1 77.6 485.1 77.6 485.1 77.6 485.1 77.6 485.1 77.6 485.1 77.6 485.1 77.6 485.1 77.6 485.1 77.6 485.1 77.6 485.1 77.6 485.1 77.6 485.1 77.6 485.1 77.6 485.1 77.6 485.1 77.6 485.1z"/>
      <path fill="#CCCCCC" d="M77.5 480l0.6-1.1h-1.1 -1.1l0.6 1.1 -0.1 1.7c0.1 0 0.3 0 0.5 0 0.4 0.1 0.7 0.3 1 0.5L77.5 480z"/>
      <path fill="#CCCCCC" d="M76.9 467.6c2.5 0 4.5 2.3 4.5 5.1 0 2.8-2 5.1-4.5 5.1s-4.5-2.3-4.5-5.1C72.4 469.9 74.4 467.6 76.9 467.6z"/>
      <path fill="#CCCCCC" d="M76.5 482.7c0.5 0.1 0.8 0.6 0.7 1.2 -0.1 0.4-0.3 0.7-0.6 0.8l-0.6 3.6h-0.9l0.7-3.8c-0.2-0.2-0.4-0.6-0.3-1C75.6 483 76.1 482.6 76.5 482.7z"/>
      <polygon fill="#CCCCCC" points="70.6 489.3 80.5 489.3 80.5 492 69.7 492 "/>
      <path fill="#CCCCCC" d="M130.6 488.4v-2.6c0-6.2 4.5-8.7 4.5-12.1l0-8c0-1.1-0.9-2-2-2l0 0c-1.1 0-2 0.9-2 2v7.1c0 1-3 6.1-4.9 6.1l-0.8 3.1c0.5 0.3 0.8 0.8 0.9 1.4 0.1 0.5 0 1-0.2 1.4l0.6 3.6H130.6z"/>
      <path fill="#CCCCCC" d="M122.9 484.8L122.9 484.8 122.9 484.8 122.9 484.8 122.9 484.8 122.9 484.8 122.9 484.8 122.9 484.8 122.9 484.8 122.9 484.8 122.9 484.8 122.9 484.8l0.1 0.1 0 0 0 0 0 0 0 0 0 0 0 0 0 0 0 0 0 0 0 0 0 0 0 0 0 0 0 0 0 0 0 0 0 0c0.1 0.1 0.1 0.1 0.2 0.2l0.3 1.8 0.2 0.9 0.1 0.5h-4.5v3.6h-2.3v-8.6c0-2.5 2-4.5 4.5-4.5l1.1 4.3c-0.1 0.3-0.1 0.6 0 0.9C122.7 484.3 122.8 484.6 122.9 484.8z"/>
      <path fill="#CCCCCC" d="M123.3 480l-0.6-1.1h1.1 1.1l-0.6 1.1 0.1 1.7c-0.1 0-0.3 0-0.5 0 -0.4 0.1-0.7 0.3-1 0.5L123.3 480z"/>
      <path fill="#CCCCCC" d="M123.8 467.6c-2.5 0-4.5 2.3-4.5 5.1 0 2.8 2 5.1 4.5 5.1s4.5-2.3 4.5-5.1C128.3 469.9 126.3 467.6 123.8 467.6z"/>
      <path fill="#CCCCCC" d="M124.2 482.7c-0.5 0.1-0.8 0.6-0.7 1.2 0.1 0.4 0.3 0.7 0.6 0.8l0.6 3.6h0.9l-0.7-3.8c0.2-0.2 0.4-0.6 0.3-1C125.2 483 124.7 482.6 124.2 482.7z"/>
      <polygon fill="#CCCCCC" points="130.1 489.3 120.2 489.3 120.2 492 125 492 131 492 "/>
      <polygon fill="#CCCCCC" points="133.8 511.8 137.4 511.8 137.4 513.6 133.8 513.6 "/>
      <polygon fill="#CCCCCC" points="63.5 511.8 67.1 511.8 67.1 513.6 63.5 513.6 "/>
      <polygon fill="#CCCCCC" points="60.8 492.9 140.1 492.9 141.9 510.9 59 510.9 "/>
    </g>
    <rect x="-2.3" y="476.2" fill="none" width="202.4" height="22.7"/>
    <text transform="matrix(1 0 0 1 14.9902 497.1602)" fill="#F2F2F2" font-family="'Quicksand-Regular'" font-size="30">
      Committee
    </text>
  </g>
  <g id="Lunch_2_">
    <rect x="190" y="375" fill="#50E6D7" width="10" height="75"/>
    <polygon fill="#50E6D7" points="199.9 409.4 202 412.1 199.9 414.7 "/>
    <rect x="192" y="375" fill="#50E6D7" width="200" height="75"/>
    <path opacity="0.6" fill="#F2F2F2" d="M315.6 425.3c1.4-3.4 0.9-7 0.1-9.1 -0.2-0.5-0.7-0.9-1.3-0.9 -2.2-0.1-5.8 0.6-8.5 3.1 -0.9-0.5-2-0.9-3.1-0.9 -0.2 0-0.3 0-0.5 0 -0.1-0.9-0.4-1.8-0.7-2.5 -0.2-0.5-0.7-0.9-1.3-0.9 -2.7-0.1-7.4 0.9-10.1 4.9 -1.3-2.7-3.6-4.6-5.3-5.6V408c0-4.1-2.4-7.9-6.1-9.6v-3.4h0.1c0.4 0 0.7-0.3 0.7-0.7v-3.7c0-0.4-0.3-0.7-0.7-0.7h-9.6c-0.4 0-0.7 0.3-0.7 0.7v3.7c0 0.4 0.3 0.7 0.7 0.7h0.2v3.4c-3.7 1.8-6.1 5.5-6.1 9.6v30.3c0 0.8 0.7 1.5 1.5 1.5h9.2 9.3 29c0.7 0 1.3-0.5 1.4-1.2l2.6-11.8c0.1-0.4 0-0.9-0.3-1.2C315.9 425.5 315.8 425.4 315.6 425.3zM300.8 421.1c0.4-0.3 1-0.5 1.5-0.6 0.1 0 0.3 0 0.4 0 0.4 0 0.8 0.1 1.2 0.2 0.5 0.2 0.9 0.5 1.2 0.8 0.4 0.4 0.7 1 0.8 1.6 0 0.2 0.1 0.4 0.1 0.6 0 0.5-0.1 0.9-0.3 1.3h-0.4 -1.5 -1.5 -1.3 -1.4c0-0.1-0.1-0.2-0.1-0.3 -0.1-0.3-0.1-0.6-0.1-1C299.4 422.7 300 421.7 300.8 421.1zM291.1 424.3c1.1-5.8 5.9-6.9 8-7.1 0.1 0.4 0.2 0.8 0.2 1.4 -1.7 1.1-2.9 3.1-2.9 5.3 0 0.4 0 0.9 0.1 1.3h-2.3l3.1-5c0.2-0.3 0.1-0.8-0.2-1 -0.3-0.2-0.8-0.1-1 0.2l-3.5 5.8h-1.4l-0.1-0.1C291.1 424.8 291.1 424.5 291.1 424.3zM283.3 417.3c0.3-0.3 0.5-0.6 0.7-0.9 0.2 0.2 0.5 0.3 0.8 0.6 1.7 1.3 4 4 3.3 8.1h-2.3l-1-5.2 0-0.2c-0.1-0.4-0.5-0.7-0.9-0.6 -0.3 0.1-0.5 0.3-0.6 0.6 0 0.1 0 0.2 0 0.3l0 0 1 5h-1 -0.4H282c0-0.1-0.1-0.3-0.1-0.4 -0.1-0.2-0.1-0.5-0.2-0.7 -0.2-0.8-0.2-1.5-0.1-2.2 0.1-0.5 0.2-1 0.3-1.5 0.1-0.3 0.2-0.5 0.3-0.8C282.5 418.7 282.9 417.9 283.3 417.3zM271.1 425.1c-0.3 0.1-0.6 0.2-0.8 0.5 -0.3 0.3-0.4 0.8-0.3 1.2l2.2 10h-5.9V408c0-3.2 2-6.2 5.1-7.3 0.6-0.2 1-0.8 1-1.4v-4.4h3.4v4.4c0 0.6 0.4 1.2 1 1.4 3 1.1 5.1 4 5.1 7.3v6.4c-0.7 0.8-1.5 1.8-2.1 3 -0.8-0.4-1.8-0.7-2.8-0.7 -3.4 0-6.3 2.8-6.3 6.2C270.7 423.8 270.9 424.5 271.1 425.1zM278.9 425.1h-4.5c-0.4-0.6-0.7-1.3-0.7-2 0-1.8 1.5-3.3 3.3-3.3 0.7 0 1.3 0.2 1.8 0.6C278.5 421.8 278.5 423.4 278.9 425.1zM312.8 429.3l-1.6 7.6h-26.3 -1.5 -1.5 -6.7l-1.9-8.7 0-0.1h6.8 0.7 1.1 1.3 0.2 1.5 0.1 1.3 1.9 2 4.2 1 0.9 1.9 0.6 1.8 4.4 2.4 0.5 1.7 2.4 1.1L312.8 429.3zM312.5 425.1h-3.6c0.1-0.4 0.1-0.8 0.1-1.3 0-1.2-0.4-2.4-1-3.3 1.8-1.6 4-2 5.3-2.1C313.6 419.8 314 422.5 312.5 425.1z"/>
    <rect x="191.8" y="397.6" fill="none" width="199" height="46.2"/>
    <text transform="matrix(1 0 0 1 219.9868 431.1563)" fill="#F2F2F2" font-family="'Quicksand-Regular'" font-size="48">
      Lunch
    </text>
  </g>
  <g id="Committee_1_">
    <rect x="190" y="300" fill="#09AE9E" width="10" height="75"/>
    <polygon fill="#09AE9E" points="190.5 340.6 188.4 337.9 190.5 335.3 "/>
    <rect y="300" fill="#09AE9E" width="200" height="75"/>
    <g opacity="0.4">
      <path fill="#CCCCCC" d="M101.4 324.9l0.6-1.2h-1.2 -1.2l0.6 1.2 -0.1 2c0.2-0.1 0.5-0.2 0.8-0.2 0.3 0 0.5 0.1 0.8 0.2L101.4 324.9z"/>
      <path fill="#CCCCCC" d="M93.5 337.8v-9.3c0-2.7 2.2-4.9 4.9-4.9l1 3.8c-0.3 0.4-0.5 0.9-0.5 1.4 0 0.5 0.2 1 0.5 1.4v3.7h-4.8l-0.7 3.9H93.5z"/>
      <path fill="#CCCCCC" d="M103.3 323.6c2.7 0 4.9 2.2 4.9 4.9v9.3h-0.5l-0.7-3.9h-4.8v-3.7c0.3-0.4 0.5-0.9 0.5-1.4 0-0.5-0.2-1-0.5-1.4L103.3 323.6z"/>
      <path fill="#CCCCCC" d="M100.8 311.4c2.7 0 4.9 2.5 4.9 5.5 0 3-2.2 5.5-4.9 5.5 -2.7 0-4.9-2.5-4.9-5.5C95.9 313.8 98.1 311.4 100.8 311.4z"/>
      <polygon fill="#CCCCCC" points="95.4 334.9 106.2 334.9 106.7 337.8 94.9 337.8 "/>
      <path fill="#CCCCCC" d="M100.8 327.7c0.5 0 1 0.5 1 1.2 0 0.4-0.2 0.8-0.5 1v4.1h-1v-4.1c-0.3-0.2-0.5-0.6-0.5-1C99.8 328.2 100.3 327.7 100.8 327.7z"/>
      <path fill="#CCCCCC" d="M68 333.9v-5.4c0-2.7 2.2-4.9 4.9-4.9l0.9 3.4c-0.5 0.3-0.8 0.9-1 1.5 -0.1 0.5 0 1 0.2 1.5l-0.7 3.9H68z"/>
      <path fill="#CCCCCC" d="M76.1 330.4c-0.1 0.1-0.1 0.1-0.2 0.2l-0.3 1.9 -0.2 0.9 -0.1 0.5h4.9v3.9h2.5v-9.3c0-2.7-2.2-4.9-4.9-4.9l-1.2 4.7c0.1 0.3 0.1 0.6 0 0.9 -0.1 0.3-0.2 0.6-0.3 0.8l0 0 0 0 0 0 0 0 0 0 0 0 0 0 0 0 0 0 0 0 0 0 0 0 0 0 0 0 0 0 0 0 0 0 0 0 0 0 0 0 0 0 0 0 0 0 0 0 0 0 0 0 0 0 0 0 0 0 0 0 0 0 0 0 0 0 0 0 0 0L76.1 330.4 76.1 330.4 76.1 330.4 76.1 330.4 76.1 330.4 76.1 330.4 76.1 330.4 76.1 330.4 76.1 330.4 76.1 330.4 76.1 330.4 76.1 330.4 76.1 330.4 76.1 330.4 76.1 330.4 76.1 330.4 76.1 330.4z"/>
      <path fill="#CCCCCC" d="M75.9 324.9l0.6-1.2h-1.2 -1.2l0.6 1.2 -0.1 1.9c0.2 0 0.3 0 0.5 0 0.4 0.1 0.8 0.3 1 0.6L75.9 324.9z"/>
      <path fill="#CCCCCC" d="M75.3 311.4c2.7 0 4.9 2.5 4.9 5.5 0 3-2.2 5.5-4.9 5.5 -2.7 0-4.9-2.5-4.9-5.5C70.4 313.8 72.6 311.4 75.3 311.4z"/>
      <path fill="#CCCCCC" d="M74.9 327.7c0.5 0.1 0.9 0.7 0.8 1.3 -0.1 0.4-0.3 0.8-0.7 0.9l-0.7 4h-1l0.7-4.1c-0.3-0.3-0.4-0.7-0.3-1.1C73.9 328.1 74.4 327.6 74.9 327.7z"/>
      <polygon fill="#CCCCCC" points="68.5 334.9 79.3 334.9 79.3 337.8 67.5 337.8 "/>
      <path fill="#CCCCCC" d="M133.7 333.9v-5.4c0-2.7-2.2-4.9-4.9-4.9l-0.9 3.4c0.5 0.3 0.8 0.9 1 1.5 0.1 0.5 0 1-0.2 1.5l0.7 3.9H133.7z"/>
      <path fill="#CCCCCC" d="M125.3 330.1L125.3 330.1 125.3 330.1 125.3 330.1 125.3 330.1 125.3 330.1 125.3 330.1 125.3 330.1 125.3 330.1 125.3 330.1 125.3 330.1 125.3 330.1l0.1 0.1 0 0 0 0 0 0 0 0 0 0 0 0 0 0 0 0 0 0 0 0 0 0 0 0 0 0 0 0 0 0 0 0 0 0c0.1 0.1 0.1 0.2 0.2 0.2l0.3 1.9 0.2 0.9 0.1 0.5h-4.9v3.9H119v-9.3c0-2.7 2.2-4.9 4.9-4.9l1.2 4.7c-0.1 0.3-0.1 0.6 0 0.9C125.1 329.5 125.2 329.8 125.3 330.1z"/>
      <path fill="#CCCCCC" d="M125.7 324.9l-0.6-1.2h1.2 1.2l-0.6 1.2 0.1 1.9c-0.2 0-0.3 0-0.5 0 -0.4 0.1-0.8 0.3-1 0.6L125.7 324.9z"/>
      <path fill="#CCCCCC" d="M126.3 311.4c-2.7 0-4.9 2.5-4.9 5.5 0 3 2.2 5.5 4.9 5.5 2.7 0 4.9-2.5 4.9-5.5C131.2 313.8 129 311.4 126.3 311.4z"/>
      <path fill="#CCCCCC" d="M126.7 327.7c-0.5 0.1-0.9 0.7-0.8 1.3 0.1 0.4 0.3 0.8 0.7 0.9l0.7 4h1l-0.7-4.1c0.3-0.3 0.4-0.7 0.3-1.1C127.8 328.1 127.3 327.6 126.7 327.7z"/>
      <polygon fill="#CCCCCC" points="133.2 334.9 122.4 334.9 122.4 337.8 127.5 337.8 134.2 337.8 "/>
      <polygon fill="#CCCCCC" points="137.2 359.4 141.1 359.4 141.1 361.4 137.2 361.4 "/>
      <polygon fill="#CCCCCC" points="60.7 359.4 64.6 359.4 64.6 361.4 60.7 361.4 "/>
      <polygon fill="#CCCCCC" points="57.8 338.8 144 338.8 146 358.4 55.8 358.4 "/>
    </g>
    <rect x="-0.8" y="326.2" fill="none" width="202.4" height="22.7"/>
    <text transform="matrix(1 0 0 1 16.4966 347.1602)" fill="#F2F2F2" font-family="'Quicksand-Regular'" font-size="30">
      Committee
    </text>
  </g>
  <g id="Lunch">
    <rect x="190" y="225" fill="#50E6D7" width="10" height="75"/>
    <polygon fill="#50E6D7" points="199.9 259.4 202 262.1 199.9 264.7 "/>
    <rect x="192" y="225" fill="#50E6D7" width="200" height="75"/>
    <path opacity="0.6" fill="#F2F2F2" d="M315.5 274.7c1.4-3.4 0.9-7 0.1-9.1 -0.2-0.5-0.7-0.9-1.3-0.9 -2.2-0.1-5.8 0.6-8.5 3.1 -0.9-0.5-2-0.9-3.1-0.9 -0.2 0-0.3 0-0.5 0 -0.1-0.9-0.4-1.8-0.7-2.5 -0.2-0.5-0.7-0.9-1.3-0.9 -2.7-0.1-7.4 0.9-10.1 4.9 -1.3-2.7-3.6-4.6-5.3-5.6v-5.5c0-4.1-2.4-7.9-6.1-9.6v-3.4h0.1c0.4 0 0.7-0.3 0.7-0.7v-3.7c0-0.4-0.3-0.7-0.7-0.7h-9.6c-0.4 0-0.7 0.3-0.7 0.7v3.7c0 0.4 0.3 0.7 0.7 0.7h0.2v3.4c-3.7 1.8-6.1 5.5-6.1 9.6v30.3c0 0.8 0.7 1.5 1.5 1.5h9.2 9.3 29c0.7 0 1.3-0.5 1.4-1.2l2.6-11.8c0.1-0.4 0-0.9-0.3-1.2C315.7 274.9 315.6 274.8 315.5 274.7zM300.6 270.5c0.4-0.3 1-0.5 1.5-0.6 0.1 0 0.3 0 0.4 0 0.4 0 0.8 0.1 1.2 0.2 0.5 0.2 0.9 0.5 1.2 0.8 0.4 0.4 0.7 1 0.8 1.6 0 0.2 0.1 0.4 0.1 0.6 0 0.5-0.1 0.9-0.3 1.3h-0.4 -1.5 -1.5 -1.3 -1.4c0-0.1-0.1-0.2-0.1-0.3 -0.1-0.3-0.1-0.6-0.1-1C299.3 272.1 299.8 271.1 300.6 270.5zM291 273.7c1.1-5.8 5.9-6.9 8-7.1 0.1 0.4 0.2 0.8 0.2 1.4 -1.7 1.1-2.9 3.1-2.9 5.3 0 0.4 0 0.9 0.1 1.3h-2.3l3.1-5c0.2-0.3 0.1-0.8-0.2-1 -0.3-0.2-0.8-0.1-1 0.2l-3.5 5.8H291l-0.1-0.1C290.9 274.2 290.9 273.9 291 273.7zM283.2 266.7c0.3-0.3 0.5-0.6 0.7-0.9 0.2 0.2 0.5 0.3 0.8 0.6 1.7 1.3 4 4 3.3 8.1h-2.3l-1-5.2 0-0.2c-0.1-0.4-0.5-0.7-0.9-0.6 -0.3 0.1-0.5 0.3-0.6 0.6 0 0.1 0 0.2 0 0.3l0 0 1 5h-1 -0.4 -0.9c0-0.1-0.1-0.3-0.1-0.4 -0.1-0.2-0.1-0.5-0.2-0.7 -0.2-0.8-0.2-1.5-0.1-2.2 0.1-0.5 0.2-1 0.3-1.5 0.1-0.3 0.2-0.5 0.3-0.8C282.3 268.1 282.7 267.3 283.2 266.7zM270.9 274.6c-0.3 0.1-0.6 0.2-0.8 0.5 -0.3 0.3-0.4 0.8-0.3 1.2l2.2 10h-5.9v-28.8c0-3.2 2-6.2 5.1-7.3 0.6-0.2 1-0.8 1-1.4v-4.4h3.4v4.4c0 0.6 0.4 1.2 1 1.4 3 1.1 5.1 4 5.1 7.3v6.4c-0.7 0.8-1.5 1.8-2.1 3 -0.8-0.4-1.8-0.7-2.8-0.7 -3.4 0-6.3 2.8-6.3 6.2C270.6 273.2 270.7 273.9 270.9 274.6zM278.8 274.5h-4.5c-0.4-0.6-0.7-1.3-0.7-2 0-1.8 1.5-3.3 3.3-3.3 0.7 0 1.3 0.2 1.8 0.6C278.4 271.2 278.3 272.8 278.8 274.5zM312.6 278.7l-1.6 7.6h-26.3 -1.5 -1.5H275l-1.9-8.7 0-0.1h6.8 0.7 1.1 1.3 0.2 1.5 0.1 1.3 1.9 2 4.2 1 0.9 1.9 0.6 1.8 4.4 2.4 0.5 1.7 2.4 1.1L312.6 278.7zM312.3 274.5h-3.6c0.1-0.4 0.1-0.8 0.1-1.3 0-1.2-0.4-2.4-1-3.3 1.8-1.6 4-2 5.3-2.1C313.5 269.2 313.8 272 312.3 274.5z"/>
    <rect x="191.8" y="247" fill="none" width="199" height="46.2"/>
    <text transform="matrix(1 0 0 1 219.9868 280.5615)" fill="#F2F2F2" font-family="'Quicksand-Regular'" font-size="48">
      Lunch
    </text>
  </g>
  <g id="Committee">
    <rect x="190" y="150" fill="#09AE9E" width="10" height="75"/>
    <polygon fill="#09AE9E" points="190.5 190.6 188.4 187.9 190.5 185.3 "/>
    <rect y="150" fill="#09AE9E" width="200" height="75"/>
    <g opacity="0.4">
      <polygon fill="#CCCCCC" points="57 195.5 143 195.5 145 215.1 55 215.1 "/>
      <polygon fill="#CCCCCC" points="136.2 216.1 140.1 216.1 140.1 218 136.2 218 "/>
      <polygon fill="#CCCCCC" points="59.9 216.1 63.8 216.1 63.8 218 59.9 218 "/>
      <path fill="#CCCCCC" d="M67.2 190.6v-5.4c0-2.7 2.2-4.9 4.9-4.9l0.9 3.4c-0.5 0.3-0.8 0.9-1 1.5 -0.1 0.5 0 1 0.2 1.5l-0.7 3.9H67.2z"/>
      <path fill="#CCCCCC" d="M74.1 184.4c0.5 0.1 0.9 0.7 0.8 1.3 -0.1 0.4-0.3 0.8-0.7 0.9l-0.7 3.9h-1l0.7-4.1c-0.3-0.3-0.4-0.7-0.3-1.1C73 184.8 73.5 184.3 74.1 184.4z"/>
      <polygon fill="#CCCCCC" points="67.6 191.6 78.4 191.6 78.4 194.5 66.7 194.5 "/>
      <path fill="#CCCCCC" d="M76.9 180.4c2.7 0 4.9 2.2 4.9 4.9v9.3h-2.4v-3.9h-4.9l0.1-0.5 0.2-0.9 0.3-1.9c0.1-0.1 0.1-0.1 0.2-0.2l0 0 0 0 0 0 0 0 0 0 0 0 0 0 0 0 0 0 0 0 0 0 0 0 0 0 0 0 0 0 0 0 0 0 0 0 0 0 0 0 0 0 0 0 0 0 0 0 0 0 0 0 0 0 0 0 0 0 0 0 0 0 0 0 0 0 0 0 0 0 0 0 0 0 0 0 0 0 0 0 0 0 0 0 0 0 0 0 0 0 0 0 0 0 0 0 0 0 0 0 0 0 0 0c0.2-0.3 0.3-0.5 0.3-0.8 0.1-0.3 0-0.6 0-0.9L76.9 180.4z"/>
      <path fill="#CCCCCC" d="M75.1 181.6l0.6-1.2h-1.2 -1.2l0.6 1.2 -0.1 1.9c0.2 0 0.3 0 0.5 0 0.4 0.1 0.8 0.3 1 0.6L75.1 181.6z"/>
      <path fill="#CCCCCC" d="M74.5 168.1c2.7 0 4.9 2.5 4.9 5.5 0 3-2.2 5.5-4.9 5.5 -2.7 0-4.9-2.5-4.9-5.5C69.6 170.6 71.8 168.1 74.5 168.1z"/>
      <path fill="#CCCCCC" d="M132.7 190.6v-5.4c0-2.7-2.2-4.9-4.9-4.9l-0.9 3.4c0.5 0.3 0.8 0.9 1 1.5 0.1 0.5 0 1-0.2 1.5l0.7 3.9H132.7z"/>
      <path fill="#CCCCCC" d="M125.8 184.4c-0.5 0.1-0.9 0.7-0.8 1.3 0.1 0.4 0.3 0.8 0.7 0.9l0.7 3.9h1l-0.7-4.1c0.3-0.3 0.4-0.7 0.3-1.1C126.8 184.8 126.3 184.3 125.8 184.4z"/>
      <polygon fill="#CCCCCC" points="132.2 191.6 121.4 191.6 121.4 194.5 126.6 194.5 133.2 194.5 "/>
      <path fill="#CCCCCC" d="M122.9 180.4c-2.7 0-4.9 2.2-4.9 4.9v9.3h2.4v-3.9h4.9l-0.1-0.5 -0.2-0.9 -0.3-1.9c-0.1-0.1-0.2-0.1-0.2-0.2l0 0 0 0 0 0 0 0 0 0 0 0 0 0 0 0 0 0 0 0 0 0 0 0 0 0 0 0 0 0 0 0 0 0 0 0 0 0 0 0 0 0 0 0 0 0 0 0 0 0 0 0 0 0 0 0 0 0c-0.2-0.3-0.3-0.5-0.3-0.8 -0.1-0.3 0-0.6 0-0.9L122.9 180.4z"/>
      <path fill="#CCCCCC" d="M124.7 181.6l-0.6-1.2h1.2 1.2l-0.6 1.2 0.1 1.9c-0.2 0-0.3 0-0.5 0 -0.4 0.1-0.8 0.3-1 0.6L124.7 181.6z"/>
      <path fill="#CCCCCC" d="M125.4 168.1c-2.7 0-4.9 2.5-4.9 5.5 0 3 2.2 5.5 4.9 5.5 2.7 0 4.9-2.5 4.9-5.5C130.2 170.6 128.1 168.1 125.4 168.1z"/>
      <path fill="#CCCCCC" d="M112.3 180.1l6.6-6.6c0.9-0.9 0.9-2.4 0-3.3l0 0c-0.9-0.9-2.4-0.9-3.3 0l-5 5 -5-5 0 0c-0.9-0.9-2-1.4-3.3-1.4l-1.4 5.7 -0.3-4.6 0.6-1.2H100h-1.2l0.6 1.2 -0.3 4.6 -1.4-5.7c-1.3 0-2.5 0.5-3.3 1.4l-4.9 4.9 -5-5c-0.9-0.9-2.4-0.9-3.3 0l0 0c-0.9 0.9-0.9 2.4 0 3.3l6.6 6.6 0 0 0 0 0 0 0 0 0 0 0 0h0l0 0v0l0 0h0l0 0h0l0 0 0 0 0 0h0l0.1 0h0l0.1 0h0l0.1 0 0 0 0.1 0 0 0 0.1 0h0l0.1 0h0l0.1 0h0l0.1 0h0l0.1 0h0l0.1 0 0 0 0.1 0h0l0.1 0h0l0.1 0h0l0.1 0h0l0.1 0h0l0.1 0h0l0.1 0h0l0.1 0 0 0 0.1 0h0l0.1 0h0 0.1 0 0.1 0l0.1 0h0l0.1 0 0 0 0.1 0h0l0.1 0h0l0.1 0h0l0.1 0 0 0 0.1 0h0l0.1 0h0l0.1 0h0l0.1 0h0l0.1 0h0l0.1 0h0l0.1 0h0l0.1 0h0l0.1 0 0 0 0.1 0h0l0.1 0 0 0 0.1 0h0l0.1-0.1h0l0 0 0 0 0 0h0c0 0 0.1 0 0.1-0.1l0 0 0 0c0.1-0.1 0.2-0.1 0.3-0.2l1.9-1.9v16.4h0.1l0.7-3.9h4.7V187c-0.3-0.4-0.5-0.9-0.5-1.4 0-1.1 0.8-2.2 2-2.2 1.2 0 2 1 2 2.2 0 0.5-0.2 1-0.5 1.4v3.7h4.7l0.7 3.9h0.2v-16.4l1.9 1.9c0.1 0.1 0.2 0.2 0.3 0.2l0 0h0c0 0 0.1 0 0.1 0.1h0l0 0 0 0 0 0h0l0.1 0.1h0l0.1 0h0l0.1 0h0l0.1 0h0l0.1 0h0l0.1 0h0l0.1 0v0l0.1 0h0l0.1 0h0l0.1 0h0l0.1 0h0l0.1 0h0l0.1 0 0 0 0.1 0h0l0.1 0h0l0.1 0h0l0.1 0 0 0 0.1 0h0l0.1 0h0 0.1 0 0.1 0l0.1 0h0l0.1 0 0 0 0.1 0 0 0 0.1 0h0l0.1 0h0l0.1 0h0l0.1 0h0l0.1 0h0l0.1 0 0 0 0.1 0 0 0 0.1 0h0l0.1 0 0 0 0.1 0h0l0.1 0h0l0.1 0h0l0.1 0 0 0 0.1 0h0l0.1 0 0 0 0.1 0h0l0.1 0 0 0 0 0 0 0 0 0h0l0 0h0l0 0 0 0 0 0h0l0 0 0 0 0 0L112.3 180.1 112.3 180.1 112.3 180.1z"/>
      <path fill="#CCCCCC" d="M100 157c2.6 0 4.7 2.4 4.7 5.3 0 2.9-2.1 5.3-4.7 5.3 -2.6 0-4.7-2.4-4.7-5.3C95.3 159.3 97.4 157 100 157z"/>
      <polygon fill="#CCCCCC" points="94.5 191.6 105.3 191.6 105.8 194.5 94.1 194.5 "/>
      <path fill="#CCCCCC" d="M99.9 184.4c0.5 0 1 0.5 1 1.2 0 0.4-0.2 0.8-0.5 1v4.1h-1v-4.1c-0.3-0.2-0.5-0.6-0.5-1C98.9 184.9 99.4 184.4 99.9 184.4z"/>
    </g>
    <rect x="-0.4" y="176.2" fill="none" width="202.4" height="22.7"/>
    <text transform="matrix(1 0 0 1 16.8232 197.1602)" fill="#F2F2F2" font-family="'Quicksand-Regular'" font-size="30">
      Committee
    </text>
  </g>
  <g id="Opening_Ceremonies">
    <rect x="190" y="75" fill="#056158" width="10" height="75"/>
    <polygon fill="#056158" points="199.9 109.4 202 112.1 199.9 114.7 "/>
    <rect x="192" y="75" fill="#056158" width="200" height="75"/>
    <g opacity="0.4">
      <path fill="#CCCCCC" d="M298.3 107.9c0 0 0-11-2.8-11.1 -0.7 0-6.5 0-8.3 0 -3 0-2.8 11.1-2.8 11.1H298.3zM278.8 109.3l5.6 27.8h13.9l5.6-27.8H278.8L278.8 109.3zM291.3 124.6c-3.1 0-5.6-2.5-5.6-5.6 0-3.1 2.5-5.6 5.6-5.6s5.6 2.5 5.6 5.6S294.4 124.6 291.3 124.6zM291.3 95.4c2.3 0 4.2-1.9 4.2-4.2s-1.9-4.2-4.2-4.2c-2.3 0-4.2 1.9-4.2 4.2C287.2 93.5 289 95.4 291.3 95.4zM291.3 114.9c-2.3 0-4.2 1.9-4.2 4.2 0 2.3 1.9 4.2 4.2 4.2 2.3 0 4.2-1.9 4.2-4.2C295.5 116.7 293.6 114.9 291.3 114.9z"/>
    </g>
    <rect x="190.8" y="89.4" fill="none" width="199" height="46.2"/>
    <text transform="matrix(1 0 0 1 238.8862 106.1772)">
      <tspan x="0" y="0" fill="#F2F2F2" font-family="'Quicksand-Regular'" font-size="24">
        Opening
      </tspan>
      <tspan x="-39.3" y="28.8" fill="#F2F2F2" font-family="'Quicksand-Regular'" font-size="24">
        Cerememonies
      </tspan>
    </text>
  </g>
  <g id="Registration">
    <rect x="190" fill="#056158" width="10" height="75"/>
    <polygon fill="#056158" points="190.5 40.6 188.4 37.9 190.5 35.3 "/>
    <rect x="1" fill="#056158" width="200" height="75"/>
    <g opacity="0.4">
      <rect x="89.1" y="27.9" fill="#CCCCCC" width="23.9" height="2.4"/>
      <rect x="89.1" y="37.4" fill="#CCCCCC" width="23.9" height="2.4"/>
      <rect x="89.1" y="47" fill="#CCCCCC" width="23.9" height="2.4"/>
      <rect x="89.1" y="32.6" fill="#CCCCCC" width="23.9" height="2.4"/>
      <rect x="89.1" y="42.2" fill="#CCCCCC" width="23.9" height="2.4"/>
      <rect x="89.1" y="51.7" fill="#CCCCCC" width="23.9" height="2.4"/>
      <path fill="#CCCCCC" d="M110.6 16.2h-4.8v-1.9c0-1.3-1.1-2.4-2.4-2.4h-4.8c-1.3 0-2.4 1.1-2.4 2.4v1.9h-4.8c-1.3 0-2.4 1.1-2.4 2.4v4.1h23.9v-4.1C112.9 17.2 111.9 16.2 110.6 16.2z"/>
      <polygon fill="#CCCCCC" points="114.1 18.9 114.1 21.2 117.7 21.2 117.7 59.5 84.3 59.5 84.3 21.2 87.9 21.2 87.9 18.9 81.9 18.9 81.9 61.9 120.1 61.9 120.1 18.9 "/>
    </g>
    <rect x="-0.6" y="29.3" fill="none" width="202.4" height="22.7"/>
    <text transform="matrix(1 0 0 1 10.0078 50.2515)" fill="#F2F2F2" font-family="'Quicksand-Regular'" font-size="30">
      Registration
    </text>
  </g>
  <g id="Times">
    <rect x="27.8" y="552.8" fill="none" width="142" height="19.3"/>
    <text transform="matrix(1 0 0 1 39.9033 569.6328)" font-family="'Quicksand-Regular'" font-size="24">
      6:00-6:30
    </text>
    <rect x="222.7" y="477.8" fill="none" width="142" height="19.3"/>
    <text transform="matrix(1 0 0 1 233.2651 494.6328)" font-family="'Quicksand-Regular'" font-size="24">
      4:00-6:00
    </text>
    <rect x="28.8" y="402.8" fill="none" width="142" height="19.3"/>
    <text transform="matrix(1 0 0 1 40.9336 419.6328)" font-family="'Quicksand-Regular'" font-size="24">
      3:30-4:00
    </text>
    <rect x="224.7" y="327.8" fill="none" width="142" height="19.3"/>
    <text transform="matrix(1 0 0 1 246.5737 344.6328)" font-family="'Quicksand-Regular'" font-size="24">
      1:15-3:30
    </text>
    <rect x="29.2" y="252.8" fill="none" width="142" height="19.3"/>
    <text transform="matrix(1 0 0 1 47.3164 269.6333)" font-family="'Quicksand-Regular'" font-size="24">
      12:30-1:15
    </text>
    <rect x="223.3" y="177.8" fill="none" width="142" height="19.3"/>
    <text transform="matrix(1 0 0 1 232.9292 194.6333)" font-family="'Quicksand-Regular'" font-size="24">
      10:15-12:30
    </text>
    <rect x="28.3" y="102.8" fill="none" width="142" height="19.3"/>
    <text transform="matrix(1 0 0 1 35.5225 119.6333)" font-family="'Quicksand-Regular'" font-size="24">
      9:30-10:00
    </text>
    <rect x="224" y="33.7" fill="none" width="142" height="19.3"/>
    <text transform="matrix(1 0 0 1 237.6577 50.5122)" font-family="'Quicksand-Regular'" font-size="24">
      8:30-9:20
    </text>
  </g>
</svg>
